<svg width="124" height="24" viewBox="0 0 124 24" fill="none" xmlns="http://www.w3.org/2000/svg">
<g clip-path="url(#clip0_550_134)">
<path d="M1.39689 3.44405V4.77039H1.43226C1.90714 4.0735 2.61635 3.57016 3.43093 3.35192C4.24551 3.13367 5.11136 3.21499 5.87105 3.58111C6.10291 3.7047 6.30753 3.87369 6.47273 4.078C6.63793 4.28232 6.76033 4.51779 6.83264 4.77039C7.12277 4.29173 7.53569 3.89942 8.02856 3.63416C8.53137 3.36477 9.09396 3.2264 9.66437 3.23184C10.0795 3.22784 10.4933 3.27763 10.8956 3.37995C11.2389 3.46792 11.5603 3.62597 11.8396 3.84416C12.1071 4.06024 12.3174 4.33886 12.4519 4.65543C12.6074 5.03528 12.6827 5.44321 12.6729 5.85356V12.4852H11.1874V6.56094C11.1891 6.29706 11.1662 6.03359 11.1189 5.77397C11.0781 5.54528 10.9884 5.32811 10.8559 5.13734C10.7193 4.94977 10.5355 4.80178 10.3231 4.70849C10.0428 4.59409 9.74142 4.54058 9.43889 4.55154C9.12296 4.53414 8.80678 4.58079 8.50934 4.68867C8.2119 4.79656 7.93934 4.96346 7.70803 5.17934C7.49467 5.40199 7.32895 5.66579 7.22101 5.95465C7.11307 6.24352 7.06516 6.55136 7.08023 6.85936V12.4852H5.59252V6.56094C5.59466 6.29066 5.56798 6.02092 5.51294 5.75629C5.46622 5.5279 5.37373 5.31133 5.24105 5.11965C5.1102 4.93593 4.93228 4.79085 4.72599 4.69965C4.4634 4.5917 4.18075 4.54119 3.89703 4.55154C3.51198 4.54143 3.13096 4.63211 2.79175 4.81459C2.24153 5.11476 1.82358 5.60999 1.62015 6.20282C1.54153 6.41549 1.4975 6.63939 1.48973 6.86599V12.4919H-0.000183105V3.44405H1.39689Z" fill="white"/>
<path d="M21.376 12.671C21.0397 12.688 20.7102 12.5721 20.4586 12.3482C20.2302 12.1316 20.1167 11.7794 20.1182 11.2916C19.7403 11.7582 19.2506 12.1216 18.6946 12.3482C18.1312 12.5678 17.5309 12.6774 16.9262 12.671C16.5377 12.6739 16.1503 12.6301 15.7723 12.5405C15.4282 12.4587 15.1041 12.3083 14.8195 12.0984C14.5442 11.8918 14.3228 11.6218 14.174 11.3115C14.0076 10.947 13.9267 10.5493 13.9375 10.1487C13.9209 9.71352 14.0112 9.28088 14.2005 8.8887C14.3657 8.57422 14.6019 8.30251 14.8902 8.0951C15.188 7.8859 15.5191 7.72893 15.8695 7.63089C16.2365 7.527 16.6123 7.43857 16.9969 7.37004C17.3815 7.30151 17.7927 7.22636 18.1574 7.18657C18.4848 7.15252 18.8092 7.09414 19.1279 7.01193C19.3711 6.95274 19.5978 6.83939 19.791 6.68035C19.8759 6.59808 19.9418 6.49831 19.9842 6.38798C20.0266 6.27765 20.0444 6.15942 20.0364 6.0415C20.0488 5.7673 19.9853 5.495 19.8529 5.25455C19.7382 5.06423 19.5749 4.90782 19.3799 4.80138C19.1821 4.69622 18.9673 4.62663 18.7455 4.5958C18.5105 4.56081 18.2734 4.54308 18.0359 4.54275C17.4897 4.52316 16.9479 4.64661 16.4642 4.90086C16.0441 5.1396 15.8165 5.59129 15.7811 6.25593H14.2956C14.3018 5.76351 14.4221 5.27924 14.6471 4.84117C14.8467 4.46577 15.1341 4.14421 15.4849 3.90389C15.8509 3.65867 16.2595 3.48399 16.6896 3.38884C17.1604 3.28283 17.6417 3.23018 18.1243 3.23188C18.5303 3.23183 18.9359 3.26065 19.3379 3.3181C19.7204 3.37113 20.0903 3.49242 20.4299 3.67621C20.7551 3.85629 21.0267 4.11947 21.2168 4.43885C21.4304 4.82893 21.5328 5.27009 21.5131 5.71434V10.3565C21.5056 10.6144 21.5263 10.8724 21.575 11.1258C21.617 11.2871 21.754 11.3689 21.9861 11.3689C22.1408 11.364 22.2937 11.335 22.4393 11.2827V12.4344C22.11 12.6013 21.7423 12.6776 21.3738 12.6555M19.2937 8.10395C18.9908 8.16805 18.6747 8.21889 18.3431 8.2609C18.0115 8.3029 17.68 8.34932 17.3373 8.40016C17.0248 8.44557 16.7195 8.53101 16.4288 8.65437C16.1693 8.76159 15.9412 8.93269 15.7656 9.15175C15.5847 9.40984 15.496 9.7213 15.5136 10.036C15.5061 10.2526 15.5573 10.4672 15.6617 10.6571C15.757 10.8217 15.8885 10.9623 16.0464 11.0683C16.2173 11.1763 16.407 11.2513 16.6056 11.2894C16.8236 11.336 17.0459 11.359 17.2688 11.3579C17.6969 11.3685 18.1232 11.3004 18.5266 11.1567C18.8423 11.0445 19.1335 10.8726 19.3843 10.6505C19.5913 10.4657 19.7577 10.2399 19.8728 9.98735C19.9716 9.77602 20.0251 9.54635 20.0298 9.31312V7.79226C19.8108 7.94751 19.5602 8.05244 19.2959 8.09953" fill="white"/>
<path d="M24.8378 3.44409V4.87653H24.8709C25.4899 3.78304 26.4684 3.23556 27.8065 3.23409C28.3136 3.21904 28.8188 3.30237 29.2942 3.47946C29.6649 3.62447 29.9944 3.85826 30.2536 4.16031C30.5038 4.46211 30.6809 4.8177 30.7709 5.19928C30.8721 5.63405 30.9218 6.07922 30.919 6.52561V12.4676H29.4335V6.36424C29.4457 6.12164 29.4087 5.87909 29.3247 5.65116C29.2408 5.42323 29.1116 5.21463 28.945 5.0379C28.7651 4.86995 28.5531 4.74009 28.3218 4.65614C28.0904 4.57219 27.8445 4.53587 27.5987 4.54937C27.1945 4.54376 26.7932 4.61891 26.4183 4.77043C26.0994 4.9013 25.8155 5.10493 25.5893 5.36507C25.3632 5.62773 25.1932 5.93391 25.0898 6.26476C24.9759 6.62958 24.92 7.00999 24.924 7.39214V12.4941H23.4385V3.44409H24.8378Z" fill="white"/>
<path d="M32.7163 3.05176e-05H34.1996V1.8171H32.7163V3.05176e-05ZM34.1996 12.4786H32.7163V3.44408H34.1996V12.4786Z" fill="white"/>
<path d="M37.5154 3.44404V4.66648H37.5486C37.7866 4.17356 38.1972 3.78503 38.7025 3.57447C39.2497 3.34246 39.8391 3.22654 40.4333 3.23404C41.0636 3.2191 41.6886 3.35077 42.2593 3.61867C42.7628 3.86358 43.2048 4.21867 43.5524 4.65764C43.9038 5.10871 44.1677 5.62154 44.3306 6.16966C44.5073 6.75902 44.5953 7.37144 44.5914 7.98673C44.5953 8.60139 44.5104 9.21339 44.3394 9.80381C44.1843 10.3485 43.9228 10.8572 43.5701 11.3004C43.2219 11.7298 42.7794 12.0733 42.277 12.3039C41.709 12.5592 41.0912 12.6846 40.4687 12.6709C40.2197 12.6689 39.9712 12.6459 39.726 12.6024C39.4483 12.5553 39.1758 12.4813 38.9125 12.3813C38.6407 12.2737 38.3848 12.1294 38.1521 11.9525C37.9108 11.7716 37.706 11.5465 37.5486 11.2893H37.5154V15.9315H36.0277V3.44404H37.5154ZM42.8539 6.65155C42.7504 6.26512 42.5781 5.90047 42.3455 5.57502C42.1179 5.2596 41.8186 5.00276 41.4723 4.82564C41.0854 4.63082 40.6564 4.53439 40.2233 4.5449C39.8059 4.5287 39.3912 4.61879 39.0181 4.8067C38.645 4.99461 38.3257 5.27419 38.0902 5.61923C37.8656 5.95125 37.703 6.32124 37.6105 6.71124C37.407 7.54118 37.407 8.40798 37.6105 9.23791C37.7056 9.63012 37.8744 10.0007 38.1078 10.3299C38.3399 10.6483 38.6426 10.9086 38.9921 11.0904C39.3986 11.2928 39.849 11.3915 40.3029 11.3777C40.7495 11.3927 41.1923 11.2906 41.5873 11.0815C41.923 10.8898 42.2074 10.6198 42.4162 10.2946C42.6328 9.95148 42.787 9.5728 42.8716 9.17601C42.965 8.75131 43.0117 8.31768 43.0109 7.88284C43.0113 7.46682 42.9555 7.05264 42.8451 6.65155" fill="white"/>
<path d="M52.8013 12.671C52.4649 12.6883 52.1353 12.5723 51.8839 12.3482C51.6555 12.1316 51.542 11.7794 51.5435 11.2916C51.1643 11.7578 50.674 12.1211 50.1177 12.3482C49.5584 12.5662 48.9627 12.6758 48.3625 12.671C47.974 12.6741 47.5866 12.6303 47.2086 12.5405C46.8643 12.4592 46.5402 12.3088 46.2558 12.0984C45.9805 11.8918 45.7591 11.6218 45.6103 11.3115C45.4439 10.947 45.363 10.5493 45.3738 10.1487C45.3566 9.71372 45.4461 9.28111 45.6346 8.88871C45.8007 8.57412 46.0375 8.30244 46.3265 8.09511C46.6235 7.88595 46.9539 7.72897 47.3036 7.6309C47.6706 7.527 48.0464 7.43858 48.431 7.37005C48.8156 7.30152 49.2268 7.22637 49.5937 7.18658C49.921 7.1521 50.2454 7.09373 50.5642 7.01194C50.8075 6.95311 51.0343 6.83973 51.2273 6.68036C51.3122 6.59809 51.3781 6.49832 51.4205 6.38799C51.4629 6.27766 51.4807 6.15943 51.4727 6.04151C51.4851 5.76731 51.4216 5.495 51.2892 5.25455C51.1759 5.06391 51.0132 4.90736 50.8184 4.80139C50.6168 4.69311 50.3974 4.62198 50.1707 4.59139C49.9365 4.55639 49.7001 4.53865 49.4633 4.53833C48.9165 4.51877 48.374 4.6422 47.8894 4.89644C47.4723 5.13518 47.2454 5.58687 47.2086 6.25151H45.7142C45.7198 5.75927 45.8393 5.27502 46.0635 4.83676C46.2642 4.46147 46.5524 4.13999 46.9035 3.89948C47.2695 3.65426 47.6781 3.47957 48.1083 3.38442C48.5783 3.27843 49.0588 3.22579 49.5407 3.22747C49.9475 3.22735 50.3538 3.25616 50.7565 3.31369C51.1389 3.36704 51.5088 3.48832 51.8485 3.6718C52.1733 3.85247 52.4447 4.11551 52.6355 4.43443C52.849 4.82451 52.9514 5.26568 52.9317 5.70993V10.3521C52.9231 10.61 52.9438 10.8681 52.9936 11.1214C53.0334 11.2827 53.1704 11.3645 53.4047 11.3645C53.5594 11.3596 53.7123 11.3305 53.8579 11.2783V12.43C53.5286 12.5967 53.1609 12.673 52.7924 12.6511M50.7123 8.09954C50.4094 8.16364 50.0911 8.21448 49.7595 8.25648C49.428 8.29849 49.0964 8.34491 48.7559 8.39575C48.4435 8.44116 48.1381 8.5266 47.8474 8.64996C47.5873 8.75598 47.3589 8.92729 47.1842 9.14734C47.0016 9.40469 46.912 9.71651 46.93 10.0316C46.9236 10.2481 46.9747 10.4624 47.0781 10.6527C47.1734 10.8173 47.3049 10.9579 47.4628 11.0639C47.6341 11.1711 47.8237 11.2461 48.022 11.2849C48.24 11.3314 48.4623 11.3544 48.6852 11.3535C49.1133 11.3639 49.5396 11.2958 49.943 11.1523C50.2583 11.0392 50.5493 10.8675 50.8007 10.6461C51.0077 10.4613 51.1741 10.2354 51.2892 9.98293C51.387 9.77125 51.4404 9.54181 51.4462 9.30871V7.78785C51.2272 7.9431 50.9766 8.04802 50.7123 8.09511" fill="white"/>
<path d="M56.4179 3.05176e-05H54.9324V12.4786H56.4179V3.05176e-05Z" fill="white"/>
<path d="M59.7048 0.00228882V4.77266H59.7402C59.8497 4.50364 60.0173 4.26211 60.2309 4.06529C60.4405 3.87263 60.6783 3.7131 60.9361 3.59223C61.1991 3.47101 61.4749 3.37981 61.7584 3.32033C62.0319 3.26404 62.3103 3.23516 62.5896 3.23412C63.096 3.21886 63.6005 3.3022 64.0751 3.47949C64.4462 3.62482 64.7763 3.85853 65.0367 4.16034C65.2854 4.46283 65.4615 4.81823 65.5517 5.19931C65.654 5.6339 65.7037 6.0792 65.6998 6.52564V12.4676H64.2143V6.36427C64.2265 6.12167 64.1895 5.87912 64.1056 5.65119C64.0216 5.42326 63.8924 5.21466 63.7258 5.03793C63.5459 4.86998 63.3339 4.74013 63.1026 4.65617C62.8712 4.57222 62.6253 4.5359 62.3796 4.5494C61.976 4.54355 61.5753 4.61871 61.2013 4.77046C60.8813 4.90044 60.5965 5.10419 60.3702 5.3651C60.1452 5.62857 59.9753 5.9345 59.8706 6.26479C59.7567 6.62961 59.7008 7.01002 59.7048 7.39217V12.4941H58.2193V0.00228882H59.7048Z" fill="white"/>
<path d="M67.2494 6.11002C67.4215 5.55633 67.7068 5.04444 68.0872 4.60684C68.4689 4.17478 68.9404 3.83148 69.4688 3.60104C70.6821 3.11166 72.0378 3.11166 73.2511 3.60104C73.7759 3.83339 74.2442 4.1765 74.6238 4.60684C75.0041 5.04487 75.2901 5.55658 75.4639 6.11002C75.6535 6.71207 75.7475 7.34013 75.7424 7.97131C75.7476 8.5996 75.6536 9.22478 75.4639 9.82375C75.288 10.3736 75.0022 10.882 74.6238 11.3181C74.2449 11.7464 73.7762 12.0861 73.2511 12.3128C72.0355 12.7903 70.6844 12.7903 69.4688 12.3128C68.9401 12.088 68.4682 11.7482 68.0872 11.3181C67.7087 10.8825 67.4236 10.3739 67.2494 9.82375C67.0577 9.22519 66.9629 8.59981 66.9687 7.97131C66.9632 7.33993 67.058 6.7117 67.2494 6.11002ZM68.7615 9.42586C68.8871 9.8183 69.0918 10.1809 69.3627 10.4913C69.6116 10.7753 69.9194 11.0016 70.2646 11.1545C70.6091 11.3047 70.9809 11.3822 71.3566 11.3822C71.7324 11.3822 72.1042 11.3047 72.4487 11.1545C72.7929 11.0009 73.0998 10.7747 73.3484 10.4913C73.6193 10.1805 73.8245 9.81806 73.9518 9.42586C74.2407 8.4739 74.2407 7.45767 73.9518 6.50571C73.8219 6.1129 73.6161 5.74939 73.3461 5.4358C73.0989 5.15101 72.7916 4.92453 72.4465 4.77263C72.102 4.62244 71.7302 4.54492 71.3544 4.54492C70.9786 4.54492 70.6069 4.62244 70.2624 4.77263C69.9162 4.92392 69.6081 5.15047 69.3605 5.4358C69.0908 5.75047 68.8864 6.11568 68.7592 6.51013C68.4675 7.46165 68.4675 8.47876 68.7592 9.43027" fill="white"/>
<path d="M78.196 10.4604C78.3308 10.6846 78.5201 10.8709 78.7464 11.002C78.9845 11.1399 79.2436 11.2378 79.5135 11.2916C79.8047 11.3495 80.1008 11.3784 80.3977 11.3778C80.6433 11.3769 80.8885 11.3591 81.1316 11.3248C81.3751 11.2948 81.6133 11.2308 81.839 11.1346C82.0494 11.0464 82.233 10.9046 82.3717 10.7235C82.5183 10.5242 82.5924 10.2809 82.5817 10.0338C82.5915 9.86065 82.5559 9.68797 82.4783 9.53287C82.4007 9.37776 82.284 9.24563 82.1396 9.14957C81.8031 8.9317 81.4336 8.7697 81.0454 8.66987C80.6033 8.54829 80.1347 8.43555 79.6218 8.33829C79.1344 8.24649 78.6574 8.10578 78.1982 7.91829C77.7809 7.75153 77.4073 7.4914 77.1062 7.15785C76.7933 6.77459 76.6355 6.2879 76.6641 5.79395C76.6527 5.38309 76.7585 4.97748 76.9691 4.62456C77.1681 4.30333 77.4371 4.03127 77.7561 3.82876C78.0902 3.61956 78.456 3.46579 78.8393 3.37338C79.2313 3.27661 79.6335 3.22689 80.0374 3.22527C80.5128 3.2221 80.9875 3.26579 81.4544 3.3557C81.8606 3.43406 82.2484 3.58857 82.5972 3.81108C82.9324 4.02969 83.2064 4.33022 83.393 4.68424C83.607 5.11133 83.7261 5.57959 83.7423 6.057H82.2568C82.2459 5.80046 82.1698 5.55093 82.0357 5.33193C81.9106 5.14181 81.7435 4.98299 81.5472 4.86772C81.341 4.74898 81.1171 4.66391 80.884 4.61572C80.646 4.56261 80.4028 4.53592 80.159 4.53614C79.9369 4.53693 79.7152 4.55466 79.4958 4.58919C79.2809 4.61989 79.0717 4.6817 78.8746 4.77266C78.7024 4.85362 78.5511 4.97313 78.4325 5.12193C78.3105 5.28548 78.2488 5.4862 78.2579 5.69005C78.2548 5.80927 78.2773 5.92776 78.3238 6.03757C78.3703 6.14738 78.4398 6.24596 78.5276 6.32668C78.729 6.50889 78.963 6.6514 79.2173 6.74669C79.5241 6.86477 79.8397 6.95863 80.1612 7.02743C80.5127 7.10259 80.8619 7.18217 81.2112 7.26175C81.58 7.34274 81.9445 7.44234 82.3032 7.56018C82.6391 7.66632 82.9572 7.82204 83.2471 8.02218C83.5186 8.2124 83.745 8.45992 83.9103 8.74724C84.09 9.08 84.1778 9.45467 84.1645 9.83263C84.1829 10.3097 84.0648 10.7821 83.8241 11.1943C83.604 11.5553 83.3008 11.8585 82.9398 12.0786C82.5568 12.3058 82.136 12.4623 81.6975 12.5406C81.2458 12.6274 80.7869 12.6711 80.327 12.671C79.8443 12.6738 79.3629 12.6211 78.8923 12.514C78.4619 12.4197 78.0532 12.2449 77.6876 11.999C77.335 11.7573 77.0466 11.4333 76.8476 11.0551C76.6264 10.6125 76.5071 10.1261 76.4983 9.63147H77.9838C77.9842 9.9223 78.0604 10.208 78.2048 10.4604" fill="white"/>
<path d="M86.8946 3.44408V4.66652H86.93C87.166 4.17209 87.5772 3.78293 88.0839 3.5745C88.6304 3.34273 89.219 3.22681 89.8125 3.23407C90.4428 3.21889 91.0679 3.35058 91.6385 3.61871C92.1424 3.86296 92.5845 4.21817 92.9316 4.65767C93.283 5.10875 93.5469 5.62157 93.7098 6.16969C93.8873 6.75894 93.9759 7.37137 93.9728 7.98677C93.9759 8.60154 93.8903 9.21354 93.7186 9.80384C93.5644 10.3489 93.3029 10.8577 92.9493 11.3004C92.6011 11.7299 92.1586 12.0733 91.6562 12.304C91.0883 12.5595 90.4705 12.6849 89.8479 12.6709C89.5989 12.6688 89.3504 12.6459 89.1052 12.6024C88.8281 12.5556 88.5564 12.4816 88.2939 12.3814C88.0211 12.2742 87.7645 12.1299 87.5312 11.9525C87.2901 11.7721 87.086 11.5469 86.93 11.2893H86.8946V15.9315H85.4091V3.44408H86.8946ZM92.2331 6.65159C92.1303 6.26528 91.9589 5.90062 91.7269 5.57505C91.4954 5.25899 91.1924 5.0022 90.8427 4.82568C90.4558 4.63059 90.0268 4.53415 89.5937 4.54493C89.1765 4.52828 88.7619 4.61818 88.3891 4.80615C88.0163 4.99411 87.6974 5.27395 87.4627 5.61926C87.2366 5.95071 87.0733 6.32085 86.9808 6.71128C86.883 7.11817 86.8333 7.53513 86.8327 7.95361C86.8319 8.38655 86.8846 8.81793 86.9897 9.23794C87.0855 9.63029 87.2551 10.0009 87.4892 10.33C87.7205 10.649 88.0234 10.9095 88.3735 11.0904C88.78 11.2928 89.2304 11.3915 89.6843 11.3778C90.131 11.393 90.5738 11.2909 90.9687 11.0815C91.3048 10.8905 91.5894 10.6204 91.7976 10.2946C92.0151 9.95197 92.1693 9.57312 92.253 9.17605C92.3464 8.75135 92.3931 8.31772 92.3923 7.88287C92.3927 7.46685 92.3369 7.05268 92.2265 6.65159" fill="white"/>
<path d="M95.3434 3.05176e-05H96.8267V1.8171H95.3434V3.05176e-05ZM96.8267 12.4786H95.3434V3.44408H96.8267V12.4786Z" fill="white"/>
<path d="M102.525 3.44412V4.75498H100.724V10.3654C100.716 10.5062 100.728 10.6474 100.757 10.7854C100.781 10.8844 100.84 10.9715 100.923 11.0307C101.024 11.0974 101.142 11.1363 101.263 11.1435C101.453 11.1633 101.643 11.1722 101.833 11.17H102.525V12.4809H101.389C101.058 12.486 100.727 12.4601 100.401 12.4035C100.159 12.3654 99.9305 12.2657 99.7379 12.1139C99.5564 11.9574 99.4255 11.7504 99.3621 11.5193C99.2701 11.19 99.2284 10.8486 99.2383 10.5068V4.7594H97.6909V3.44854H99.2383V0.733978H100.724V3.44412H102.525Z" fill="white"/>
<path d="M110.687 12.671C110.351 12.6883 110.021 12.5723 109.77 12.3482C109.543 12.1316 109.429 11.7794 109.429 11.2916C109.05 11.7578 108.56 12.1211 108.003 12.3482C107.444 12.5662 106.848 12.6758 106.248 12.671C105.86 12.674 105.472 12.6303 105.094 12.5405C104.75 12.4592 104.426 12.3088 104.141 12.0984C103.866 11.8923 103.644 11.6223 103.496 11.3115C103.329 10.9473 103.248 10.5493 103.259 10.1487C103.242 9.7137 103.332 9.2811 103.52 8.88869C103.686 8.57411 103.923 8.30242 104.212 8.0951C104.509 7.88594 104.84 7.72895 105.189 7.63089C105.556 7.52699 105.932 7.43856 106.317 7.37004C106.701 7.30151 107.112 7.22635 107.479 7.18656C107.807 7.15229 108.131 7.09392 108.45 7.01193C108.693 6.95259 108.92 6.83926 109.113 6.68035C109.198 6.59808 109.264 6.49831 109.306 6.38798C109.349 6.27765 109.366 6.15942 109.358 6.0415C109.371 5.7673 109.307 5.49499 109.175 5.25454C109.061 5.06375 108.897 4.90721 108.702 4.80137C108.499 4.69416 108.279 4.62451 108.052 4.59579C107.818 4.56079 107.581 4.54306 107.345 4.54274C106.798 4.52318 106.255 4.64661 105.771 4.90085C105.351 5.13959 105.125 5.59054 105.09 6.25592H103.609C103.614 5.76368 103.734 5.27942 103.958 4.84116C104.159 4.46587 104.447 4.1444 104.798 3.90389C105.164 3.65867 105.573 3.48399 106.003 3.38883C106.473 3.28294 106.953 3.23029 107.435 3.23188C107.842 3.23175 108.248 3.26057 108.651 3.31809C109.033 3.37145 109.403 3.49273 109.743 3.6762C110.068 3.85688 110.339 4.11992 110.53 4.43885C110.744 4.82892 110.846 5.27008 110.826 5.71433V10.3565C110.818 10.6144 110.838 10.8725 110.888 11.1258C110.928 11.2871 111.065 11.3689 111.297 11.3689C111.452 11.3643 111.606 11.3352 111.752 11.2827V12.4344C111.423 12.6008 111.055 12.6771 110.687 12.6555M108.607 8.10394C108.304 8.16805 107.986 8.21889 107.654 8.26089C107.322 8.30289 106.991 8.34931 106.648 8.40016C106.336 8.44557 106.03 8.53101 105.74 8.65437C105.48 8.76065 105.251 8.93191 105.077 9.15174C104.894 9.4091 104.804 9.72092 104.822 10.036C104.816 10.2525 104.867 10.4668 104.97 10.6571C105.066 10.8217 105.197 10.9623 105.355 11.0683C105.526 11.1756 105.716 11.2505 105.914 11.2894C106.132 11.3358 106.355 11.3588 106.578 11.3579C107.006 11.3683 107.432 11.3002 107.835 11.1567C108.151 11.0436 108.442 10.8719 108.693 10.6505C108.899 10.4651 109.066 10.2394 109.182 9.98734C109.279 9.77566 109.333 9.54621 109.339 9.31312V7.79225C109.119 7.94751 108.869 8.05243 108.605 8.09952" fill="white"/>
<path d="M114.303 3.05176e-05H112.818V12.4786H114.303V3.05176e-05Z" fill="white"/>
<path d="M117.336 10.4604C117.471 10.6864 117.661 10.8744 117.889 11.0064C118.128 11.1451 118.388 11.2429 118.658 11.296C118.949 11.3541 119.246 11.383 119.543 11.3822C119.788 11.3813 120.033 11.3636 120.276 11.3292C120.52 11.2992 120.758 11.2352 120.984 11.1391C121.194 11.0508 121.378 10.909 121.517 10.7279C121.666 10.5293 121.743 10.2864 121.738 10.0382C121.748 9.86503 121.712 9.69226 121.634 9.53712C121.557 9.38198 121.44 9.24988 121.295 9.15397C120.96 8.93611 120.591 8.77412 120.203 8.67428C119.761 8.5527 119.293 8.43997 118.78 8.3427C118.292 8.25121 117.815 8.11048 117.356 7.92269C116.939 7.75649 116.565 7.49628 116.264 7.16226C115.951 6.779 115.794 6.2923 115.822 5.79835C115.811 5.3875 115.917 4.98188 116.127 4.62896C116.326 4.30725 116.595 4.03507 116.914 3.83316C117.248 3.62359 117.614 3.46978 117.997 3.37779C118.389 3.28101 118.792 3.2313 119.195 3.22969C119.67 3.2265 120.144 3.27018 120.61 3.36011C121.017 3.43805 121.406 3.59258 121.755 3.81548C122.09 4.03476 122.364 4.33514 122.551 4.68865C122.764 5.11608 122.883 5.58414 122.9 6.06141H121.415C121.406 5.81867 121.336 5.58211 121.211 5.37403C121.085 5.16596 120.909 4.99323 120.699 4.87213C120.492 4.75339 120.269 4.66831 120.035 4.62012C119.797 4.5671 119.554 4.54041 119.31 4.54054C119.088 4.54126 118.867 4.55899 118.647 4.59359C118.432 4.6243 118.223 4.68611 118.026 4.77707C117.85 4.85601 117.694 4.97571 117.573 5.12634C117.45 5.2896 117.388 5.49034 117.396 5.69445C117.393 5.81388 117.416 5.93257 117.463 6.04243C117.51 6.15229 117.58 6.25075 117.668 6.33109C117.869 6.5133 118.103 6.6558 118.358 6.7511C118.664 6.86917 118.98 6.96304 119.302 7.03184C119.651 7.107 120 7.18658 120.352 7.26616C120.72 7.34714 121.085 7.44675 121.444 7.56458C121.779 7.67033 122.096 7.82609 122.385 8.02659C122.657 8.21696 122.883 8.46445 123.048 8.75165C123.228 9.0844 123.316 9.45907 123.303 9.83703C123.32 10.3143 123.202 10.7867 122.96 11.1987C122.74 11.5601 122.437 11.8634 122.076 12.083C121.694 12.3101 121.273 12.4666 120.836 12.545C120.383 12.6319 119.924 12.6756 119.463 12.6754C118.981 12.6781 118.5 12.6254 118.031 12.5184C117.599 12.4241 117.19 12.2494 116.824 12.0034C116.472 11.7616 116.184 11.4376 115.986 11.0595C115.763 10.6174 115.644 10.1307 115.636 9.63587H117.115C117.115 9.92685 117.191 10.2129 117.336 10.4648" fill="white"/>
<path d="M85.4268 18.7942H86.0457V22.9169H88.5038V23.4386H85.4268V18.7942Z" fill="white"/>
<path d="M89.6842 18.7942H89.0675V23.4386H89.6842V18.7942Z" fill="white"/>
<path d="M90.7256 18.7942H93.7739V19.3137H91.3401V20.7903H93.4755V21.312H91.3401V23.4386H90.7256V18.7942Z" fill="white"/>
<path d="M94.457 18.7942H97.6601V19.3137H95.0738V20.7903H97.4855V21.312H95.0738V22.9169H97.68V23.4386H94.457V18.7942Z" fill="white"/>
<path d="M98.4582 18.7942H99.181V19.517C99.181 20.0299 98.96 20.4742 98.467 20.4742V20.1492C98.7588 20.1492 98.8428 19.8177 98.8428 19.517H98.4582V18.7942Z" fill="white"/>
<path d="M102.919 20.1559C102.846 19.4927 102.404 19.2054 101.767 19.2054C101.248 19.2054 100.726 19.3955 100.726 19.999C100.726 20.6024 101.469 20.6621 102.218 20.8257C102.968 20.9893 103.699 21.2546 103.699 22.1653C103.699 23.1534 102.731 23.5491 101.884 23.5491C100.845 23.5491 99.9657 23.0407 99.9657 21.9089H100.552C100.552 22.6892 101.204 23.0296 101.904 23.0296C102.464 23.0296 103.083 22.855 103.083 22.1852C103.083 21.5154 102.34 21.4358 101.599 21.2722C100.859 21.1087 100.109 20.8964 100.109 20.0432C100.109 19.1015 100.949 18.6859 101.794 18.6859C102.744 18.6859 103.465 19.128 103.503 20.1559H102.919Z" fill="white"/>
<path d="M108.216 18.6859C109.692 18.6859 110.439 19.8553 110.439 21.1175C110.439 22.3797 109.692 23.5491 108.216 23.5491C106.739 23.5491 105.992 22.3775 105.992 21.1175C105.992 19.8575 106.739 18.6859 108.216 18.6859ZM108.216 23.0296C109.35 23.0296 109.823 22.0526 109.823 21.1175C109.823 20.1824 109.35 19.2054 108.216 19.2054C107.082 19.2054 106.611 20.1824 106.611 21.1175C106.611 22.0526 107.084 23.0296 108.216 23.0296Z" fill="white"/>
<path d="M111.187 18.7942H111.843L114.288 22.5588H114.304V18.7942H114.887V23.4386H114.211L111.786 19.7116H111.772V23.4386H111.187V18.7942Z" fill="white"/>
<path d="M122.927 18.2327H117.159V24H122.927V18.2327Z" fill="white"/>
<path d="M119.618 19.044C119.567 19.04 119.516 19.0466 119.468 19.0633C119.42 19.0801 119.376 19.1065 119.338 19.1411C119.301 19.1756 119.271 19.2176 119.251 19.2642C119.231 19.3108 119.22 19.3611 119.22 19.412C119.22 19.4629 119.231 19.5132 119.251 19.5599C119.271 19.6065 119.301 19.6484 119.338 19.683C119.376 19.7175 119.42 19.744 119.468 19.7607C119.516 19.7774 119.567 19.784 119.618 19.7801C119.71 19.7729 119.797 19.731 119.86 19.6628C119.923 19.5945 119.958 19.505 119.958 19.412C119.958 19.3191 119.923 19.2295 119.86 19.1613C119.797 19.0931 119.71 19.0512 119.618 19.044Z" fill="white"/>
<path d="M120.482 19.044C120.409 19.0436 120.337 19.0648 120.276 19.1051C120.215 19.1454 120.167 19.2029 120.139 19.2704C120.111 19.3378 120.103 19.4121 120.117 19.4838C120.131 19.5556 120.166 19.6216 120.218 19.6734C120.269 19.7253 120.335 19.7606 120.407 19.7751C120.478 19.7895 120.553 19.7823 120.62 19.7544C120.688 19.7266 120.746 19.6792 120.786 19.6185C120.827 19.5577 120.849 19.4863 120.849 19.4132C120.848 19.3158 120.809 19.2226 120.741 19.1535C120.672 19.0845 120.579 19.0452 120.482 19.044Z" fill="white"/>
<path d="M119.618 19.8972C119.567 19.8933 119.516 19.8999 119.468 19.9166C119.42 19.9333 119.376 19.9597 119.338 19.9943C119.301 20.0289 119.271 20.0708 119.251 20.1174C119.231 20.164 119.22 20.2144 119.22 20.2653C119.22 20.3161 119.231 20.3665 119.251 20.4131C119.271 20.4597 119.301 20.5016 119.338 20.5362C119.376 20.5708 119.42 20.5972 119.468 20.6139C119.516 20.6306 119.567 20.6372 119.618 20.6333C119.71 20.6261 119.797 20.5842 119.86 20.516C119.923 20.4478 119.958 20.3582 119.958 20.2653C119.958 20.1723 119.923 20.0827 119.86 20.0145C119.797 19.9463 119.71 19.9044 119.618 19.8972Z" fill="white"/>
<path d="M120.482 19.8972C120.408 19.8968 120.337 19.9181 120.276 19.9585C120.215 19.9989 120.167 20.0565 120.139 20.1241C120.111 20.1916 120.103 20.266 120.117 20.3379C120.131 20.4097 120.167 20.4757 120.218 20.5274C120.27 20.5792 120.336 20.6144 120.408 20.6286C120.48 20.6427 120.554 20.6352 120.622 20.607C120.689 20.5788 120.747 20.5311 120.787 20.4701C120.828 20.4091 120.849 20.3374 120.849 20.2642C120.848 20.167 120.809 20.074 120.74 20.0053C120.672 19.9367 120.579 19.8978 120.482 19.8972Z" fill="white"/>
<path d="M119.618 20.7483C119.567 20.7444 119.516 20.751 119.468 20.7677C119.42 20.7844 119.376 20.8109 119.338 20.8454C119.301 20.88 119.271 20.9219 119.251 20.9685C119.231 21.0152 119.22 21.0655 119.22 21.1164C119.22 21.1673 119.231 21.2176 119.251 21.2642C119.271 21.3109 119.301 21.3528 119.338 21.3873C119.376 21.4219 119.42 21.4484 119.468 21.4651C119.516 21.4818 119.567 21.4884 119.618 21.4844C119.666 21.4847 119.714 21.4754 119.758 21.4571C119.803 21.4387 119.843 21.4117 119.877 21.3775C119.911 21.3433 119.938 21.3027 119.956 21.2581C119.974 21.2135 119.983 21.1657 119.982 21.1175C119.983 21.0693 119.974 21.0215 119.955 20.9769C119.937 20.9323 119.91 20.8916 119.877 20.8574C119.843 20.8231 119.802 20.7958 119.758 20.7771C119.714 20.7584 119.666 20.7486 119.618 20.7483Z" fill="white"/>
<path d="M118.764 20.7483C118.691 20.7478 118.62 20.7691 118.559 20.8094C118.498 20.8497 118.45 20.9072 118.422 20.9746C118.393 21.042 118.386 21.1163 118.4 21.1881C118.414 21.2599 118.449 21.3258 118.5 21.3777C118.552 21.4295 118.618 21.4649 118.689 21.4793C118.761 21.4938 118.835 21.4866 118.903 21.4587C118.97 21.4308 119.028 21.3835 119.069 21.3228C119.11 21.262 119.131 21.1905 119.131 21.1174C119.131 21.0199 119.093 20.9264 119.024 20.8572C118.955 20.788 118.862 20.7489 118.764 20.7483Z" fill="white"/>
<path d="M117.911 20.7484C117.838 20.7488 117.767 20.7708 117.706 20.8116C117.646 20.8525 117.599 20.9103 117.571 20.9778C117.544 21.0453 117.537 21.1194 117.551 21.1909C117.566 21.2623 117.601 21.3279 117.653 21.3793C117.705 21.4307 117.77 21.4657 117.842 21.4797C117.913 21.4938 117.988 21.4864 118.055 21.4584C118.122 21.4304 118.18 21.383 118.22 21.3224C118.261 21.2617 118.282 21.1904 118.282 21.1175C118.281 21.0196 118.242 20.926 118.172 20.857C118.103 20.7879 118.009 20.7489 117.911 20.7484Z" fill="white"/>
<path d="M122.173 20.7483C122.1 20.7478 122.028 20.7691 121.967 20.8094C121.906 20.8497 121.859 20.9072 121.83 20.9746C121.802 21.042 121.794 21.1163 121.808 21.1881C121.822 21.2599 121.857 21.3258 121.909 21.3777C121.961 21.4295 122.026 21.4649 122.098 21.4793C122.17 21.4938 122.244 21.4866 122.312 21.4587C122.379 21.4308 122.437 21.3835 122.478 21.3228C122.518 21.262 122.54 21.1905 122.54 21.1174C122.54 21.0199 122.501 20.9264 122.433 20.8572C122.364 20.788 122.271 20.7489 122.173 20.7483Z" fill="white"/>
<path d="M121.315 20.7483C121.242 20.7478 121.171 20.7691 121.11 20.8094C121.049 20.8497 121.001 20.9072 120.973 20.9746C120.944 21.042 120.937 21.1163 120.951 21.1881C120.965 21.2599 121 21.3258 121.051 21.3777C121.103 21.4295 121.169 21.4649 121.24 21.4793C121.312 21.4938 121.386 21.4866 121.454 21.4587C121.522 21.4308 121.579 21.3835 121.62 21.3228C121.661 21.262 121.682 21.1905 121.682 21.1174C121.682 21.0201 121.643 20.9269 121.574 20.8578C121.506 20.7888 121.413 20.7494 121.315 20.7483Z" fill="white"/>
<path d="M120.482 20.7483C120.409 20.7478 120.337 20.7691 120.276 20.8094C120.215 20.8497 120.167 20.9072 120.139 20.9746C120.111 21.042 120.103 21.1163 120.117 21.1881C120.131 21.2599 120.166 21.3258 120.218 21.3777C120.269 21.4295 120.335 21.4649 120.407 21.4793C120.478 21.4938 120.553 21.4866 120.62 21.4587C120.688 21.4308 120.746 21.3835 120.786 21.3228C120.827 21.262 120.849 21.1905 120.849 21.1174C120.848 21.0201 120.809 20.9269 120.741 20.8578C120.672 20.7888 120.579 20.7494 120.482 20.7483Z" fill="white"/>
<path d="M119.618 21.6016C119.544 21.6007 119.472 21.6217 119.411 21.6618C119.35 21.7019 119.302 21.7594 119.273 21.8269C119.245 21.8944 119.237 21.9689 119.251 22.0409C119.265 22.1128 119.3 22.179 119.351 22.231C119.403 22.283 119.469 22.3184 119.541 22.3328C119.613 22.3471 119.687 22.3397 119.755 22.3116C119.823 22.2835 119.88 22.2358 119.921 22.1747C119.961 22.1136 119.983 22.0419 119.982 21.9686C119.982 21.8718 119.943 21.7791 119.875 21.7105C119.807 21.6419 119.714 21.6028 119.618 21.6016Z" fill="white"/>
<path d="M120.482 21.6016C120.408 21.6011 120.337 21.6225 120.276 21.6629C120.215 21.7033 120.167 21.7609 120.139 21.8285C120.111 21.896 120.103 21.9704 120.117 22.0422C120.131 22.114 120.167 22.18 120.218 22.2318C120.27 22.2835 120.336 22.3187 120.408 22.3329C120.48 22.3471 120.554 22.3396 120.622 22.3114C120.689 22.2832 120.747 22.2355 120.787 22.1745C120.828 22.1134 120.849 22.0417 120.849 21.9685C120.848 21.8714 120.809 21.7784 120.74 21.7097C120.672 21.641 120.579 21.6022 120.482 21.6016Z" fill="white"/>
<path d="M119.618 22.4549C119.567 22.4509 119.516 22.4575 119.468 22.4742C119.42 22.491 119.376 22.5174 119.338 22.552C119.301 22.5865 119.271 22.6285 119.251 22.6751C119.231 22.7217 119.22 22.772 119.22 22.8229C119.22 22.8738 119.231 22.9241 119.251 22.9708C119.271 23.0174 119.301 23.0593 119.338 23.0939C119.376 23.1284 119.42 23.1549 119.468 23.1716C119.516 23.1883 119.567 23.1949 119.618 23.191C119.71 23.1838 119.797 23.1419 119.86 23.0737C119.923 23.0054 119.958 22.9159 119.958 22.8229C119.958 22.73 119.923 22.6404 119.86 22.5722C119.797 22.504 119.71 22.4621 119.618 22.4549Z" fill="white"/>
<path d="M120.482 22.4549C120.408 22.4544 120.337 22.4758 120.276 22.5162C120.215 22.5566 120.167 22.6142 120.139 22.6818C120.111 22.7493 120.103 22.8237 120.117 22.8955C120.131 22.9673 120.167 23.0333 120.218 23.0851C120.27 23.1368 120.336 23.172 120.408 23.1862C120.48 23.2004 120.554 23.1929 120.622 23.1647C120.689 23.1365 120.747 23.0888 120.787 23.0278C120.828 22.9667 120.849 22.895 120.849 22.8218C120.848 22.7247 120.809 22.6317 120.74 22.563C120.672 22.4943 120.579 22.4555 120.482 22.4549Z" fill="white"/>
</g>
<defs>
<clipPath id="clip0_550_134">
<rect width="123.298" height="24" fill="white"/>
</clipPath>
</defs>
</svg>
