<svg width="19" height="17" viewBox="0 0 19 17" fill="none" xmlns="http://www.w3.org/2000/svg">
<mask id="path-1-outside-1_156_1236" maskUnits="userSpaceOnUse" x="-1" y="-1" width="21" height="19" fill="black">
<rect fill="white" x="-1" y="-1" width="21" height="19"/>
<path d="M18.26 0.709998L17.81 3.83C16.89 3.75 16.16 3.91 15.62 4.31C15.08 4.69 14.71 5.24 14.51 5.96C14.33 6.66 14.3 7.46 14.42 8.36H18.26V16.07H10.85V8.06C10.85 5.44 11.47 3.46 12.71 2.12C13.95 0.759998 15.8 0.289997 18.26 0.709998ZM8.21 0.709998L7.76 3.83C6.84 3.75 6.11 3.91 5.57 4.31C5.03 4.69 4.66 5.24 4.46 5.96C4.28 6.66 4.25 7.46 4.37 8.36H8.21V16.07H0.8V8.06C0.8 5.44 1.42 3.46 2.66 2.12C3.9 0.759998 5.75 0.289997 8.21 0.709998Z"/>
</mask>
<path d="M18.26 0.709998L19.2498 0.852751L19.3889 -0.111739L18.4283 -0.275739L18.26 0.709998ZM17.81 3.83L17.7234 4.82624L18.6649 4.9081L18.7998 3.97275L17.81 3.83ZM15.62 4.31L16.1955 5.1278L16.2054 5.1208L16.2152 5.11356L15.62 4.31ZM14.51 5.96L13.5465 5.69236L13.5439 5.70163L13.5415 5.71096L14.51 5.96ZM14.42 8.36L13.4288 8.49216L13.5445 9.36H14.42V8.36ZM18.26 8.36H19.26V7.36H18.26V8.36ZM18.26 16.07V17.07H19.26V16.07H18.26ZM10.85 16.07H9.85V17.07H10.85V16.07ZM12.71 2.12L13.444 2.79921L13.449 2.79375L12.71 2.12ZM8.21 0.709998L9.19976 0.852751L9.33887 -0.111739L8.3783 -0.275739L8.21 0.709998ZM7.76 3.83L7.67337 4.82624L8.61485 4.9081L8.74976 3.97275L7.76 3.83ZM5.57 4.31L6.1455 5.1278L6.15545 5.1208L6.16523 5.11356L5.57 4.31ZM4.46 5.96L3.49648 5.69236L3.49391 5.70163L3.49151 5.71096L4.46 5.96ZM4.37 8.36L3.37877 8.49216L3.49448 9.36H4.37V8.36ZM8.21 8.36H9.21V7.36H8.21V8.36ZM8.21 16.07V17.07H9.21V16.07H8.21ZM0.8 16.07H-0.2V17.07H0.8V16.07ZM2.66 2.12L3.39398 2.79921L3.39896 2.79375L2.66 2.12ZM17.2702 0.567244L16.8202 3.68724L18.7998 3.97275L19.2498 0.852751L17.2702 0.567244ZM17.8966 2.83376C16.8248 2.74055 15.8238 2.91454 15.0248 3.50644L16.2152 5.11356C16.4962 4.90545 16.9552 4.75944 17.7234 4.82624L17.8966 2.83376ZM15.0445 3.49219C14.2907 4.02266 13.7997 4.78069 13.5465 5.69236L15.4735 6.22764C15.6203 5.69931 15.8693 5.35734 16.1955 5.1278L15.0445 3.49219ZM13.5415 5.71096C13.3225 6.56279 13.296 7.49624 13.4288 8.49216L15.4112 8.22783C15.304 7.42376 15.3375 6.75721 15.4785 6.20904L13.5415 5.71096ZM14.42 9.36H18.26V7.36H14.42V9.36ZM17.26 8.36V16.07H19.26V8.36H17.26ZM18.26 15.07H10.85V17.07H18.26V15.07ZM11.85 16.07V8.06H9.85V16.07H11.85ZM11.85 8.06C11.85 5.58293 12.4368 3.88754 13.444 2.79919L11.976 1.44081C10.5032 3.03246 9.85 5.29707 9.85 8.06H11.85ZM13.449 2.79375C14.3815 1.77097 15.8349 1.31043 18.0917 1.69573L18.4283 -0.275739C15.7651 -0.730432 13.5185 -0.250972 11.971 1.44625L13.449 2.79375ZM7.22024 0.567244L6.77024 3.68724L8.74976 3.97275L9.19976 0.852751L7.22024 0.567244ZM7.84663 2.83376C6.77477 2.74055 5.77384 2.91454 4.97477 3.50644L6.16523 5.11356C6.44617 4.90545 6.90523 4.75944 7.67337 4.82624L7.84663 2.83376ZM4.9945 3.49219C4.24069 4.02266 3.74972 4.78069 3.49648 5.69236L5.42352 6.22764C5.57028 5.69931 5.81931 5.35734 6.1455 5.1278L4.9945 3.49219ZM3.49151 5.71096C3.27246 6.56279 3.24598 7.49624 3.37877 8.49216L5.36123 8.22783C5.25402 7.42376 5.28754 6.75721 5.42849 6.20904L3.49151 5.71096ZM4.37 9.36H8.21V7.36H4.37V9.36ZM7.21 8.36V16.07H9.21V8.36H7.21ZM8.21 15.07H0.8V17.07H8.21V15.07ZM1.8 16.07V8.06H-0.2V16.07H1.8ZM1.8 8.06C1.8 5.58293 2.38684 3.88754 3.39396 2.79919L1.92604 1.44081C0.453166 3.03246 -0.2 5.29707 -0.2 8.06H1.8ZM3.39896 2.79375C4.3315 1.77097 5.7849 1.31043 8.0417 1.69573L8.3783 -0.275739C5.7151 -0.730432 3.46851 -0.250972 1.92104 1.44625L3.39896 2.79375Z" fill="white" mask="url(#path-1-outside-1_156_1236)"/>
</svg>
