<svg width="120" height="120" viewBox="0 0 120 120" fill="none" xmlns="http://www.w3.org/2000/svg">
<circle opacity="0.9" cx="60" cy="60" r="60" fill="#454545"/>
<path d="M31.0114 82V70.3636H33.4716V75.1648H38.4659V70.3636H40.9205V82H38.4659V77.1932H33.4716V82H31.0114ZM42.9034 82V73.2727H45.3239V82H42.9034ZM44.1193 72.1477C43.7595 72.1477 43.4508 72.0284 43.1932 71.7898C42.9394 71.5473 42.8125 71.2576 42.8125 70.9205C42.8125 70.5871 42.9394 70.3011 43.1932 70.0625C43.4508 69.8201 43.7595 69.6989 44.1193 69.6989C44.4792 69.6989 44.786 69.8201 45.0398 70.0625C45.2973 70.3011 45.4261 70.5871 45.4261 70.9205C45.4261 71.2576 45.2973 71.5473 45.0398 71.7898C44.786 72.0284 44.4792 72.1477 44.1193 72.1477ZM47.2628 82V73.2727H49.6094V74.7955H49.7003C49.8594 74.2538 50.1264 73.8447 50.5014 73.5682C50.8764 73.2879 51.3082 73.1477 51.7969 73.1477C51.9181 73.1477 52.0488 73.1553 52.1889 73.1705C52.3291 73.1856 52.4522 73.2064 52.5582 73.233V75.3807C52.4446 75.3466 52.2874 75.3163 52.0866 75.2898C51.8859 75.2633 51.7022 75.25 51.5355 75.25C51.1795 75.25 50.8613 75.3277 50.581 75.483C50.3045 75.6345 50.0848 75.8466 49.9219 76.1193C49.7628 76.392 49.6832 76.7064 49.6832 77.0625V82H47.2628ZM57.3807 82.1705C56.483 82.1705 55.7102 81.9886 55.0625 81.625C54.4186 81.2576 53.9223 80.7386 53.5739 80.0682C53.2254 79.3939 53.0511 78.5966 53.0511 77.6761C53.0511 76.7784 53.2254 75.9905 53.5739 75.3125C53.9223 74.6345 54.4129 74.1061 55.0455 73.7273C55.6818 73.3485 56.428 73.1591 57.2841 73.1591C57.8598 73.1591 58.3958 73.2519 58.892 73.4375C59.392 73.6193 59.8277 73.8939 60.1989 74.2614C60.5739 74.6288 60.8655 75.0909 61.0739 75.6477C61.2822 76.2008 61.3864 76.8485 61.3864 77.5909V78.2557H54.017V76.7557H59.108C59.108 76.4072 59.0322 76.0985 58.8807 75.8295C58.7292 75.5606 58.5189 75.3504 58.25 75.1989C57.9848 75.0436 57.6761 74.9659 57.3239 74.9659C56.9564 74.9659 56.6307 75.0511 56.3466 75.2216C56.0663 75.3883 55.8466 75.6136 55.6875 75.8977C55.5284 76.178 55.447 76.4905 55.4432 76.8352V78.2614C55.4432 78.6932 55.5227 79.0663 55.6818 79.3807C55.8447 79.6951 56.0739 79.9375 56.3693 80.108C56.6648 80.2784 57.0152 80.3636 57.4205 80.3636C57.6894 80.3636 57.9356 80.3258 58.1591 80.25C58.3826 80.1742 58.5739 80.0606 58.733 79.9091C58.892 79.7576 59.0133 79.572 59.0966 79.3523L61.3352 79.5C61.2216 80.0379 60.9886 80.5076 60.6364 80.9091C60.2879 81.3068 59.8371 81.6174 59.2841 81.8409C58.7348 82.0606 58.1004 82.1705 57.3807 82.1705ZM66.7145 70.3636H69.7486L72.9531 78.1818H73.0895L76.294 70.3636H79.3281V82H76.9418V74.4261H76.8452L73.8338 81.9432H72.2088L69.1974 74.3977H69.1009V82H66.7145V70.3636ZM85.2869 82.1705C84.3892 82.1705 83.6165 81.9886 82.9688 81.625C82.3248 81.2576 81.8286 80.7386 81.4801 80.0682C81.1316 79.3939 80.9574 78.5966 80.9574 77.6761C80.9574 76.7784 81.1316 75.9905 81.4801 75.3125C81.8286 74.6345 82.3191 74.1061 82.9517 73.7273C83.5881 73.3485 84.3343 73.1591 85.1903 73.1591C85.7661 73.1591 86.3021 73.2519 86.7983 73.4375C87.2983 73.6193 87.7339 73.8939 88.1051 74.2614C88.4801 74.6288 88.7718 75.0909 88.9801 75.6477C89.1884 76.2008 89.2926 76.8485 89.2926 77.5909V78.2557H81.9233V76.7557H87.0142C87.0142 76.4072 86.9384 76.0985 86.7869 75.8295C86.6354 75.5606 86.4252 75.3504 86.1562 75.1989C85.8911 75.0436 85.5824 74.9659 85.2301 74.9659C84.8627 74.9659 84.5369 75.0511 84.2528 75.2216C83.9725 75.3883 83.7528 75.6136 83.5938 75.8977C83.4347 76.178 83.3532 76.4905 83.3494 76.8352V78.2614C83.3494 78.6932 83.429 79.0663 83.5881 79.3807C83.7509 79.6951 83.9801 79.9375 84.2756 80.108C84.571 80.2784 84.9214 80.3636 85.3267 80.3636C85.5956 80.3636 85.8419 80.3258 86.0653 80.25C86.2888 80.1742 86.4801 80.0606 86.6392 79.9091C86.7983 79.7576 86.9195 79.572 87.0028 79.3523L89.2415 79.5C89.1278 80.0379 88.8949 80.5076 88.5426 80.9091C88.1941 81.3068 87.7434 81.6174 87.1903 81.8409C86.6411 82.0606 86.0066 82.1705 85.2869 82.1705Z" fill="white"/>
<path d="M53.3439 56L48 50.6561L60.1141 38.523H50.7005V32H72V53.2995H65.496V43.8859L53.3439 56Z" fill="white"/>
</svg>
