<svg width="24" height="24" viewBox="0 0 24 24" fill="none" xmlns="http://www.w3.org/2000/svg">
<g clip-path="url(#clip0_495_80)">
<path d="M18.1046 15.9705L18.5741 16.4408L18.219 16.7966L17.6385 16.2165C17.495 16.3074 17.3586 16.409 17.2305 16.5206L22.0545 21.3442C22.1674 21.2137 22.269 21.0784 22.3586 20.9363L21.7777 20.3561L22.1344 20.0002L22.6046 20.4705C23.1457 19.2195 22.908 17.7124 21.8854 16.6898C20.8627 15.6671 19.3556 15.4298 18.1046 15.9705ZM18.5741 17.1525L18.9304 16.7966L19.6417 17.5087L19.2866 17.865L18.5741 17.1525ZM19.6421 18.2205L19.9987 17.8654L20.7097 18.5767L20.3546 18.9323L19.6421 18.2205ZM21.4226 20.0002L20.7101 19.2885L21.0664 18.9326L21.7777 19.6444L21.4226 20.0002ZM16.5705 17.2845L17.1514 17.8654L16.7951 18.2205L16.3249 17.7502C15.7837 19.0016 16.0211 20.5091 17.0437 21.5314C18.0664 22.5536 19.5735 22.791 20.8249 22.2499L20.355 21.78L20.7101 21.4237L21.291 22.0042C21.4327 21.915 21.5685 21.813 21.699 21.7001L16.8742 16.8761C16.7617 17.0066 16.6605 17.1424 16.5705 17.2845ZM20.3546 21.0682L19.9987 21.4237L19.287 20.7124L19.6421 20.3565L20.3546 21.0682ZM19.287 20.0002L18.9307 20.3561L18.2194 19.6444L18.5745 19.2885L19.287 20.0002ZM18.219 18.9323L17.8624 19.2881L17.1514 18.5767L17.5065 18.2205L18.219 18.9323ZM18.9075 9.50475C18.9075 9.315 18.8321 9.13275 18.6971 8.9985L17.9224 8.223C17.9186 8.19112 17.9122 8.16 17.9119 8.12738C17.9093 7.99495 17.9335 7.86337 17.983 7.74054C18.0326 7.61771 18.1065 7.50617 18.2002 7.41263L23.25 2.36212L23.2091 2.21175C23.1189 1.87101 22.9402 1.56015 22.6912 1.31062C22.4418 1.06191 22.1315 0.883065 21.7912 0.792L21.6401 0.75L16.5889 5.80162C16.3744 6.01612 16.0661 6.102 15.7684 6.069L15.003 5.304C14.9366 5.23748 14.8577 5.1847 14.7708 5.14869C14.684 5.11269 14.5909 5.09415 14.4969 5.09415C14.4029 5.09415 14.3098 5.11269 14.223 5.14869C14.1362 5.1847 14.0573 5.23748 13.9909 5.304L1.06161 18.2332C0.778861 18.516 0.544486 19.0583 1.03274 20.0363C1.29899 20.5688 1.74636 21.1628 2.29274 21.7091C2.65424 22.0702 3.91574 23.25 4.97211 23.25C5.37336 23.25 5.62649 23.0813 5.76824 22.9395L18.6971 10.0106C18.8321 9.87638 18.9075 9.6945 18.9075 9.50475ZM16.9687 6.18112L21.378 1.77187C21.5614 1.85362 21.7346 1.96538 21.8857 2.11613C22.0365 2.26688 22.1475 2.44012 22.2292 2.6235L17.8204 7.03275C17.6303 7.22273 17.4945 7.46004 17.427 7.72013L17.4146 7.71525L16.2855 6.58575L16.2806 6.5745C16.5409 6.50705 16.7785 6.37124 16.9687 6.18112ZM1.69499 18.6124L14.4967 5.81025L16.209 7.52175L5.12624 18.6049C4.87086 18.8603 4.30836 19.1194 3.94724 19.0931C3.42411 19.0541 1.69499 18.6124 1.69499 18.6124ZM5.38949 22.3065C5.38949 22.3065 4.94774 20.5777 4.90911 20.0531C4.88249 19.6931 5.14199 19.1299 5.39699 18.8749C8.16711 16.1033 16.4797 7.79175 16.4797 7.79175L18.1909 9.504L5.38949 22.3065Z" fill="white"/>
</g>
<defs>
<clipPath id="clip0_495_80">
<rect width="24" height="24" fill="white"/>
</clipPath>
</defs>
</svg>
