<svg width="120" height="120" viewBox="0 0 120 120" fill="none" xmlns="http://www.w3.org/2000/svg">
<circle opacity="0.9" cx="60" cy="60" r="60" fill="#454545"/>
<path d="M32.0582 76.2432V84.9705H30.4645L26.6676 79.4776H26.6037V84.9705H24.7585V76.2432H26.3778L30.1449 81.7318H30.2216V76.2432H32.0582ZM36.5316 85.0983C35.8583 85.0983 35.2788 84.9619 34.793 84.6892C34.31 84.4136 33.9379 84.0244 33.6765 83.5216C33.4151 83.0159 33.2844 82.4179 33.2844 81.7276C33.2844 81.0543 33.4151 80.4634 33.6765 79.9548C33.9379 79.4463 34.3058 79.05 34.7802 78.7659C35.2575 78.4818 35.8171 78.3398 36.4592 78.3398C36.891 78.3398 37.293 78.4094 37.6651 78.5486C38.0401 78.6849 38.3668 78.8909 38.6452 79.1665C38.9265 79.442 39.1452 79.7886 39.3015 80.2063C39.4577 80.621 39.5359 81.1068 39.5359 81.6636V82.1622H34.0089V81.0372H37.8271C37.8271 80.7759 37.7702 80.5443 37.6566 80.3426C37.543 80.1409 37.3853 79.9832 37.1836 79.8696C36.9847 79.7531 36.7532 79.6949 36.489 79.6949C36.2134 79.6949 35.9691 79.7588 35.756 79.8867C35.5458 80.0117 35.381 80.1807 35.2617 80.3938C35.1424 80.604 35.0813 80.8384 35.0785 81.0969V82.1665C35.0785 82.4903 35.1381 82.7702 35.2575 83.006C35.3796 83.2418 35.5515 83.4236 35.7731 83.5514C35.9947 83.6793 36.2575 83.7432 36.5614 83.7432C36.7631 83.7432 36.9478 83.7148 37.1154 83.658C37.283 83.6011 37.4265 83.5159 37.5458 83.4023C37.6651 83.2886 37.756 83.1494 37.8185 82.9847L39.4975 83.0955C39.4123 83.4989 39.2376 83.8511 38.9734 84.1523C38.712 84.4506 38.3739 84.6835 37.9592 84.8511C37.5472 85.0159 37.0714 85.0983 36.5316 85.0983ZM42.1204 78.425L43.3221 80.7134L44.5536 78.425H46.4158L44.5195 81.6977L46.467 84.9705H44.6133L43.3221 82.7077L42.0522 84.9705H40.1772L42.1204 81.6977L40.2454 78.425H42.1204ZM50.9755 78.425V79.7886H47.0337V78.425H50.9755ZM47.9286 76.8568H49.744V82.9591C49.744 83.1267 49.7695 83.2574 49.8207 83.3511C49.8718 83.442 49.9428 83.506 50.0337 83.5429C50.1275 83.5798 50.2354 83.5983 50.3576 83.5983C50.4428 83.5983 50.5281 83.5912 50.6133 83.577C50.6985 83.5599 50.7638 83.5472 50.8093 83.5386L51.0948 84.8895C51.0039 84.9179 50.8761 84.9506 50.7113 84.9875C50.5465 85.0273 50.3462 85.0514 50.1104 85.0599C49.6729 85.077 49.2894 85.0188 48.9599 84.8852C48.6332 84.7517 48.3789 84.5443 48.1971 84.2631C48.0153 83.9818 47.9258 83.6267 47.9286 83.1977V76.8568ZM54.9695 84.9705V76.2432H58.4126C59.0746 76.2432 59.6385 76.3696 60.1044 76.6224C60.5703 76.8724 60.9254 77.2205 61.1697 77.6665C61.4169 78.1097 61.5405 78.621 61.5405 79.2006C61.5405 79.7801 61.4155 80.2915 61.1655 80.7347C60.9155 81.1778 60.5533 81.523 60.0788 81.7702C59.6072 82.0173 59.0362 82.1409 58.3658 82.1409H56.1712V80.6622H58.0675C58.4226 80.6622 58.7152 80.6011 58.9453 80.479C59.1783 80.354 59.3516 80.1821 59.4652 79.9634C59.5817 79.7418 59.6399 79.4875 59.6399 79.2006C59.6399 78.9108 59.5817 78.658 59.4652 78.442C59.3516 78.2233 59.1783 78.0543 58.9453 77.9349C58.7124 77.8128 58.4169 77.7517 58.0589 77.7517H56.8146V84.9705H54.9695ZM62.7049 84.9705V78.425H64.4648V79.567H64.533C64.6523 79.1608 64.8526 78.854 65.1339 78.6466C65.4151 78.4364 65.739 78.3313 66.1055 78.3313C66.1964 78.3313 66.2944 78.3369 66.3995 78.3483C66.5046 78.3597 66.5969 78.3753 66.6765 78.3952V80.006C66.5913 79.9804 66.4734 79.9577 66.3228 79.9378C66.1722 79.9179 66.0344 79.908 65.9094 79.908C65.6424 79.908 65.4038 79.9662 65.1935 80.0827C64.9862 80.1963 64.8214 80.3554 64.6992 80.5599C64.5799 80.7645 64.5202 81.0003 64.5202 81.2673V84.9705H62.7049ZM70.2678 85.0983C69.6058 85.0983 69.0334 84.9577 68.5504 84.6764C68.0703 84.3923 67.6996 83.9974 67.4382 83.4918C67.1768 82.9832 67.0462 82.3938 67.0462 81.7233C67.0462 81.0472 67.1768 80.4563 67.4382 79.9506C67.6996 79.442 68.0703 79.0472 68.5504 78.7659C69.0334 78.4818 69.6058 78.3398 70.2678 78.3398C70.9297 78.3398 71.5007 78.4818 71.9808 78.7659C72.4638 79.0472 72.8359 79.442 73.0973 79.9506C73.3587 80.4563 73.4893 81.0472 73.4893 81.7233C73.4893 82.3938 73.3587 82.9832 73.0973 83.4918C72.8359 83.9974 72.4638 84.3923 71.9808 84.6764C71.5007 84.9577 70.9297 85.0983 70.2678 85.0983ZM70.2763 83.692C70.5774 83.692 70.8288 83.6068 71.0305 83.4364C71.2322 83.2631 71.3842 83.0273 71.4865 82.729C71.5916 82.4307 71.6442 82.0912 71.6442 81.7105C71.6442 81.3298 71.5916 80.9903 71.4865 80.692C71.3842 80.3938 71.2322 80.158 71.0305 79.9847C70.8288 79.8114 70.5774 79.7247 70.2763 79.7247C69.9723 79.7247 69.7166 79.8114 69.5092 79.9847C69.3047 80.158 69.1499 80.3938 69.0447 80.692C68.9425 80.9903 68.8913 81.3298 68.8913 81.7105C68.8913 82.0912 68.9425 82.4307 69.0447 82.729C69.1499 83.0273 69.3047 83.2631 69.5092 83.4364C69.7166 83.6068 69.9723 83.692 70.2763 83.692ZM74.6697 78.425H76.4851V85.2943C76.4851 85.8 76.3857 86.2091 76.1868 86.5216C75.9879 86.8341 75.7024 87.0628 75.3303 87.2077C74.9609 87.3526 74.5192 87.425 74.005 87.425C73.9425 87.425 73.8828 87.4236 73.826 87.4207C73.7663 87.4207 73.7038 87.4193 73.6385 87.4165V85.9974C73.6868 86.0003 73.7294 86.0017 73.7663 86.0017C73.8004 86.0045 73.8374 86.006 73.8771 86.006C74.1697 86.006 74.3743 85.9435 74.4908 85.8185C74.6101 85.6963 74.6697 85.5117 74.6697 85.2645V78.425ZM75.5732 77.5813C75.3061 77.5813 75.076 77.4918 74.8828 77.3128C74.6896 77.131 74.593 76.9136 74.593 76.6608C74.593 76.4108 74.6896 76.1963 74.8828 76.0173C75.076 75.8355 75.3061 75.7446 75.5732 75.7446C75.8459 75.7446 76.0774 75.8355 76.2678 76.0173C76.4609 76.1963 76.5575 76.4108 76.5575 76.6608C76.5575 76.9136 76.4609 77.131 76.2678 77.3128C76.0774 77.4918 75.8459 77.5813 75.5732 77.5813ZM80.9222 85.0983C80.2489 85.0983 79.6694 84.9619 79.1836 84.6892C78.7006 84.4136 78.3285 84.0244 78.0671 83.5216C77.8058 83.0159 77.6751 82.4179 77.6751 81.7276C77.6751 81.0543 77.8058 80.4634 78.0671 79.9548C78.3285 79.4463 78.6964 79.05 79.1708 78.7659C79.6481 78.4818 80.2077 78.3398 80.8498 78.3398C81.2816 78.3398 81.6836 78.4094 82.0558 78.5486C82.4308 78.6849 82.7575 78.8909 83.0359 79.1665C83.3171 79.442 83.5359 79.7886 83.6921 80.2063C83.8484 80.621 83.9265 81.1068 83.9265 81.6636V82.1622H78.3995V81.0372H82.2177C82.2177 80.7759 82.1609 80.5443 82.0472 80.3426C81.9336 80.1409 81.7759 79.9832 81.5742 79.8696C81.3754 79.7531 81.1438 79.6949 80.8796 79.6949C80.604 79.6949 80.3597 79.7588 80.1467 79.8867C79.9364 80.0117 79.7717 80.1807 79.6523 80.3938C79.533 80.604 79.4719 80.8384 79.4691 81.0969V82.1665C79.4691 82.4903 79.5288 82.7702 79.6481 83.006C79.7702 83.2418 79.9421 83.4236 80.1637 83.5514C80.3853 83.6793 80.6481 83.7432 80.9521 83.7432C81.1538 83.7432 81.3384 83.7148 81.506 83.658C81.6737 83.6011 81.8171 83.5159 81.9364 83.4023C82.0558 83.2886 82.1467 83.1494 82.2092 82.9847L83.8881 83.0955C83.8029 83.4989 83.6282 83.8511 83.364 84.1523C83.1026 84.4506 82.7646 84.6835 82.3498 84.8511C81.9379 85.0159 81.462 85.0983 80.9222 85.0983ZM88.0685 85.0983C87.3981 85.0983 86.8214 84.9563 86.3384 84.6722C85.8583 84.3852 85.489 83.9875 85.2305 83.479C84.9748 82.9705 84.8469 82.3852 84.8469 81.7233C84.8469 81.0528 84.9762 80.4648 85.2347 79.9591C85.4961 79.4506 85.8668 79.0543 86.3469 78.7702C86.8271 78.4832 87.3981 78.3398 88.06 78.3398C88.631 78.3398 89.131 78.4435 89.56 78.6509C89.989 78.8582 90.3285 79.1494 90.5785 79.5244C90.8285 79.8994 90.9663 80.3398 90.9918 80.8455H89.2788C89.2305 80.5188 89.1026 80.256 88.8952 80.0571C88.6907 79.8554 88.4222 79.7545 88.0898 79.7545C87.8086 79.7545 87.5629 79.8313 87.3526 79.9847C87.1452 80.1352 86.9833 80.3554 86.8668 80.6452C86.7504 80.9349 86.6921 81.2858 86.6921 81.6977C86.6921 82.1153 86.7489 82.4705 86.8626 82.7631C86.979 83.0557 87.1424 83.2787 87.3526 83.4321C87.5629 83.5855 87.8086 83.6622 88.0898 83.6622C88.2972 83.6622 88.4833 83.6196 88.6481 83.5344C88.8157 83.4492 88.9535 83.3256 89.0614 83.1636C89.1722 82.9989 89.2447 82.8014 89.2788 82.5713H90.9918C90.9634 83.0713 90.8271 83.5117 90.5827 83.8923C90.3413 84.2702 90.0075 84.5656 89.5813 84.7787C89.1552 84.9918 88.6509 85.0983 88.0685 85.0983ZM95.6357 78.425V79.7886H91.6939V78.425H95.6357ZM92.5888 76.8568H94.4041V82.9591C94.4041 83.1267 94.4297 83.2574 94.4808 83.3511C94.532 83.442 94.603 83.506 94.6939 83.5429C94.7876 83.5798 94.8956 83.5983 95.0178 83.5983C95.103 83.5983 95.1882 83.5912 95.2734 83.577C95.3587 83.5599 95.424 83.5472 95.4695 83.5386L95.755 84.8895C95.6641 84.9179 95.5362 84.9506 95.3714 84.9875C95.2067 85.0273 95.0064 85.0514 94.7706 85.0599C94.3331 85.077 93.9496 85.0188 93.62 84.8852C93.2933 84.7517 93.0391 84.5443 92.8572 84.2631C92.6754 83.9818 92.5859 83.6267 92.5888 83.1977V76.8568Z" fill="white"/>
<path d="M46.8081 50.7493V43.1919L63.9535 43.1784L57.2971 36.522L61.9095 31.9095L76.9706 46.9706L61.9095 62.0316L57.3105 57.4326L63.967 50.7762L46.8081 50.7493Z" fill="white"/>
</svg>
