<svg width="273" height="62" viewBox="0 0 273 62" fill="none" xmlns="http://www.w3.org/2000/svg">
<path d="M3.33398 51.666C3.50977 51.334 3.80273 50.7188 4.21289 49.8203C4.60352 48.9414 5.0332 47.9746 5.50195 46.9199C11.6934 33.1895 17.7285 21.666 23.6074 12.3496C24.4082 11.0996 24.9941 10.2598 25.3652 9.83008C25.7363 9.38086 26.0586 9.15625 26.332 9.15625C26.957 9.15625 27.1816 9.83984 27.0059 11.207C26.9668 11.4609 26.8887 11.9785 26.7715 12.7598C26.6543 13.5215 26.4492 14.7617 26.1562 16.4805C25.8633 18.1797 25.4629 20.5527 24.9551 23.5996C24.4473 26.666 23.6562 30.7578 22.582 35.875C21.3516 41.5977 20.7363 45.4648 20.7363 47.4766C20.7363 47.75 20.7461 47.9941 20.7656 48.209C20.7852 48.4238 20.8047 48.5508 20.8242 48.5898C20.8828 48.6289 20.9902 48.5508 21.1465 48.3555C21.3223 48.1602 21.5859 47.7793 21.9375 47.2129C22.2891 46.6465 22.7676 45.8164 23.373 44.7227C23.998 43.6289 24.7891 42.2227 25.7461 40.5039C30.7852 31.3828 34.7402 24.6934 37.6113 20.4355C42.5137 13.3066 47.2012 7.47656 51.6738 2.94531C52.709 1.89062 53.4805 1.22656 53.9883 0.953125C54.4961 0.679688 54.9062 0.708984 55.2188 1.04102C55.6875 1.37305 55.7363 2.42773 55.3652 4.20508C55.1699 5.12305 54.9062 6.08984 54.5742 7.10547C54.2617 8.12109 53.7344 9.58594 52.9922 11.5C48.8711 22.3203 45.9414 31.334 44.2031 38.541C42.8359 44.2832 41.8984 49.8203 41.3906 55.1523C41.3711 55.1914 41.3613 55.2207 41.3613 55.2402C41.3027 55.8457 41.2637 56.3145 41.2441 56.6465C41.2246 56.998 41.2148 57.252 41.2148 57.4082C41.2344 57.584 41.2637 57.7012 41.3027 57.7598C41.3613 57.8184 41.4297 57.8672 41.5078 57.9062C41.5273 57.9062 41.5371 57.916 41.5371 57.9355C41.8887 58.1113 42.1035 58.3945 42.1816 58.7852C42.2598 59.1758 42.2012 59.6055 42.0059 60.0742C41.7324 60.6016 41.3906 60.9434 40.9805 61.0996C40.5898 61.2754 40.248 61.207 39.9551 60.8945C39.623 60.543 39.5352 59.752 39.6914 58.5215C39.75 58.248 39.8086 57.7891 39.8672 57.1445C39.9453 56.5 40.0332 55.8262 40.1309 55.123C41.0879 47.1738 42.6895 39.2637 44.9355 31.3926C45.6777 28.8535 46.6738 25.7188 47.9238 21.9883C49.1934 18.2383 50.4727 14.6055 51.7617 11.0898C52.0352 10.3477 52.3086 9.5957 52.582 8.83398C52.8555 8.05273 53.0703 7.4375 53.2266 6.98828C53.3828 6.44141 53.5391 5.83594 53.6953 5.17188C53.8711 4.50781 54.0078 3.92187 54.1055 3.41406C54.2031 2.90625 54.2324 2.62305 54.1934 2.56445C54.1934 2.54492 54.1836 2.53516 54.1641 2.53516C54.1445 2.53516 54.125 2.54492 54.1055 2.56445C54.0859 2.58398 54.0469 2.61328 53.9883 2.65234C53.9492 2.69141 53.8809 2.75 53.7832 2.82812C53.7051 2.88672 53.5977 2.97461 53.4609 3.0918C53.3438 3.20898 53.1973 3.35547 53.0215 3.53125C52.8457 3.6875 52.6406 3.88281 52.4062 4.11719C51.3125 5.17188 49.8672 6.73437 48.0703 8.80469C46.293 10.8555 44.5938 12.9258 42.9727 15.0156C38.207 21.1875 32.6211 30.2109 26.2148 42.0859C24.9453 44.4297 23.9395 46.207 23.1973 47.418C22.4551 48.6289 21.8594 49.4102 21.4102 49.7617C20.9805 50.1133 20.5898 50.1719 20.2383 49.9375C20.0039 49.8203 19.8379 49.5762 19.7402 49.2051C19.6621 48.8535 19.6328 48.2285 19.6523 47.3301C19.6328 46.2363 19.7695 44.7617 20.0625 42.9062C20.375 41.0312 20.9414 38.1211 21.7617 34.1758C22.3281 31.3828 22.7676 29.1367 23.0801 27.4375C23.4121 25.7383 23.7734 23.7656 24.1641 21.5195C24.3594 20.3477 24.5645 19.166 24.7793 17.9746C24.9746 16.8027 25.1309 15.8945 25.248 15.25C25.7559 12.3789 25.9609 10.9434 25.8633 10.9434C25.8242 10.9434 25.5508 11.3438 25.043 12.1445C24.5352 12.9258 23.959 13.834 23.3145 14.8691C22.6895 15.8848 22.1426 16.7832 21.6738 17.5645C18.7637 22.5059 15.5508 28.6094 12.0352 35.875C10.668 38.6875 9.58398 40.9727 8.7832 42.7305C7.98242 44.4688 7.12305 46.4414 6.20508 48.6484C5.4043 50.543 4.7793 51.9785 4.33008 52.9551C3.86133 53.9316 3.49023 54.5762 3.2168 54.8887C2.92383 55.2207 2.64062 55.3867 2.36719 55.3867C2.05469 55.3867 1.80078 55.2695 1.60547 55.0352C1.41016 54.8594 1.26367 54.5859 1.16602 54.2148C1.06836 53.8633 0.980469 53.2871 0.902344 52.4863C0.804688 50.3965 0.84375 48.8535 1.01953 47.8574C1.19531 46.8613 1.41016 46.041 1.66406 45.3965C1.70312 45.2793 1.74219 45.1621 1.78125 45.0449C2.26953 44.0098 2.88477 43.5117 3.62695 43.5508C4.34961 43.5703 4.7793 44.0879 4.91602 45.1035C4.93555 45.416 4.92578 45.6895 4.88672 45.9238C4.82812 46.1582 4.7207 46.4902 4.56445 46.9199C4.07617 48.209 3.54883 49.3223 2.98242 50.2598C2.63086 50.8262 2.55273 51.5293 2.74805 52.3691C2.76758 52.4863 2.79688 52.5449 2.83594 52.5449C2.85547 52.5645 2.9043 52.5059 2.98242 52.3691C3.06055 52.2324 3.17773 51.998 3.33398 51.666ZM49.0957 44.3418C48.3926 44.3418 47.875 44.0098 47.543 43.3457C47.2695 42.8184 47.123 42.2031 47.1035 41.5C47.1035 40.1133 47.5039 38.4336 48.3047 36.4609C49.1836 34.2344 50.2969 32.5645 51.6445 31.4512C52.2109 30.9824 52.7969 30.748 53.4023 30.748C54.1641 30.748 54.8477 31.168 55.4531 32.0078C55.8047 32.5352 56.0195 33.1016 56.0977 33.707C56.1562 34.1367 56.2246 34.3516 56.3027 34.3516C56.4004 34.3516 56.6152 34.3027 56.9473 34.2051C58.5684 33.6973 59.4766 33.1895 59.6719 32.6816C59.9648 32.0762 60.3848 31.7734 60.9316 31.7734C61.3809 31.7734 61.752 32.0078 62.0449 32.4766C62.123 32.6523 62.1621 32.8281 62.1621 33.0039C62.1621 33.6484 61.7324 34.0684 60.873 34.2637C60.4434 34.3613 59.4473 34.6738 57.8848 35.2012C57.4941 35.3379 57.1719 35.4258 56.918 35.4648C56.4102 35.582 56.1074 35.6699 56.0098 35.7285C55.8926 35.9629 55.8047 36.207 55.7461 36.4609C55.5703 36.9883 55.2773 37.6523 54.8672 38.4531C54.1836 39.7422 53.5 40.8066 52.8164 41.6465C51.3125 43.4434 50.0723 44.3418 49.0957 44.3418ZM49.1543 42.9648C49.4082 42.9648 49.7207 42.8281 50.0918 42.5547C50.834 42.0078 51.6445 41.0996 52.5234 39.8301C53.4023 38.541 54.0566 37.3398 54.4863 36.2266L54.6328 35.7871C53.6953 35.6504 52.9531 35.3379 52.4062 34.8496C52.2109 34.6348 52.0352 34.5273 51.8789 34.5273C51.7227 34.5273 51.459 34.8008 51.0879 35.3477C50.2676 36.5977 49.6328 37.8281 49.1836 39.0391C48.793 40.0547 48.5977 40.9824 48.5977 41.8223C48.5977 42.584 48.7832 42.9648 49.1543 42.9648ZM54.7793 33.9121C54.8184 33.9121 54.8379 33.8926 54.8379 33.8535C54.8379 33.7363 54.75 33.5703 54.5742 33.3555C54.2422 32.9844 53.998 32.7988 53.8418 32.7988C53.7637 32.7988 53.7246 32.8281 53.7246 32.8867C53.7246 33.1797 53.9297 33.4531 54.3398 33.707C54.5547 33.8438 54.7012 33.9121 54.7793 33.9121ZM56.127 45.6602C55.7559 45.6602 55.5703 45.5332 55.5703 45.2793C55.5703 44.4785 56.5957 41.6562 58.6465 36.8125C60.4629 32.4766 61.7812 29.4102 62.6016 27.6133C63.7148 25.0547 64.4863 23.1309 64.916 21.8418C65.1309 21.2754 65.2383 20.8848 65.2383 20.6699C65.2383 20.5723 65.209 20.4648 65.1504 20.3477C65.0918 20.1133 65.0625 19.8887 65.0625 19.6738C65.0625 19.1855 65.2188 18.7852 65.5312 18.4727C65.8438 18.1406 66.1953 17.9746 66.5859 17.9746C67.5234 17.9746 67.9922 18.4531 67.9922 19.4102C67.9922 19.8398 67.8652 20.2305 67.6113 20.582C67.377 20.9141 66.752 22.1738 65.7363 24.3613L64.3594 27.2031C62.3086 31.5195 60.8438 34.7422 59.9648 36.8711C59.7695 37.3398 59.623 37.6914 59.5254 37.9258C59.4277 38.1602 59.3789 38.2969 59.3789 38.3359C59.3789 38.3555 59.3691 38.4043 59.3496 38.4824C59.3691 38.4824 59.7109 38.082 60.375 37.2812C61.1367 36.4023 62.0352 35.4648 63.0703 34.4688C64.1055 33.4531 64.9258 32.7402 65.5312 32.3301C66.2344 31.8418 66.8496 31.5977 67.377 31.5977C68.0215 31.5977 68.4902 31.8613 68.7832 32.3887C69.0176 32.8574 69.2227 33.6484 69.3984 34.7617C69.5938 36.3242 69.8574 37.1055 70.1895 37.1055C70.4434 37.1055 70.9023 36.8418 71.5664 36.3145C73.6562 34.7129 74.8086 33.3848 75.0234 32.3301C75.2383 31.627 75.668 31.2754 76.3125 31.2754C76.9766 31.2754 77.3965 31.6367 77.5723 32.3594C77.5918 32.418 77.6016 32.4863 77.6016 32.5645C77.6016 33.0137 77.2012 33.5117 76.4004 34.0586C75.8535 34.4297 75.0039 35.1035 73.8516 36.0801C72.7578 36.998 71.957 37.6133 71.4492 37.9258C70.9414 38.2188 70.4824 38.3652 70.0723 38.3652C69.7793 38.3652 69.5742 38.3359 69.457 38.2773C68.832 38.0625 68.3438 36.9785 67.9922 35.0254C67.7969 33.7363 67.5723 33.0918 67.3184 33.0918C67.2598 33.0918 67.1523 33.1309 66.9961 33.209C65.6094 33.9707 63.8613 35.582 61.752 38.043C59.9551 40.1523 58.5098 42.1641 57.416 44.0781C56.9277 44.918 56.6348 45.3965 56.5371 45.5137C56.4395 45.6113 56.3027 45.6602 56.127 45.6602ZM76.1074 31.1875C76.3809 30.9336 76.7031 30.8359 77.0742 30.8945C77.4648 30.9336 77.7676 31.1094 77.9824 31.4219C78.1973 31.793 78.2363 32.2617 78.0996 32.8281C77.9629 33.375 77.6992 33.7559 77.3086 33.9707C77.0938 34.0684 76.8594 34.3418 76.6055 34.791C76.3711 35.2207 76.0781 35.9141 75.7266 36.8711C74.7891 39.3906 74.6133 40.9922 75.1992 41.6758C75.2969 41.7734 75.4043 41.8418 75.5215 41.8809C75.6387 41.9004 75.8535 41.9004 76.166 41.8809C77.5723 41.7441 80.1895 40.2402 84.0176 37.3691C87.2012 34.9863 88.793 33.4824 88.793 32.8574C88.793 32.2324 89.0859 31.7734 89.6719 31.4805C90.2773 31.1875 90.8535 31.2363 91.4004 31.627C91.6152 31.8418 91.7324 32.125 91.752 32.4766C91.791 32.8086 91.7324 33.1113 91.5762 33.3848C91.4785 33.541 91.3418 33.6973 91.166 33.8535C90.9902 34.0098 90.8047 34.1562 90.6094 34.293C90.4336 34.4102 90.2969 34.4688 90.1992 34.4688C90.043 34.4688 89.7207 34.625 89.2324 34.9375C88.7441 35.2305 88.002 35.7578 87.0059 36.5195C81.6934 40.4648 78.2656 42.584 76.7227 42.877C76.3516 42.9746 76.0586 43.0234 75.8438 43.0234C75.6289 43.0234 75.3945 42.9746 75.1406 42.877C75.0039 42.8184 74.8672 42.75 74.7305 42.6719C74.5742 42.5742 74.457 42.4766 74.3789 42.3789C74.1836 42.1641 74.0273 41.8613 73.9102 41.4707C73.7734 41.0801 73.7051 40.709 73.7051 40.3574C73.7051 39.9668 73.7734 39.4297 73.9102 38.7461C74.0469 38.043 74.2227 37.3496 74.4375 36.666C74.75 35.6699 74.9746 34.9082 75.1113 34.3809C75.248 33.8535 75.3164 33.4434 75.3164 33.1504C75.3164 32.8184 75.3945 32.457 75.5508 32.0664C75.707 31.6758 75.8926 31.3828 76.1074 31.1875ZM79.7695 27.9941C79.5547 28.4043 79.2617 28.668 78.8906 28.7852C78.5195 28.9023 78.1387 28.8535 77.748 28.6387C77.3574 28.3652 77.1426 28.0039 77.1035 27.5547C77.084 27.1055 77.2109 26.6953 77.4844 26.3242C77.7578 25.9336 78.1289 25.7383 78.5977 25.7383C79.1445 25.7383 79.5547 25.9922 79.8281 26.5C80.0625 26.9688 80.043 27.4668 79.7695 27.9941ZM84.8965 54.625C84.7012 54.625 84.4961 54.5566 84.2812 54.4199C84.0469 54.2832 83.8906 54.127 83.8125 53.9512C83.7344 53.7754 83.6953 53.502 83.6953 53.1309C83.6953 52.7598 83.8125 51.9688 84.0469 50.7578C84.2812 49.5664 84.5254 48.5215 84.7793 47.623L85.0137 46.8613C85.7754 43.9316 86.7129 40.8848 87.8262 37.7207C88.1582 36.8223 88.3242 36.2852 88.3242 36.1094C88.5195 35.2305 89.1641 33.541 90.2578 31.041L91.6348 27.6719C92.1035 26.5195 92.3379 25.8848 92.3379 25.7676C92.3379 25.7285 92.2988 25.709 92.2207 25.709C92.1035 25.709 91.8301 25.7578 91.4004 25.8555C90.3457 26.0703 89.1445 26.3633 87.7969 26.7344C86.4492 27.1055 85.5996 27.4277 85.248 27.7012C85.0527 27.8379 84.9551 28.0137 84.9551 28.2285C84.9551 28.4434 84.8574 28.6582 84.6621 28.873C84.3496 29.2246 83.9785 29.4004 83.5488 29.4004C83.2754 29.4004 83.002 29.293 82.7285 29.0781C82.4551 28.8633 82.3184 28.5215 82.3184 28.0527C82.3184 27.1543 83.0605 26.4707 84.5449 26.002C85.8926 25.5332 88.0703 24.9961 91.0781 24.3906C92.3867 24.1172 93.0996 23.9512 93.2168 23.8926C93.6074 23.1113 93.9199 22.457 94.1543 21.9297C95.0137 20.1133 95.6289 19.0488 96 18.7363C96.2148 18.5605 96.459 18.4727 96.7324 18.4727C97.4551 18.4727 97.8164 18.9121 97.8164 19.791L97.7578 20.4062C97.5625 21.6367 97.0059 22.291 96.0879 22.3691C95.873 22.3887 95.707 22.4375 95.5898 22.5156C95.4922 22.5938 95.3848 22.75 95.2676 22.9844C95.1895 23.1406 95.1309 23.2676 95.0918 23.3652C95.0527 23.4434 95.0332 23.502 95.0332 23.541C95.0332 23.5605 95.0625 23.5703 95.1211 23.5703C95.4141 23.5703 96.1074 23.4824 97.2012 23.3066L99.4277 22.9844C100.189 22.8867 102.006 22.7598 104.877 22.6035C105.834 22.5449 106.576 22.5156 107.104 22.5156C107.26 22.5156 107.396 22.5254 107.514 22.5449C107.65 22.5645 107.768 22.6035 107.865 22.6621C108.08 22.7793 108.256 22.9551 108.393 23.1895C108.549 23.4043 108.627 23.6094 108.627 23.8047C108.627 24.2539 108.471 24.6055 108.158 24.8594C107.865 25.1133 107.484 25.2402 107.016 25.2402C106.742 25.2402 106.488 25.1914 106.254 25.0938C104.945 24.8008 103.5 24.6543 101.918 24.6543C100.59 24.6543 98.8906 24.7715 96.8203 25.0059C95.082 25.2207 94.1543 25.3867 94.0371 25.5039C93.8418 25.7383 93.3535 26.7734 92.5723 28.6094L91.8984 30.2207C91.625 30.8066 91.3711 31.4609 91.1367 32.1836C90.707 33.3555 90.3555 34.2734 90.082 34.9375C88.9297 38.0625 87.9824 41.0215 87.2402 43.8145C86.3418 47.1348 85.8926 49.6055 85.8926 51.2266C85.8926 51.6172 85.9609 51.9883 86.0977 52.3398C86.2344 52.6914 86.3027 53.0039 86.3027 53.2773C86.3027 53.4922 86.2246 53.7168 86.0684 53.9512C85.8926 54.2051 85.6973 54.3809 85.4824 54.4785C85.248 54.5762 85.0527 54.625 84.8965 54.625ZM111.527 37.9258C112.074 36.5586 112.67 35.084 113.314 33.502C113.959 31.9004 114.496 30.5625 114.926 29.4883L116.42 25.8262L116.127 25.2695C115.932 24.9375 115.854 24.5762 115.893 24.1855C115.932 23.7754 116.127 23.1602 116.479 22.3398C117.064 20.8945 117.709 19.5273 118.412 18.2383C119.135 16.9492 119.691 16.1387 120.082 15.8066C120.512 15.5137 120.922 15.4844 121.312 15.7188C121.723 15.9336 121.928 16.3047 121.928 16.832C121.928 17.0273 121.859 17.3203 121.723 17.7109C121.586 18.082 121.342 18.668 120.99 19.4688C120.717 20.0938 120.434 20.7578 120.141 21.4609C119.848 22.1641 119.613 22.75 119.438 23.2188C119.242 23.668 119.047 24.0977 118.852 24.5078C118.676 24.8984 118.529 25.1719 118.412 25.3281C118.314 25.4648 118.188 25.6699 118.031 25.9434C117.895 26.1973 117.699 26.6074 117.445 27.1738C117.191 27.7402 116.84 28.5508 116.391 29.6055C115.961 30.6406 115.385 32.0078 114.662 33.707C112.318 39.2148 111.146 42.0664 111.146 42.2617C111.146 42.3008 111.146 42.3301 111.146 42.3496C111.166 42.3496 111.205 42.3496 111.264 42.3496C111.322 42.3496 111.42 42.3398 111.557 42.3203C111.693 42.2812 111.879 42.2422 112.113 42.2031C112.367 42.1445 112.68 42.0664 113.051 41.9688L114.809 41.5586L115.688 40.7969C117.094 39.6445 118.715 38.1699 120.551 36.373C122.387 34.5566 123.988 32.877 125.355 31.334C129.027 27.1543 131.977 23.2285 134.203 19.5566C134.672 18.7363 135.18 17.7598 135.727 16.627C136.293 15.4746 136.713 14.5176 136.986 13.7559C139.096 7.81836 138.07 4.37109 133.91 3.41406C131.703 3.00391 129.037 3.36523 125.912 4.49805C122.807 5.63086 119.799 7.33984 116.889 9.625C116.127 10.2305 115.297 10.9922 114.398 11.9102C113.5 12.8086 112.797 13.5898 112.289 14.2539C111.84 14.8594 111.43 15.5039 111.059 16.1875C110.707 16.8516 110.453 17.418 110.297 17.8867C110.199 18.2773 110.141 18.6875 110.121 19.1172C110.121 19.5273 110.17 19.8398 110.268 20.0547C110.385 20.2891 110.512 20.4258 110.648 20.4648C110.805 20.5039 111.01 20.4551 111.264 20.3184C111.674 20.084 112.055 20.0156 112.406 20.1133C112.777 20.1914 113.061 20.416 113.256 20.7871C113.568 21.5684 113.432 22.2227 112.846 22.75C112.279 23.2578 111.645 23.5117 110.941 23.5117C110.648 23.5117 110.316 23.4238 109.945 23.248C109.574 23.0723 109.252 22.8574 108.979 22.6035C108.256 22.0176 107.895 21.0215 107.895 19.6152C107.895 17.3496 109.096 14.8594 111.498 12.1445C113.646 9.70313 116.283 7.56445 119.408 5.72852C122.533 3.87305 125.658 2.60352 128.783 1.91992C129.76 1.70508 130.766 1.59766 131.801 1.59766C132.836 1.57812 133.705 1.66602 134.408 1.86133C136.908 2.56445 138.48 4.09766 139.125 6.46094C139.262 7.02734 139.311 7.80859 139.271 8.80469C139.232 9.80078 139.115 10.709 138.92 11.5293C137.611 16.8418 133.744 23.248 127.318 30.748C124.584 33.9121 121.859 36.7441 119.145 39.2441C118.695 39.6543 118.314 40.0156 118.002 40.3281C117.709 40.6211 117.562 40.7773 117.562 40.7969C117.562 40.8164 117.582 40.8359 117.621 40.8555C117.66 40.875 117.709 40.8848 117.768 40.8848C117.865 40.8848 118.432 40.7578 119.467 40.5039C120.502 40.25 121.615 39.9668 122.807 39.6543C123.998 39.3418 124.955 39.0781 125.678 38.8633C132.318 36.8516 138.461 34.293 144.105 31.1875C145.316 30.5039 146.215 29.9277 146.801 29.459C147.387 28.9902 147.836 28.4727 148.148 27.9062C148.559 27.2812 149.018 27.0078 149.525 27.0859C150.053 27.1641 150.375 27.5645 150.492 28.2871C150.531 28.5996 150.492 28.8633 150.375 29.0781C150.277 29.2734 150.004 29.5078 149.555 29.7812C149.125 30.0352 148.432 30.3965 147.475 30.8652C141.615 33.7949 136.537 36.0703 132.24 37.6914C127.943 39.293 123.139 40.7285 117.826 41.998L115.248 42.6133L113.9 43.6387C113.51 43.9316 113.07 44.2441 112.582 44.5762C112.113 44.8887 111.713 45.1523 111.381 45.3672C110.756 45.7578 110.287 46.0605 109.975 46.2754C109.682 46.4902 109.467 46.6855 109.33 46.8613C109.213 47.0176 109.115 47.2227 109.037 47.4766C108.021 50.0742 107.26 52.0859 106.752 53.5117L106.137 55.1816L106.43 55.7383C106.645 56.1484 106.693 56.5391 106.576 56.9102C106.479 57.2812 106.176 57.75 105.668 58.3164C105.648 58.3359 105.629 58.3555 105.609 58.375C105.355 58.6875 105.072 58.9414 104.76 59.1367C104.467 59.3516 104.145 59.332 103.793 59.0781C103.676 58.9805 103.598 58.8828 103.559 58.7852C103.52 58.6875 103.5 58.5508 103.5 58.375C103.5 57.9062 103.754 57.0371 104.262 55.7676C104.789 54.498 105.355 53.1992 105.961 51.8711C106.449 50.7578 106.85 49.8008 107.162 49C107.494 48.2188 107.621 47.7793 107.543 47.6816C107.523 47.6621 107.406 47.6914 107.191 47.7695C106.977 47.8281 106.723 47.9062 106.43 48.0039C103.812 48.9414 102.504 48.7656 102.504 47.4766C102.504 47.1445 102.611 46.8223 102.826 46.5098C103.178 46.002 103.842 45.4648 104.818 44.8984C105.814 44.3125 106.938 43.7949 108.188 43.3457C108.52 43.2285 108.812 43.1211 109.066 43.0234C109.32 42.9258 109.467 42.8477 109.506 42.7891C109.545 42.7305 109.76 42.2422 110.15 41.3242C110.541 40.3867 111 39.2539 111.527 37.9258ZM108.568 45.3672C108.764 44.8789 108.793 44.6152 108.656 44.5762C108.52 44.5371 108.1 44.6738 107.396 44.9863C106.518 45.3965 105.717 45.8262 104.994 46.2754C104.291 46.7246 103.939 47.0273 103.939 47.1836C103.939 47.3594 104.438 47.3203 105.434 47.0664C105.688 46.9883 105.99 46.8809 106.342 46.7441C106.693 46.6074 107.025 46.4707 107.338 46.334C107.65 46.1777 107.885 46.0605 108.041 45.9824C108.197 45.8848 108.305 45.7969 108.363 45.7188C108.441 45.6211 108.51 45.5039 108.568 45.3672ZM111.059 44.2246C111.977 43.6387 111.928 43.4922 110.912 43.7852C110.463 43.9219 110.238 44.1758 110.238 44.5469C110.238 44.625 110.258 44.6641 110.297 44.6641C110.336 44.6641 110.414 44.6348 110.531 44.5762C110.648 44.498 110.824 44.3809 111.059 44.2246ZM156.205 39.8594C155.834 39.8594 155.551 39.8105 155.355 39.7129C154.535 39.2832 154.125 38.4531 154.125 37.2227C154.125 36.3242 154.32 35.1621 154.711 33.7363V33.707C154.711 33.6875 154.701 33.6777 154.682 33.6777C154.643 33.6777 154.262 34 153.539 34.6445C151.879 36.1289 150.609 36.8711 149.73 36.8711C149.223 36.8711 148.852 36.6074 148.617 36.0801C148.52 35.8066 148.471 35.5137 148.471 35.2012C148.471 34.3613 148.871 33.4043 149.672 32.3301C151.156 30.6309 152.699 29.7812 154.301 29.7812C155.316 29.7812 156.078 30.1621 156.586 30.9238C156.664 31.041 156.703 31.2168 156.703 31.4512C156.703 32.1152 156.586 32.5938 156.352 32.8867C156.117 33.1797 155.902 33.6387 155.707 34.2637C155.316 35.5332 155.121 36.5586 155.121 37.3398C155.121 37.8672 155.258 38.2871 155.531 38.5996C155.727 38.834 155.961 38.9512 156.234 38.9512C157.152 38.9512 158.803 38.0137 161.186 36.1387C162.064 35.4355 162.68 34.8594 163.031 34.4102C163.383 33.9414 163.559 33.4824 163.559 33.0332C163.559 32.5645 163.676 32.2422 163.91 32.0664C164.145 31.8906 164.369 31.8027 164.584 31.8027C164.955 31.8027 165.219 31.9883 165.375 32.3594C165.453 32.5938 165.492 32.8184 165.492 33.0332C165.492 33.6777 165.297 34.1172 164.906 34.3516C164.73 34.4297 164.262 34.8008 163.5 35.4648C162.289 36.5195 161.107 37.4473 159.955 38.248C158.803 39.0293 157.924 39.5078 157.318 39.6836C156.967 39.8008 156.596 39.8594 156.205 39.8594ZM149.76 35.7578C150.189 35.7578 150.98 35.25 152.133 34.2344C153.129 33.3555 153.715 32.7207 153.891 32.3301C153.949 32.1934 153.979 31.998 153.979 31.7441C153.979 31.3926 153.803 31.2168 153.451 31.2168C153.119 31.2168 152.68 31.3926 152.133 31.7441C151.02 32.4668 150.248 33.3262 149.818 34.3223C149.604 34.8105 149.496 35.1816 149.496 35.4355C149.496 35.6504 149.584 35.7578 149.76 35.7578ZM161.361 49.1758H161.244C160.58 49.1758 160.248 48.7168 160.248 47.7988C160.248 47.3691 160.326 46.832 160.482 46.1875C160.639 45.543 160.912 44.5273 161.303 43.1406C161.693 41.7539 162.094 40.3574 162.504 38.9512L162.562 38.7461C162.816 37.9062 163.021 37.252 163.178 36.7832C163.314 36.2949 163.412 35.9336 163.471 35.6992C163.51 35.4648 163.529 35.2793 163.529 35.1426C163.529 34.8691 163.5 34.7031 163.441 34.6445C163.402 34.4102 163.383 34.1855 163.383 33.9707C163.383 33.1699 163.715 32.584 164.379 32.2129C164.613 32.1348 164.828 32.0957 165.023 32.0957C165.609 32.0957 165.902 32.5742 165.902 33.5312C165.902 34.3711 165.717 35.1719 165.346 35.9336C164.721 37.1836 163.754 39.9082 162.445 44.1074C161.879 45.9043 161.557 47.1641 161.479 47.8867C163.002 46.3633 164.564 44.5371 166.166 42.4082C167.768 40.2793 169.018 38.3945 169.916 36.7539C169.584 36.4023 169.418 36.1484 169.418 35.9922C169.418 35.7969 169.535 35.6309 169.77 35.4941C169.887 35.416 170.023 35.377 170.18 35.377C170.258 35.377 170.365 35.4062 170.502 35.4648C170.639 35.5039 170.775 35.5234 170.912 35.5234C171.479 35.5234 172.416 35.2402 173.725 34.6738C175.209 34.0488 176.098 33.4141 176.391 32.7695C176.547 32.4961 176.742 32.2715 176.977 32.0957C177.23 31.9004 177.465 31.8027 177.68 31.8027C177.875 31.8027 178.07 31.8711 178.266 32.0078C178.461 32.1445 178.598 32.3203 178.676 32.5352C178.754 32.7305 178.793 32.9258 178.793 33.1211C178.793 33.2969 178.725 33.502 178.588 33.7363C178.354 34.1074 177.094 34.7031 174.809 35.5234C173.539 35.9727 172.289 36.3535 171.059 36.666L170.648 37.4863C170.043 38.7754 168.773 40.709 166.84 43.2871C164.203 46.8223 162.484 48.7363 161.684 49.0293L161.361 49.1758ZM177.357 31.1875C177.631 30.9336 177.953 30.8359 178.324 30.8945C178.715 30.9336 179.018 31.1094 179.232 31.4219C179.447 31.793 179.486 32.2617 179.35 32.8281C179.213 33.375 178.949 33.7559 178.559 33.9707C178.344 34.0684 178.109 34.3418 177.855 34.791C177.621 35.2207 177.328 35.9141 176.977 36.8711C176.039 39.3906 175.863 40.9922 176.449 41.6758C176.547 41.7734 176.654 41.8418 176.771 41.8809C176.889 41.9004 177.104 41.9004 177.416 41.8809C178.822 41.7441 181.439 40.2402 185.268 37.3691C188.451 34.9863 190.043 33.4824 190.043 32.8574C190.043 32.2324 190.336 31.7734 190.922 31.4805C191.527 31.1875 192.104 31.2363 192.65 31.627C192.865 31.8418 192.982 32.125 193.002 32.4766C193.041 32.8086 192.982 33.1113 192.826 33.3848C192.729 33.541 192.592 33.6973 192.416 33.8535C192.24 34.0098 192.055 34.1562 191.859 34.293C191.684 34.4102 191.547 34.4688 191.449 34.4688C191.293 34.4688 190.971 34.625 190.482 34.9375C189.994 35.2305 189.252 35.7578 188.256 36.5195C182.943 40.4648 179.516 42.584 177.973 42.877C177.602 42.9746 177.309 43.0234 177.094 43.0234C176.879 43.0234 176.645 42.9746 176.391 42.877C176.254 42.8184 176.117 42.75 175.98 42.6719C175.824 42.5742 175.707 42.4766 175.629 42.3789C175.434 42.1641 175.277 41.8613 175.16 41.4707C175.023 41.0801 174.955 40.709 174.955 40.3574C174.955 39.9668 175.023 39.4297 175.16 38.7461C175.297 38.043 175.473 37.3496 175.688 36.666C176 35.6699 176.225 34.9082 176.361 34.3809C176.498 33.8535 176.566 33.4434 176.566 33.1504C176.566 32.8184 176.645 32.457 176.801 32.0664C176.957 31.6758 177.143 31.3828 177.357 31.1875ZM181.02 27.9941C180.805 28.4043 180.512 28.668 180.141 28.7852C179.77 28.9023 179.389 28.8535 178.998 28.6387C178.607 28.3652 178.393 28.0039 178.354 27.5547C178.334 27.1055 178.461 26.6953 178.734 26.3242C179.008 25.9336 179.379 25.7383 179.848 25.7383C180.395 25.7383 180.805 25.9922 181.078 26.5C181.312 26.9688 181.293 27.4668 181.02 27.9941ZM188.607 42.1152C188.334 41.8613 188.451 41.0508 188.959 39.6836C189.33 38.6094 189.633 37.7402 189.867 37.0762C190.102 36.4121 190.277 35.9043 190.395 35.5527C190.492 35.2012 190.551 34.9473 190.57 34.791C190.59 34.6348 190.58 34.5273 190.541 34.4688C190.365 33.8828 190.434 33.3262 190.746 32.7988C191.059 32.252 191.469 31.9785 191.977 31.9785C192.445 31.9785 192.768 32.1738 192.943 32.5645C193.139 32.9355 193.197 33.3652 193.119 33.8535C193.041 34.3418 192.826 34.7812 192.475 35.1719C192.357 35.3086 192.25 35.4355 192.152 35.5527C192.074 35.6699 192.035 35.748 192.035 35.7871C192.035 35.8066 191.957 35.9824 191.801 36.3145C191.664 36.6465 191.488 37.0469 191.273 37.5156C191.078 37.9648 190.912 38.3457 190.775 38.6582C190.639 38.9707 190.57 39.1367 190.57 39.1562C190.59 39.1562 190.688 39.0684 190.863 38.8926C191.039 38.6973 191.254 38.4531 191.508 38.1602C192.055 37.5547 192.748 36.8418 193.588 36.0215C194.447 35.2012 195.229 34.5078 195.932 33.9414C196.537 33.4531 197.104 33.082 197.631 32.8281C198.158 32.5547 198.568 32.4375 198.861 32.4766C199.623 32.5938 200.15 33.3945 200.443 34.8789C200.795 36.7539 201.303 37.8184 201.967 38.0723C202.631 38.3066 203.773 37.9844 205.395 37.1055C206.762 36.3828 207.963 35.6211 208.998 34.8203C210.053 34.0195 210.766 33.2969 211.137 32.6523C211.527 31.8711 212.025 31.4805 212.631 31.4805C213.041 31.4805 213.334 31.6465 213.51 31.9785C213.686 32.3105 213.734 32.6719 213.656 33.0625C213.578 33.4531 213.354 33.7656 212.982 34C212.885 34.0586 212.719 34.166 212.484 34.3223C212.25 34.459 212.016 34.6055 211.781 34.7617C206.879 37.7891 203.725 39.3027 202.318 39.3027C201.674 39.3027 201.088 39.0586 200.561 38.5703C200.053 38.1016 199.613 37.0762 199.242 35.4941C198.969 34.3027 198.725 33.707 198.51 33.707C198.393 33.707 198.08 33.8828 197.572 34.2344C197.084 34.5664 196.576 34.9375 196.049 35.3477C195.346 35.9336 194.545 36.6855 193.646 37.6035C192.768 38.502 191.928 39.4199 191.127 40.3574C190.736 40.8457 190.395 41.2656 190.102 41.6172C189.789 41.9492 189.594 42.1348 189.516 42.1738C189.359 42.2715 189.193 42.3105 189.018 42.291C188.822 42.2715 188.686 42.2129 188.607 42.1152ZM212.865 47.8867C212.26 47.8867 211.83 47.6426 211.576 47.1543L211.547 47.125C211.488 46.9688 211.459 46.8418 211.459 46.7441C211.459 46.5488 211.586 46.0801 211.84 45.3379C213.988 39.3223 215.502 35.3965 216.381 33.5605C216.479 33.3652 216.527 33.2383 216.527 33.1797C216.527 33.1406 216.518 33.1211 216.498 33.1211C216.42 33.1211 216.166 33.3945 215.736 33.9414C214.799 35.1523 213.773 36.3633 212.66 37.5742C210.531 39.8789 209.125 41.0312 208.441 41.0312C208.09 41.0312 207.807 40.8359 207.592 40.4453C207.475 40.25 207.416 40.0254 207.416 39.7715C207.416 39.127 207.963 38.0039 209.057 36.4023C210.131 34.7617 211.361 33.2871 212.748 31.9785C213.686 31.0605 214.389 30.4648 214.857 30.1914C215.131 30.0547 215.385 29.9863 215.619 29.9863C215.795 29.9863 215.951 30.0156 216.088 30.0742C216.244 30.1328 216.371 30.1816 216.469 30.2207C216.566 30.2598 216.625 30.2793 216.645 30.2793C216.684 30.2793 216.889 30.0156 217.26 29.4883C218.842 27.2227 220.014 25.2305 220.775 23.5117C221.596 21.6562 222.182 20.5137 222.533 20.084C222.729 19.8496 222.953 19.7324 223.207 19.7324C223.227 19.7324 223.305 19.7422 223.441 19.7617C223.578 19.7617 223.705 19.8984 223.822 20.1719V20.2598C223.822 20.9629 222.943 22.8574 221.186 25.9434C220.561 27.0176 219.75 28.6582 218.754 30.8652C217.094 34.5762 215.814 37.7988 214.916 40.5332C214.018 43.2676 213.568 44.8203 213.568 45.1914C213.568 45.3086 213.666 45.4941 213.861 45.748C214.057 45.9824 214.154 46.2656 214.154 46.5977C214.154 46.9297 214.018 47.2324 213.744 47.5059C213.49 47.7598 213.197 47.8867 212.865 47.8867ZM209.643 38.6289C209.682 38.6289 209.838 38.4922 210.111 38.2188C210.854 37.5156 211.703 36.6074 212.66 35.4941C214.066 33.8926 214.77 33.0039 214.77 32.8281H214.74C214.604 32.8281 214.281 33.0625 213.773 33.5312C212.406 34.8008 211.322 36.002 210.521 37.1348C210.365 37.3887 210.229 37.5938 210.111 37.75C209.779 38.2188 209.613 38.4824 209.613 38.541V38.5996C209.613 38.6191 209.623 38.6289 209.643 38.6289ZM226.459 42.3496C225.658 42.3496 225.053 42.0762 224.643 41.5293C224.311 41.0801 224.145 40.2012 224.145 38.8926L224.174 37.5742C224.174 36.3438 224.037 35.4746 223.764 34.9668C223.51 34.459 222.855 34.0684 221.801 33.7949C220.668 33.4629 220.102 32.8477 220.102 31.9492C220.102 31.6367 220.16 31.2949 220.277 30.9238C220.512 30.2012 220.883 29.6445 221.391 29.2539C221.762 28.9805 222.133 28.8438 222.504 28.8438C222.66 28.8438 222.807 28.8633 222.943 28.9023C223.725 29.1758 224.115 29.791 224.115 30.748C224.115 31.1777 224.057 31.5684 223.939 31.9199C223.803 32.5059 223.734 32.8867 223.734 33.0625C223.734 33.3164 223.871 33.5117 224.145 33.6484C224.633 34.0781 224.936 34.5566 225.053 35.084C225.111 35.3965 225.16 36.3145 225.199 37.8379C225.238 39.5762 225.326 40.5625 225.463 40.7969C225.619 41.1094 225.932 41.2656 226.4 41.2656C227.104 41.2656 228.012 40.8457 229.125 40.0059C230.785 38.7363 232.211 37.3594 233.402 35.875C234.594 34.3711 235.268 33.1211 235.424 32.125C235.463 31.832 235.561 31.5195 235.717 31.1875C235.971 30.6016 236.312 30.3086 236.742 30.3086C236.879 30.3086 237.025 30.3477 237.182 30.4258C237.572 30.6797 237.768 31.0508 237.768 31.5391C237.768 31.5977 237.758 31.7832 237.738 32.0957C237.719 32.3887 237.475 32.7305 237.006 33.1211C236.791 33.2578 236.469 33.6387 236.039 34.2637C234.516 36.5488 232.709 38.5215 230.619 40.1816C228.822 41.627 227.436 42.3496 226.459 42.3496ZM221.449 32.1836C221.645 32.1836 221.889 31.9297 222.182 31.4219C222.357 31.0312 222.445 30.7285 222.445 30.5137C222.445 30.3574 222.406 30.2793 222.328 30.2793C222.191 30.2793 222.035 30.3965 221.859 30.6309C221.684 30.8652 221.547 31.1094 221.449 31.3633C221.371 31.5977 221.332 31.793 221.332 31.9492C221.332 32.1055 221.371 32.1836 221.449 32.1836ZM242.396 39.8594C242.025 39.8594 241.742 39.8105 241.547 39.7129C240.727 39.2832 240.316 38.4531 240.316 37.2227C240.316 36.3242 240.512 35.1621 240.902 33.7363V33.707C240.902 33.6875 240.893 33.6777 240.873 33.6777C240.834 33.6777 240.453 34 239.73 34.6445C238.07 36.1289 236.801 36.8711 235.922 36.8711C235.414 36.8711 235.043 36.6074 234.809 36.0801C234.711 35.8066 234.662 35.5137 234.662 35.2012C234.662 34.3613 235.062 33.4043 235.863 32.3301C237.348 30.6309 238.891 29.7812 240.492 29.7812C241.508 29.7812 242.27 30.1621 242.777 30.9238C242.855 31.041 242.895 31.2168 242.895 31.4512C242.895 32.1152 242.777 32.5938 242.543 32.8867C242.309 33.1797 242.094 33.6387 241.898 34.2637C241.508 35.5332 241.312 36.5586 241.312 37.3398C241.312 37.8672 241.449 38.2871 241.723 38.5996C241.918 38.834 242.152 38.9512 242.426 38.9512C243.344 38.9512 244.994 38.0137 247.377 36.1387C248.256 35.4355 248.871 34.8594 249.223 34.4102C249.574 33.9414 249.75 33.4824 249.75 33.0332C249.75 32.5645 249.867 32.2422 250.102 32.0664C250.336 31.8906 250.561 31.8027 250.775 31.8027C251.146 31.8027 251.41 31.9883 251.566 32.3594C251.645 32.5938 251.684 32.8184 251.684 33.0332C251.684 33.6777 251.488 34.1172 251.098 34.3516C250.922 34.4297 250.453 34.8008 249.691 35.4648C248.48 36.5195 247.299 37.4473 246.146 38.248C244.994 39.0293 244.115 39.5078 243.51 39.6836C243.158 39.8008 242.787 39.8594 242.396 39.8594ZM235.951 35.7578C236.381 35.7578 237.172 35.25 238.324 34.2344C239.32 33.3555 239.906 32.7207 240.082 32.3301C240.141 32.1934 240.17 31.998 240.17 31.7441C240.17 31.3926 239.994 31.2168 239.643 31.2168C239.311 31.2168 238.871 31.3926 238.324 31.7441C237.211 32.4668 236.439 33.3262 236.01 34.3223C235.795 34.8105 235.688 35.1816 235.688 35.4355C235.688 35.6504 235.775 35.7578 235.951 35.7578ZM247.67 42.1152C247.396 41.8613 247.514 41.0508 248.021 39.6836C248.393 38.6094 248.695 37.7402 248.93 37.0762C249.164 36.4121 249.34 35.9043 249.457 35.5527C249.555 35.2012 249.613 34.9473 249.633 34.791C249.652 34.6348 249.643 34.5273 249.604 34.4688C249.428 33.8828 249.496 33.3262 249.809 32.7988C250.121 32.252 250.531 31.9785 251.039 31.9785C251.508 31.9785 251.83 32.1738 252.006 32.5645C252.201 32.9355 252.26 33.3652 252.182 33.8535C252.104 34.3418 251.889 34.7812 251.537 35.1719C251.42 35.3086 251.312 35.4355 251.215 35.5527C251.137 35.6699 251.098 35.748 251.098 35.7871C251.098 35.8066 251.02 35.9824 250.863 36.3145C250.727 36.6465 250.551 37.0469 250.336 37.5156C250.141 37.9648 249.975 38.3457 249.838 38.6582C249.701 38.9707 249.633 39.1367 249.633 39.1562C249.652 39.1562 249.75 39.0684 249.926 38.8926C250.102 38.6973 250.316 38.4531 250.57 38.1602C251.117 37.5547 251.811 36.8418 252.65 36.0215C253.51 35.2012 254.291 34.5078 254.994 33.9414C255.6 33.4531 256.166 33.082 256.693 32.8281C257.221 32.5547 257.631 32.4375 257.924 32.4766C258.686 32.5938 259.213 33.3945 259.506 34.8789C259.857 36.7539 260.365 37.8184 261.029 38.0723C261.693 38.3066 262.836 37.9844 264.457 37.1055C265.824 36.3828 267.025 35.6211 268.061 34.8203C269.115 34.0195 269.828 33.2969 270.199 32.6523C270.59 31.8711 271.088 31.4805 271.693 31.4805C272.104 31.4805 272.396 31.6465 272.572 31.9785C272.748 32.3105 272.797 32.6719 272.719 33.0625C272.641 33.4531 272.416 33.7656 272.045 34C271.947 34.0586 271.781 34.166 271.547 34.3223C271.312 34.459 271.078 34.6055 270.844 34.7617C265.941 37.7891 262.787 39.3027 261.381 39.3027C260.736 39.3027 260.15 39.0586 259.623 38.5703C259.115 38.1016 258.676 37.0762 258.305 35.4941C258.031 34.3027 257.787 33.707 257.572 33.707C257.455 33.707 257.143 33.8828 256.635 34.2344C256.146 34.5664 255.639 34.9375 255.111 35.3477C254.408 35.9336 253.607 36.6855 252.709 37.6035C251.83 38.502 250.99 39.4199 250.189 40.3574C249.799 40.8457 249.457 41.2656 249.164 41.6172C248.852 41.9492 248.656 42.1348 248.578 42.1738C248.422 42.2715 248.256 42.3105 248.08 42.291C247.885 42.2715 247.748 42.2129 247.67 42.1152Z" fill="white"/>
</svg>
