<svg width="16" height="17" viewBox="0 0 16 17" fill="none" xmlns="http://www.w3.org/2000/svg">
<g clip-path="url(#clip0_550_302)">
<path d="M1.75 0.5H14.25C15.216 0.5 16 1.284 16 2.25V14.75C16 15.2141 15.8156 15.6592 15.4874 15.9874C15.1592 16.3156 14.7141 16.5 14.25 16.5H1.75C1.28587 16.5 0.840752 16.3156 0.512563 15.9874C0.184374 15.6592 0 15.2141 0 14.75L0 2.25C0 1.284 0.784 0.5 1.75 0.5ZM1.5 2.25V14.75C1.5 14.888 1.612 15 1.75 15H14.25C14.3163 15 14.3799 14.9737 14.4268 14.9268C14.4737 14.8799 14.5 14.8163 14.5 14.75V2.25C14.5 2.1837 14.4737 2.12011 14.4268 2.07322C14.3799 2.02634 14.3163 2 14.25 2H1.75C1.6837 2 1.62011 2.02634 1.57322 2.07322C1.52634 2.12011 1.5 2.1837 1.5 2.25ZM11.75 3.5C11.9489 3.5 12.1397 3.57902 12.2803 3.71967C12.421 3.86032 12.5 4.05109 12.5 4.25V11.75C12.5 11.9489 12.421 12.1397 12.2803 12.2803C12.1397 12.421 11.9489 12.5 11.75 12.5C11.5511 12.5 11.3603 12.421 11.2197 12.2803C11.079 12.1397 11 11.9489 11 11.75V4.25C11 4.05109 11.079 3.86032 11.2197 3.71967C11.3603 3.57902 11.5511 3.5 11.75 3.5ZM3.5 4.25C3.5 4.05109 3.57902 3.86032 3.71967 3.71967C3.86032 3.57902 4.05109 3.5 4.25 3.5C4.44891 3.5 4.63968 3.57902 4.78033 3.71967C4.92098 3.86032 5 4.05109 5 4.25V9.75C5 9.94891 4.92098 10.1397 4.78033 10.2803C4.63968 10.421 4.44891 10.5 4.25 10.5C4.05109 10.5 3.86032 10.421 3.71967 10.2803C3.57902 10.1397 3.5 9.94891 3.5 9.75V4.25ZM8 3.5C8.19891 3.5 8.38968 3.57902 8.53033 3.71967C8.67098 3.86032 8.75 4.05109 8.75 4.25V7.75C8.75 7.94891 8.67098 8.13968 8.53033 8.28033C8.38968 8.42098 8.19891 8.5 8 8.5C7.80109 8.5 7.61032 8.42098 7.46967 8.28033C7.32902 8.13968 7.25 7.94891 7.25 7.75V4.25C7.25 4.05109 7.32902 3.86032 7.46967 3.71967C7.61032 3.57902 7.80109 3.5 8 3.5Z" fill="white"/>
</g>
<defs>
<clipPath id="clip0_550_302">
<rect width="16" height="16" fill="white" transform="translate(0 0.5)"/>
</clipPath>
</defs>
</svg>
