<svg width="24" height="25" viewBox="0 0 24 25" fill="none" xmlns="http://www.w3.org/2000/svg">
<path d="M11.4439 22.4685C10.5865 21.7804 2.62416 14.0373 2.53516 13.9526C2.1835 13.6009 1.96208 13.2363 1.9013 12.902C1.83835 12.5546 1.94472 12.2507 2.22691 11.9685C2.48958 11.7059 2.81085 11.5669 3.156 11.5669C3.57713 11.5669 4.00911 11.7667 4.36945 12.1292L7.97942 15.598C8.04237 15.6588 8.12486 15.6892 8.20518 15.6892C8.28984 15.6892 8.37232 15.6566 8.43528 15.5937C8.56118 15.4678 8.56118 15.2637 8.43745 15.1378L2.67409 9.18562C2.09667 8.6082 1.82532 7.72471 2.51128 7.03875C2.77395 6.77609 3.09522 6.63716 3.44037 6.63716C3.86149 6.63716 4.29347 6.83687 4.65382 7.19938L10.5496 12.9475C10.6125 13.0083 10.695 13.0409 10.7775 13.0409C10.86 13.0409 10.9447 13.0083 11.0076 12.9454C11.1335 12.8195 11.1357 12.6154 11.0098 12.4873L3.92879 5.22834C3.601 4.90055 3.40346 4.50765 3.36873 4.12559C3.33617 3.73703 3.47293 3.37668 3.76598 3.08363C4.02864 2.82097 4.34991 2.68204 4.69506 2.68204C5.11619 2.68204 5.54817 2.88175 5.90852 3.24209L13.1306 10.284C13.1936 10.3448 13.2761 10.3774 13.3586 10.3774C13.441 10.3774 13.5257 10.3448 13.5887 10.2819C13.7146 10.156 13.7167 9.9519 13.5908 9.82383L8.34628 4.43384C8.01632 4.10388 7.81878 3.71315 7.78622 3.3311C7.75366 2.94253 7.89042 2.58218 8.18347 2.28913C8.44613 2.02647 8.7674 1.88754 9.11255 1.88754C9.53368 1.88754 9.96566 2.08725 10.326 2.44977C12.2493 4.33833 17.2703 9.2768 17.4396 9.45914C18.0843 9.90414 18.2145 9.23121 18.2471 8.79489C18.284 8.28693 17.7022 6.51342 18.0409 4.91792C18.6096 2.79709 20.2485 3.14441 20.2854 3.16178C21.1841 3.5829 21.0126 4.21242 20.6935 5.47797L20.661 5.72761C20.3267 7.38173 22.6233 12.2833 22.7927 12.6502C23.6935 14.6212 24.7311 18.6176 21.2948 22.0539C17.5286 25.8201 12.8658 23.8903 11.4439 22.4685Z" fill="url(#paint0_radial_72_52)"/>
<path d="M16.2763 24.5828C13.9666 24.5828 12.0021 23.4779 11.2271 22.7116C10.5303 22.1429 6.13235 17.8969 2.55061 14.4215C2.40517 14.2804 2.32051 14.2001 2.31182 14.1892C1.90589 13.7833 1.65408 13.36 1.58245 12.9606C1.49996 12.5069 1.64106 12.0966 1.99706 11.7385C2.32268 11.4128 2.7221 11.2414 3.15625 11.2414C3.66638 11.2414 4.17867 11.4758 4.5998 11.8991L8.20543 15.3636L2.4399 9.4114C1.77565 8.74715 1.44135 7.64658 2.28143 6.80867C2.60705 6.48305 3.00647 6.31156 3.44062 6.31156C3.95074 6.31156 4.46304 6.54601 4.88417 6.9693L10.7756 12.7131L3.69677 5.45629C3.31905 5.07858 3.08678 4.6162 3.04554 4.156C3.00429 3.66541 3.17361 3.21607 3.53613 2.85355C3.86174 2.52794 4.26116 2.35645 4.69531 2.35645C5.20327 2.35645 5.71557 2.58872 6.13887 3.01202L13.3588 10.0518L8.11425 4.66179C7.73437 4.28191 7.5021 3.81954 7.46303 3.35934C7.42178 2.87092 7.5911 2.42157 7.95362 2.05905C8.27923 1.73344 8.67865 1.56195 9.1128 1.56195C9.62293 1.56195 10.1352 1.79639 10.5564 2.21969L12.1215 3.75441C14.9109 6.48957 17.2423 8.77971 17.4919 9.03586C17.6135 9.13355 17.7719 9.17045 17.8392 9.13789C17.8827 9.11618 17.9304 9.01633 17.9217 8.80576C17.9087 8.43673 17.8566 7.9787 17.8023 7.49463C17.6938 6.52213 17.5809 5.5149 17.722 4.85065C18.0303 3.69797 18.6359 3.20955 19.0874 2.99899C19.7083 2.71245 20.3096 2.81231 20.4246 2.86657C21.5534 3.39624 21.3298 4.28191 21.0216 5.51056L21.0151 5.54095L20.9803 5.79492C20.7546 6.90635 21.9137 9.97797 23.0729 12.4809L23.0903 12.5156C23.8653 14.2088 25.2611 18.5525 21.5274 22.2862C19.8103 23.9989 17.9521 24.5828 16.2763 24.5828ZM3.15625 11.8926C2.9001 11.8926 2.65697 11.9989 2.45726 12.1987C2.25104 12.4049 2.17941 12.6046 2.22282 12.8434C2.27058 13.106 2.46378 13.4186 2.76551 13.7225C2.76768 13.7247 2.85451 13.8094 3.00429 13.9526C8.08821 18.8868 11.1577 21.8194 11.6482 22.2145L11.6743 22.2384C12.8726 23.4367 17.3248 25.564 21.065 21.8238C24.51 18.3788 23.214 14.3564 22.4955 12.7848L22.4803 12.7522C21.7336 11.1415 20.036 7.23414 20.3378 5.67553L20.3877 5.34992C20.722 4.02142 20.7415 3.74356 20.175 3.47005C20.0078 3.43965 18.8096 3.29421 18.3515 5.0026C18.2365 5.54746 18.3472 6.54384 18.4449 7.42299C18.5013 7.92009 18.5534 8.39115 18.5664 8.78406C18.5882 9.40272 18.2951 9.63933 18.1171 9.72616C17.7546 9.902 17.3226 9.75221 17.0534 9.52645L17.0252 9.50041C16.8928 9.35714 13.743 6.26815 11.6591 4.2233L10.0918 2.68423C9.55781 2.14805 8.86968 2.05905 8.40731 2.52142C8.18155 2.74718 8.07952 3.01202 8.1034 3.30507C8.12945 3.61114 8.29443 3.93025 8.57011 4.20593L13.8255 9.59592C14.073 9.84773 14.073 10.2602 13.8212 10.512C13.5802 10.7529 13.1547 10.7573 12.9073 10.5185L5.68084 3.47439C5.14683 2.94038 4.45653 2.85138 3.99633 3.31375C3.77057 3.53951 3.66855 3.80434 3.69242 4.09739C3.72064 4.40347 3.88562 4.72474 4.15914 4.99609L11.2423 12.2594C11.492 12.5112 11.4898 12.9237 11.238 13.1755C10.997 13.4164 10.5716 13.4208 10.3241 13.182L4.42614 7.43167C3.89213 6.89333 3.20183 6.8065 2.74163 7.26887C2.17941 7.83109 2.47897 8.52791 2.90444 8.95554L8.67214 14.9121C8.9196 15.1639 8.91743 15.5742 8.66563 15.8238C8.4225 16.0669 8.00137 16.0691 7.75391 15.8325L4.14394 12.3636C3.84004 12.0576 3.49054 11.8926 3.15625 11.8926Z" fill="#EDA600"/>
<path d="M16.9209 9.2486C15.7291 11.682 15.8832 15.0879 17.6719 17.8209C17.8738 18.1899 18.219 18.0098 18.0431 17.6299C15.8832 13.0083 18.1473 9.67841 18.1473 9.67841L16.9209 9.2486Z" fill="#EDA600"/>
<path d="M12.2344 0.122733C12.8899 -0.0487565 13.5889 -0.0335611 14.2684 0.124904C14.9435 0.287711 15.6186 0.63069 16.12 1.19075C16.6106 1.74646 16.9124 2.42156 17.0144 3.12923C17.1099 3.83038 17.0209 4.55325 16.6888 5.15238C16.6497 4.47944 16.5325 3.86078 16.3349 3.28987C16.2329 3.0055 16.1135 2.73415 15.9681 2.478C15.8248 2.22403 15.6555 1.97222 15.4753 1.766C15.1085 1.3427 14.6114 1.01274 14.0535 0.756594C13.4934 0.491762 12.8834 0.296394 12.2344 0.122733Z" fill="#B0BEC5"/>
<path d="M12.4146 2.18062C12.7771 1.95052 13.2308 1.90276 13.6584 1.97874C14.0904 2.05471 14.5028 2.26962 14.8284 2.56701C15.1519 2.86875 15.382 3.24863 15.5252 3.64371C15.5947 3.84125 15.6294 4.04964 15.662 4.25152C15.6729 4.45991 15.6729 4.6683 15.6403 4.8767C15.4905 4.71823 15.3733 4.55977 15.2626 4.40564C15.1345 4.2602 15.0347 4.10608 14.9196 3.96498C14.6938 3.68495 14.4746 3.43097 14.238 3.20521C13.9949 2.98597 13.7387 2.79277 13.4413 2.62562C13.1461 2.45413 12.814 2.31086 12.4146 2.18062Z" fill="#90A4AE"/>
<path d="M0.00414897 15.9345C0.310226 16.5336 0.629327 17.0894 1.00053 17.5799C1.36955 18.0705 1.79285 18.4873 2.28561 18.7587C2.5244 18.8911 2.80877 19.0061 3.08662 19.093C3.36665 19.182 3.65753 19.2427 3.9571 19.284C4.55622 19.3578 5.18574 19.3448 5.85217 19.2427C5.33553 19.6921 4.64523 19.9309 3.9419 19.983C3.22989 20.0307 2.50703 19.8766 1.86015 19.5119C1.20892 19.1407 0.731352 18.5503 0.431788 17.9229C0.132224 17.2912 -0.0284124 16.6118 0.00414897 15.9345Z" fill="#B0BEC5"/>
<path d="M2.05549 15.6805C2.26605 16.0452 2.47444 16.3383 2.70237 16.5944C2.92813 16.8506 3.17126 17.0611 3.43609 17.2522C3.70526 17.4367 4.00049 17.5995 4.32176 17.7623C4.48239 17.8448 4.65388 17.9099 4.8232 18.0054C4.99903 18.0814 5.17704 18.1617 5.36372 18.2768C5.16618 18.3506 4.9643 18.394 4.75808 18.4265C4.55403 18.4352 4.34347 18.4461 4.13507 18.4179C3.71829 18.3614 3.3015 18.216 2.93682 17.962C2.57864 17.7037 2.28125 17.3455 2.11844 16.9396C1.95346 16.5358 1.90571 16.0843 2.05549 15.6805Z" fill="#90A4AE"/>
<defs>
<radialGradient id="paint0_radial_72_52" cx="0" cy="0" r="1" gradientUnits="userSpaceOnUse" gradientTransform="translate(8.08279 7.39472) rotate(-45) scale(19.7555)">
<stop offset="0.3533" stop-color="#FFCA28"/>
<stop offset="0.8723" stop-color="#FFB300"/>
</radialGradient>
</defs>
</svg>
