<svg width="16" height="17" viewBox="0 0 16 17" fill="none" xmlns="http://www.w3.org/2000/svg">
<path d="M10.9066 9.83334C10.96 9.39334 11 8.95334 11 8.50001C11 8.04668 10.96 7.60668 10.9066 7.16668H13.16C13.2666 7.59334 13.3333 8.04001 13.3333 8.50001C13.3333 8.96001 13.2666 9.40668 13.16 9.83334M9.72665 13.54C10.1266 12.8 10.4333 12 10.6466 11.1667H12.6133C11.9733 12.2667 10.9533 13.12 9.72665 13.54ZM9.55998 9.83334H6.43998C6.37331 9.39334 6.33331 8.95334 6.33331 8.50001C6.33331 8.04668 6.37331 7.60001 6.43998 7.16668H9.55998C9.61998 7.60001 9.66665 8.04668 9.66665 8.50001C9.66665 8.95334 9.61998 9.39334 9.55998 9.83334ZM7.99998 13.8067C7.44665 13.0067 6.99998 12.12 6.72665 11.1667H9.27331C8.99998 12.12 8.55331 13.0067 7.99998 13.8067ZM5.33331 5.83334H3.38665C4.01998 4.72668 5.04665 3.87334 6.26665 3.46001C5.86665 4.20001 5.56665 5.00001 5.33331 5.83334ZM3.38665 11.1667H5.33331C5.56665 12 5.86665 12.8 6.26665 13.54C5.04665 13.12 4.01998 12.2667 3.38665 11.1667ZM2.83998 9.83334C2.73331 9.40668 2.66665 8.96001 2.66665 8.50001C2.66665 8.04001 2.73331 7.59334 2.83998 7.16668H5.09331C5.03998 7.60668 4.99998 8.04668 4.99998 8.50001C4.99998 8.95334 5.03998 9.39334 5.09331 9.83334M7.99998 3.18668C8.55331 3.98668 8.99998 4.88001 9.27331 5.83334H6.72665C6.99998 4.88001 7.44665 3.98668 7.99998 3.18668ZM12.6133 5.83334H10.6466C10.4333 5.00001 10.1266 4.20001 9.72665 3.46001C10.9533 3.88001 11.9733 4.72668 12.6133 5.83334ZM7.99998 1.83334C4.31331 1.83334 1.33331 4.83334 1.33331 8.50001C1.33331 10.2681 2.03569 11.9638 3.28593 13.2141C3.90499 13.8331 4.63992 14.3242 5.44876 14.6592C6.25759 14.9942 7.1245 15.1667 7.99998 15.1667C9.76809 15.1667 11.4638 14.4643 12.714 13.2141C13.9643 11.9638 14.6666 10.2681 14.6666 8.50001C14.6666 7.62453 14.4942 6.75762 14.1592 5.94879C13.8241 5.13995 13.3331 4.40502 12.714 3.78596C12.095 3.16691 11.36 2.67584 10.5512 2.34081C9.74236 2.00578 8.87546 1.83334 7.99998 1.83334Z" fill="white"/>
</svg>
