<svg width="41" height="40" viewBox="0 0 41 40" fill="none" xmlns="http://www.w3.org/2000/svg">
<path d="M11.741 12.7495H1.71559C1.38589 12.7495 1.12012 12.4837 1.12012 12.154V9.30787C1.12348 8.97818 1.38926 8.7124 1.71559 8.7124H11.741C12.0707 8.7124 12.3365 8.97818 12.3365 9.30787V12.154C12.3365 12.4837 12.0707 12.7495 11.741 12.7495Z" fill="url(#paint0_linear_138_899)"/>
<path d="M0.00341797 15.4409H40.3709V38.3178H0.00341797V15.4409Z" fill="url(#paint1_linear_138_899)"/>
<path d="M39.0252 40H1.3457C0.602199 40 0 39.3978 0 38.6543V37.3086H40.3675V38.6543C40.3675 39.3978 39.7653 40 39.0252 40Z" fill="#BDBDBD"/>
<path d="M39.0252 7.70312H14.8027C14.0592 7.70312 13.457 8.30532 13.457 9.04882V10.7309C13.457 11.101 13.1542 11.4038 12.7841 11.4038H1.3457C0.602199 11.4038 0 12.006 0 12.7495V16.7866H40.3675V9.04882C40.3675 8.30532 39.7653 7.70312 39.0252 7.70312Z" fill="#BDBDBD"/>
<path opacity="0.2" d="M22.3285 11.4038C22.6313 11.4038 22.8769 11.6494 22.8769 11.9522V13.5435C22.8769 13.8462 22.6313 14.0918 22.3285 14.0918H16.6968C16.394 14.0918 16.1484 13.8462 16.1484 13.5435V11.9522C16.1484 11.6494 16.394 11.4038 16.6968 11.4038H22.3285ZM22.3285 10.731H16.6968C16.024 10.731 15.4756 11.2793 15.4756 11.9522V13.5435C15.4756 14.2163 16.024 14.7647 16.6968 14.7647H22.3252C22.998 14.7647 23.5464 14.2163 23.5464 13.5435V11.9522C23.5498 11.2793 23.0014 10.731 22.3285 10.731Z" fill="#424242"/>
<path opacity="0.2" d="M36.7377 10.4619C37.0707 10.4619 37.3432 10.7344 37.3432 11.0675V13.4897C37.3432 13.8228 37.0707 14.0953 36.7377 14.0953H31.8932C31.5601 14.0953 31.2876 13.8228 31.2876 13.4897V11.0675C31.2876 10.7344 31.5601 10.4619 31.8932 10.4619H36.7377ZM36.7377 9.78906H31.8932C31.1867 9.78906 30.6147 10.361 30.6147 11.0675V13.4897C30.6147 14.1962 31.1867 14.7681 31.8932 14.7681H36.7377C37.4442 14.7681 38.0161 14.1962 38.0161 13.4897V11.0675C38.0161 10.361 37.4408 9.78906 36.7377 9.78906Z" fill="#424242"/>
<path d="M36.7377 14.0953H31.8932C31.5601 14.0953 31.2876 13.8228 31.2876 13.4897V11.0675C31.2876 10.7344 31.5601 10.4619 31.8932 10.4619H36.7377C37.0707 10.4619 37.3432 10.7344 37.3432 11.0675V13.4897C37.3432 13.8228 37.0707 14.0953 36.7377 14.0953Z" fill="#424242"/>
<path d="M22.3285 14.0953H16.6968C16.394 14.0953 16.1484 13.8497 16.1484 13.5469V11.9556C16.1484 11.6528 16.394 11.4072 16.6968 11.4072H22.3252C22.628 11.4072 22.8736 11.6528 22.8736 11.9556V13.5469C22.8769 13.8497 22.6313 14.0953 22.3285 14.0953Z" fill="#E0E0E0"/>
<path d="M26.2412 14.0952C25.8711 14.0952 25.5684 13.7924 25.5684 13.4224V12.0767C25.5684 11.7066 25.8711 11.4038 26.2412 11.4038C26.6113 11.4038 26.9141 11.7066 26.9141 12.0767V13.4224C26.9141 13.7924 26.6113 14.0952 26.2412 14.0952Z" fill="#E0E0E0"/>
<path d="M26.2412 12.4131C26.0562 12.4131 25.9048 12.2617 25.9048 12.0767C25.9048 11.8916 26.0562 11.7402 26.2412 11.7402C26.4262 11.7402 26.5776 11.8916 26.5776 12.0767C26.5776 12.2617 26.4262 12.4131 26.2412 12.4131Z" fill="#757575"/>
<path d="M26.2412 13.7588C26.0562 13.7588 25.9048 13.6074 25.9048 13.4224C25.9048 13.2373 26.0562 13.0859 26.2412 13.0859C26.4262 13.0859 26.5776 13.2373 26.5776 13.4224C26.5776 13.6074 26.4262 13.7588 26.2412 13.7588Z" fill="#FAFAFA"/>
<path d="M16.6528 11.4038H16.9893V14.0952H16.6528V11.4038Z" fill="#F5F5F5"/>
<path d="M17.3394 11.4038H17.6758V14.0952H17.3394V11.4038Z" fill="#F5F5F5"/>
<path d="M18.0259 11.4038H18.3623V14.0952H18.0259V11.4038Z" fill="#F5F5F5"/>
<path d="M18.7119 11.4038H19.0483V14.0952H18.7119V11.4038Z" fill="#F5F5F5"/>
<path d="M19.3984 11.4038H19.7349V14.0952H19.3984V11.4038Z" fill="#F5F5F5"/>
<path d="M20.0845 11.4038H20.4209V14.0952H20.0845V11.4038Z" fill="#F5F5F5"/>
<path d="M20.7676 11.4038H21.104V14.0952H20.7676V11.4038Z" fill="#F5F5F5"/>
<path d="M21.4536 11.4038H21.79V14.0952H21.4536V11.4038Z" fill="#F5F5F5"/>
<path d="M22.1401 11.4038H22.4766V14.0952H22.1401V11.4038Z" fill="#F5F5F5"/>
<path opacity="0.2" d="M13.625 18.1323C14.1835 18.1323 14.6343 18.5831 14.6343 19.1416C14.6343 19.7001 14.1835 20.1509 13.625 20.1509C13.0665 20.1509 12.6157 19.7001 12.6157 19.1416C12.6157 18.5831 13.0665 18.1323 13.625 18.1323ZM13.625 17.4595C12.6965 17.4595 11.9429 18.2131 11.9429 19.1416C11.9429 20.0701 12.6965 20.8237 13.625 20.8237C14.5535 20.8237 15.3071 20.0701 15.3071 19.1416C15.3071 18.2131 14.5535 17.4595 13.625 17.4595Z" fill="#424242"/>
<path opacity="0.2" d="M26.2412 11.4038C26.6113 11.4038 26.9141 11.7066 26.9141 12.0767V13.4223C26.9141 13.7924 26.6113 14.0952 26.2412 14.0952C25.8711 14.0952 25.5684 13.7924 25.5684 13.4223V12.0767C25.5684 11.7066 25.8711 11.4038 26.2412 11.4038ZM26.2412 10.731C25.4977 10.731 24.8955 11.3332 24.8955 12.0767V13.4223C24.8955 14.1658 25.4977 14.768 26.2412 14.768C26.9847 14.768 27.5869 14.1658 27.5869 13.4223V12.0767C27.5869 11.3332 26.9813 10.731 26.2412 10.731Z" fill="#424242"/>
<path d="M13.625 20.1509C14.1824 20.1509 14.6343 19.699 14.6343 19.1416C14.6343 18.5842 14.1824 18.1323 13.625 18.1323C13.0676 18.1323 12.6157 18.5842 12.6157 19.1416C12.6157 19.699 13.0676 20.1509 13.625 20.1509Z" fill="#E0E0E0"/>
<path opacity="0.2" d="M9.08348 15.4409C9.45355 15.4409 9.75633 15.7437 9.75633 16.1138V17.6008C10.3484 17.8598 10.7656 18.4519 10.7656 19.1416C10.7656 20.0701 10.012 20.8237 9.08348 20.8237C8.15495 20.8237 7.40136 20.0701 7.40136 19.1416C7.40136 18.4519 7.81853 17.8598 8.41064 17.6008V16.1138C8.41064 15.7437 8.71342 15.4409 9.08348 15.4409ZM9.08348 14.7681C8.33999 14.7681 7.73779 15.3703 7.73779 16.1138V17.2105C7.11204 17.6445 6.72852 18.3644 6.72852 19.1416C6.72852 20.4402 7.78489 21.4965 9.08348 21.4965C10.3821 21.4965 11.4385 20.4402 11.4385 19.1416C11.4385 18.3644 11.0549 17.6445 10.4292 17.2105V16.1138C10.4292 15.3703 9.82698 14.7681 9.08348 14.7681Z" fill="#424242"/>
<path d="M24.8955 37.6449C30.8411 37.6449 35.661 32.825 35.661 26.8793C35.661 20.9337 30.8411 16.1138 24.8955 16.1138C18.9498 16.1138 14.1299 20.9337 14.1299 26.8793C14.1299 32.825 18.9498 37.6449 24.8955 37.6449Z" fill="#8D8C8C"/>
<path d="M24.8955 35.6264C29.7263 35.6264 33.6425 31.7102 33.6425 26.8793C33.6425 22.0485 29.7263 18.1323 24.8955 18.1323C20.0646 18.1323 16.1484 22.0485 16.1484 26.8793C16.1484 31.7102 20.0646 35.6264 24.8955 35.6264Z" fill="url(#paint2_linear_138_899)"/>
<path d="M24.8955 34.6171C29.1689 34.6171 32.6332 31.1528 32.6332 26.8794C32.6332 22.6059 29.1689 19.1416 24.8955 19.1416C20.622 19.1416 17.1577 22.6059 17.1577 26.8794C17.1577 31.1528 20.622 34.6171 24.8955 34.6171Z" fill="url(#paint3_radial_138_899)"/>
<path d="M24.8955 30.2436C26.7535 30.2436 28.2597 28.7374 28.2597 26.8794C28.2597 25.0214 26.7535 23.5151 24.8955 23.5151C23.0375 23.5151 21.5312 25.0214 21.5312 26.8794C21.5312 28.7374 23.0375 30.2436 24.8955 30.2436Z" fill="url(#paint4_radial_138_899)"/>
<path opacity="0.2" d="M24.8955 23.5151C26.7525 23.5151 28.2597 25.0223 28.2597 26.8794C28.2597 28.7364 26.7525 30.2436 24.8955 30.2436C23.0384 30.2436 21.5312 28.7364 21.5312 26.8794C21.5312 25.0223 23.0384 23.5151 24.8955 23.5151ZM24.8955 22.5059C22.4833 22.5059 20.522 24.4672 20.522 26.8794C20.522 29.2915 22.4833 31.2529 24.8955 31.2529C27.3076 31.2529 29.269 29.2915 29.269 26.8794C29.269 24.4672 27.3076 22.5059 24.8955 22.5059Z" fill="#EEEEEE"/>
<path d="M9.09326 19.478C8.72319 19.478 8.42041 19.1752 8.42041 18.8052V16.1138C8.42041 15.7437 8.72319 15.4409 9.09326 15.4409C9.46332 15.4409 9.76611 15.7437 9.76611 16.1138V18.8052C9.76611 19.1752 9.46332 19.478 9.09326 19.478Z" fill="url(#paint5_linear_138_899)"/>
<path d="M9.09374 20.8237C10.0228 20.8237 10.7759 20.0706 10.7759 19.1416C10.7759 18.2126 10.0228 17.4595 9.09374 17.4595C8.16473 17.4595 7.41162 18.2126 7.41162 19.1416C7.41162 20.0706 8.16473 20.8237 9.09374 20.8237Z" fill="#E0E0E0"/>
<path d="M9.0935 20.3193C8.4442 20.3193 7.91602 19.7911 7.91602 19.1418C7.91602 18.4925 8.4442 17.9644 9.0935 17.9644C9.7428 17.9644 10.271 18.4925 10.271 19.1418C10.271 19.7911 9.7428 20.3193 9.0935 20.3193Z" fill="#757575"/>
<path d="M9.09325 18.1323C9.65172 18.1323 10.1025 18.5831 10.1025 19.1416C10.1025 19.7001 9.65172 20.1509 9.09325 20.1509C8.53479 20.1509 8.08398 19.7001 8.08398 19.1416C8.08398 18.5831 8.53479 18.1323 9.09325 18.1323ZM9.09325 17.7959C8.34976 17.7959 7.74756 18.3981 7.74756 19.1416C7.74756 19.8851 8.34976 20.4873 9.09325 20.4873C9.83675 20.4873 10.439 19.8851 10.439 19.1416C10.439 18.3981 9.83675 17.7959 9.09325 17.7959Z" fill="#9E9E9E"/>
<path d="M9.10677 17.2007H9.08322C8.90492 17.2007 8.76025 17.0561 8.76025 16.8778V16.1814C8.76025 16.0031 8.90492 15.8584 9.08322 15.8584H9.10677C9.28508 15.8584 9.42974 16.0031 9.42974 16.1814V16.8778C9.42974 17.0561 9.28508 17.2007 9.10677 17.2007Z" fill="#F44336"/>
<path opacity="0.2" d="M24.8955 24.188C26.3791 24.188 27.5869 25.3957 27.5869 26.8794C27.5869 28.363 26.3791 29.5708 24.8955 29.5708C23.4119 29.5708 22.2041 28.363 22.2041 26.8794C22.2041 25.3957 23.4119 24.188 24.8955 24.188ZM24.8955 23.5151C23.0384 23.5151 21.5312 25.0223 21.5312 26.8794C21.5312 28.7364 23.0384 30.2436 24.8955 30.2436C26.7526 30.2436 28.2597 28.7364 28.2597 26.8794C28.2597 25.0223 26.7526 23.5151 24.8955 23.5151Z" fill="#424242"/>
<path d="M24.1047 0.0698297L22.5672 4.95807C22.5437 5.03208 22.4461 5.05227 22.3956 4.99508L19.2837 1.41889C19.2131 1.33815 19.0818 1.4088 19.1088 1.50972L19.9936 4.88406C20.0137 4.96816 19.933 5.03881 19.8556 5.00181C18.6748 4.43325 13.5477 2.42816 13.6183 2.69057C13.689 2.95298 16.9422 6.06491 17.8068 6.88578C17.8674 6.94297 17.8337 7.04726 17.7496 7.05736L12.7234 7.76048C12.6158 7.77394 12.6057 7.92533 12.7066 7.95561L18.1029 9.60745C18.187 9.63437 18.2038 9.74538 18.1264 9.78912C17.0969 10.3846 12.4207 13.0894 12.6091 13.0894C12.8042 13.0894 18.8531 12.8405 19.7917 12.8035C19.8556 12.8001 19.9027 12.8573 19.896 12.9212L19.0617 18.1863C19.0448 18.2906 19.1794 18.3477 19.2433 18.2636L22.9507 13.3216C22.9911 13.2644 23.0752 13.2677 23.1156 13.3249L25.5782 17.0222C25.6287 17.0996 25.7498 17.0727 25.7632 16.9785L26.2443 13.3889C26.2544 13.3115 26.3486 13.2745 26.4092 13.3249L29.9887 16.3393C30.0594 16.3999 30.167 16.3393 30.1536 16.2485L29.7869 13.3788C29.7768 13.3014 29.8541 13.2408 29.9282 13.2745L36.3539 16.1374C36.4615 16.1845 36.549 16.0365 36.4548 15.9659L31.6473 11.3434C31.5867 11.2963 31.6002 11.1987 31.6708 11.1718L36.2126 9.28448C36.3034 9.24748 36.2933 9.11627 36.1991 9.09272L31.2873 7.86477C31.2099 7.84459 31.1864 7.75039 31.2402 7.69656L34.85 4.08673C34.9241 4.01272 34.8467 3.88488 34.7458 3.91852L29.3461 5.71839C29.2587 5.74867 29.1813 5.65447 29.225 5.57373L32.2091 0.322148C32.2629 0.224585 32.1452 0.123658 32.0577 0.194307L25.8507 5.03881C25.7935 5.08255 25.7094 5.05563 25.6926 4.98835L24.3031 0.0765582C24.2695 -0.024369 24.1349 -0.024369 24.1047 0.0698297Z" fill="url(#paint6_radial_138_899)"/>
<defs>
<linearGradient id="paint0_linear_138_899" x1="6.7283" y1="8.83816" x2="6.7283" y2="11.4458" gradientUnits="userSpaceOnUse">
<stop stop-color="#BDBDBD"/>
<stop offset="0.2106" stop-color="#B8B8B8"/>
<stop offset="0.4759" stop-color="#A8A8A8"/>
<stop offset="0.7694" stop-color="#8E8E8E"/>
<stop offset="1" stop-color="#757575"/>
</linearGradient>
<linearGradient id="paint1_linear_138_899" x1="20.2168" y1="15.3886" x2="20.1576" y2="38.3693" gradientUnits="userSpaceOnUse">
<stop stop-color="#616161"/>
<stop offset="1" stop-color="#212121"/>
</linearGradient>
<linearGradient id="paint2_linear_138_899" x1="24.8955" y1="18.0889" x2="24.8955" y2="35.5419" gradientUnits="userSpaceOnUse">
<stop stop-color="#616161"/>
<stop offset="1" stop-color="#212121"/>
</linearGradient>
<radialGradient id="paint3_radial_138_899" cx="0" cy="0" r="1" gradientUnits="userSpaceOnUse" gradientTransform="translate(24.8526 19.015) scale(15.7693 15.7709)">
<stop stop-color="#424242"/>
<stop offset="1" stop-color="#212121"/>
</radialGradient>
<radialGradient id="paint4_radial_138_899" cx="0" cy="0" r="1" gradientUnits="userSpaceOnUse" gradientTransform="translate(24.8527 26.879) scale(3.3639 3.36424)">
<stop stop-color="#757575"/>
<stop offset="0.2031" stop-color="#6A6A6A"/>
<stop offset="0.5578" stop-color="#4D4D4D"/>
<stop offset="1" stop-color="#212121"/>
</radialGradient>
<linearGradient id="paint5_linear_138_899" x1="9.09326" y1="15.4721" x2="9.09326" y2="18.1948" gradientUnits="userSpaceOnUse">
<stop stop-color="#E0E0E0"/>
<stop offset="1" stop-color="#9E9E9E"/>
</linearGradient>
<radialGradient id="paint6_radial_138_899" cx="0" cy="0" r="1" gradientUnits="userSpaceOnUse" gradientTransform="translate(24.6018 9.17817) scale(10.7901 7.77178)">
<stop stop-color="#FFFF00"/>
<stop offset="0.1609" stop-color="#FEF802"/>
<stop offset="0.4013" stop-color="#FCE307"/>
<stop offset="0.6913" stop-color="#F9C20F"/>
<stop offset="1" stop-color="#F49719"/>
</radialGradient>
</defs>
</svg>
