<svg width="61" height="40" viewBox="0 0 61 40" fill="none" xmlns="http://www.w3.org/2000/svg">
<path d="M59.366 25.3485H58.0479C57.2367 25.3485 56.5776 24.6894 56.5776 23.8783V15.564C56.5776 14.7528 57.2367 14.0938 58.0479 14.0938H59.366C60.1771 14.0938 60.8362 14.7528 60.8362 15.564V23.8783C60.8362 24.6894 60.1771 25.3485 59.366 25.3485Z" fill="#333333"/>
<path d="M55.8171 2.63625C55.8171 1.16603 54.6511 0 53.1809 0H27.7816C26.0072 0 24.8412 1.26743 23.7259 2.58555C20.6334 6.28644 13.7892 13.7389 13.2823 14.398C13.1809 14.4994 7.40142 15.2598 4.1568 15.7161C2.83868 15.8682 1.82474 16.9328 1.72334 18.2509L1.46986 30.3169C1.06428 32.801 2.4838 33.8657 4.76517 33.8657H52.9781L58.4534 31.2294C58.4027 31.2294 55.8171 2.63625 55.8171 2.63625Z" fill="url(#paint0_linear_138_1038)"/>
<path d="M37.5666 15.2088H20.5324C19.7213 15.2088 19.265 14.2455 19.772 13.5865L28.5933 3.09218C28.796 2.8894 29.0495 2.7373 29.3537 2.7373H37.5666C38.2764 2.7373 38.8341 3.29497 38.8341 4.00473V13.9414C38.8341 14.6511 38.2764 15.2088 37.5666 15.2088Z" fill="#B7E6FC"/>
<path d="M52.573 15.2088H42.8899C42.1801 15.2088 41.5718 14.6004 41.5718 13.8907V4.05543C41.5718 3.29497 42.1801 2.7373 42.8899 2.7373H51.5084C52.2182 2.7373 52.8265 3.34567 52.8265 4.05543L53.8912 13.8907C53.8912 14.6004 53.2828 15.2088 52.573 15.2088Z" fill="#B7E6FC"/>
<path d="M0.760456 33.6627H58.403C58.8593 33.4092 59.1635 32.9023 59.1635 32.3446V30.1646C59.1635 29.3028 58.4537 28.593 57.5919 28.593H55.6147C54.1952 25.0442 50.7478 22.5601 46.7427 22.5601C42.7376 22.5601 39.2902 25.0442 37.8707 28.593H21.8504C20.4309 25.0442 17.0342 22.5601 12.9785 22.5601C8.92269 22.5601 5.52598 25.0442 4.10646 28.593H1.57161C0.709759 28.593 0 29.3028 0 30.1646V32.3446C0 32.9023 0.304183 33.4092 0.760456 33.6627Z" fill="#546E7A"/>
<path d="M12.9783 39.8986C17.2622 39.8986 20.735 36.4258 20.735 32.1419C20.735 27.858 17.2622 24.3853 12.9783 24.3853C8.69445 24.3853 5.22168 27.858 5.22168 32.1419C5.22168 36.4258 8.69445 39.8986 12.9783 39.8986Z" fill="#3E2723"/>
<path d="M12.9783 35.2339C14.6862 35.2339 16.0708 33.8493 16.0708 32.1414C16.0708 30.4334 14.6862 29.0488 12.9783 29.0488C11.2703 29.0488 9.88574 30.4334 9.88574 32.1414C9.88574 33.8493 11.2703 35.2339 12.9783 35.2339Z" fill="#BDBDBD"/>
<path d="M46.7933 39.8986C51.0772 39.8986 54.5499 36.4258 54.5499 32.1419C54.5499 27.858 51.0772 24.3853 46.7933 24.3853C42.5094 24.3853 39.0366 27.858 39.0366 32.1419C39.0366 36.4258 42.5094 39.8986 46.7933 39.8986Z" fill="#3E2723"/>
<path d="M46.7937 35.2339C48.5016 35.2339 49.8862 33.8493 49.8862 32.1414C49.8862 30.4334 48.5016 29.0488 46.7937 29.0488C45.0857 29.0488 43.7012 30.4334 43.7012 32.1414C43.7012 33.8493 45.0857 35.2339 46.7937 35.2339Z" fill="#BDBDBD"/>
<path d="M6.33739 20.1268L5.77972 21.4957C5.32345 22.611 4.86717 22.8645 3.29556 22.8645H1.62256L1.72395 18.6059H5.22205C6.03321 18.5552 6.64157 19.3157 6.33739 20.1268Z" fill="#FFF9C4"/>
<path d="M57.693 23.1685H55.7158V17.5918H57.186L57.693 23.1685Z" fill="#F44336"/>
<path opacity="0.2" d="M37.5662 3.75125C37.6676 3.75125 37.8197 3.85264 37.8197 4.00473V13.9414C37.8197 14.0428 37.7183 14.1948 37.5662 14.1948H20.6841L29.404 3.75125H37.5662ZM37.5662 2.7373H29.3533C29.0491 2.7373 28.7956 2.8387 28.5928 3.09218L19.7715 13.5865C19.2646 14.1948 19.6701 15.2088 20.532 15.2088H37.5662C38.276 15.2088 38.8336 14.6511 38.8336 13.9414V4.00473C38.8336 3.29497 38.276 2.7373 37.5662 2.7373Z" fill="#424242"/>
<path opacity="0.2" d="M51.5084 3.75125C51.6605 3.75125 51.8126 3.90334 51.8126 4.05543V4.15682L52.8265 13.8907C52.8265 14.0428 52.6744 14.1441 52.5223 14.1441H42.8899C42.7378 14.1441 42.5857 13.9921 42.5857 13.84V4.05543C42.5857 3.90334 42.7378 3.75125 42.8899 3.75125H51.5084ZM51.5084 2.7373H42.8899C42.1801 2.7373 41.5718 3.34567 41.5718 4.05543V13.8907C41.5718 14.6004 42.1801 15.2088 42.8899 15.2088H52.573C53.2828 15.2088 53.8912 14.6004 53.8912 13.8907L52.8265 4.05543C52.8772 3.29497 52.2689 2.7373 51.5084 2.7373Z" fill="#424242"/>
<path d="M24.2836 17.5918C23.7767 17.5918 22.8641 16.73 22.1544 16.0202C21.546 15.3611 21.4953 14.2965 22.053 13.5867C22.7627 12.7756 23.726 12.0151 24.2329 12.0151C25.0948 12.0151 25.8046 12.7249 25.8046 13.5867V16.0709C25.8046 16.8821 25.1455 17.5918 24.2836 17.5918Z" fill="#546E7A"/>
<path opacity="0.2" d="M53.1812 1.06472C54.0431 1.06472 54.7528 1.77448 54.7528 2.63633V2.73773L55.8682 14.7529C55.9189 15.1585 56.2231 15.5134 56.6286 15.6655C56.73 15.7162 56.8314 15.7162 56.9328 15.7162C57.237 15.7162 57.5412 15.5641 57.744 15.3106C57.7947 15.2599 57.8961 15.1585 58.0989 15.1585H59.417C59.6198 15.1585 59.8226 15.3613 59.8226 15.5641V23.8784C59.8226 24.0812 59.6198 24.284 59.417 24.284H58.0989H58.0482C57.9975 24.284 57.9468 24.284 57.9468 24.284C57.6933 24.284 57.4398 24.3854 57.237 24.5882C57.0342 24.791 56.8821 25.0951 56.9328 25.45L57.237 28.8467C57.2877 29.2523 57.5412 29.5565 57.8961 29.7086C58.0482 29.7593 58.2509 29.9621 58.2509 30.1648V32.3448C58.2509 32.4462 58.2002 32.5476 58.1496 32.649H54.4994C53.9924 32.649 53.5868 33.0039 53.4854 33.5109C52.8771 36.6541 50.0887 38.9354 46.8948 38.9354C43.7516 38.9354 41.0139 36.7048 40.3042 33.6629C40.2028 33.2067 39.7972 32.8518 39.2902 32.8518H20.583C20.076 32.8518 19.6705 33.2067 19.5691 33.6629C18.91 36.7048 16.1217 38.9354 12.9785 38.9354C9.83523 38.9354 7.09759 36.7048 6.38783 33.6629C6.28644 33.2067 5.88086 32.8518 5.37389 32.8518H4.71483C4.25855 32.8518 3.90368 32.8011 3.5488 32.6997C3.4474 32.649 3.34601 32.649 3.24461 32.649H1.16603C1.11534 32.5476 1.06464 32.4462 1.06464 32.3448V30.1648C1.06464 29.9114 1.26743 29.6579 1.57161 29.6579C2.12928 29.6579 2.53485 29.2016 2.58555 28.6439L2.73764 18.3017C2.83904 17.4906 3.4474 16.8822 4.25855 16.7301C5.88086 16.5273 8.16223 16.2232 10.038 15.9697C13.7389 15.4627 13.7389 15.4627 14.0431 15.1078C14.1952 14.905 15.3612 13.6376 16.6793 12.1674C19.1635 9.42974 22.5095 5.67816 24.4867 3.2954C25.6527 1.87588 26.5653 1.06472 27.782 1.06472H53.1812ZM53.1812 0.0507812H27.782C26.0076 0.0507812 24.8416 1.31821 23.7262 2.63633C20.6337 6.33722 13.7896 13.7897 13.2826 14.4488C13.2319 14.4995 7.50317 15.2599 4.20786 15.7162C2.88973 15.8683 1.87579 16.9329 1.7744 18.251L1.52091 28.6439C0.709759 28.6946 0 29.3537 0 30.2155V32.3955C0 32.9532 0.304182 33.4602 0.760456 33.7136H3.29531C3.70089 33.815 4.20786 33.9164 4.71483 33.9164H5.37389C6.13435 37.3638 9.22687 40.0001 12.9785 40.0001C16.6793 40.0001 19.7719 37.4145 20.583 33.9164H39.1888C39.9493 37.3638 43.0418 40.0001 46.7934 40.0001C50.545 40.0001 53.6882 37.3131 54.398 33.7643H58.403C58.8593 33.5109 59.1635 33.0039 59.1635 32.4462V30.2662C59.1635 29.6072 58.7579 29.0495 58.1496 28.796L57.8454 25.3993H57.9975H59.3156C60.1267 25.3993 60.7858 24.7403 60.7858 23.9291V15.5641C60.7858 14.7529 60.1267 14.0939 59.3156 14.0939H57.9975C57.5412 14.0939 57.1356 14.2967 56.8314 14.6515L55.7161 2.63633C55.8175 1.21681 54.6515 0.0507812 53.1812 0.0507812Z" fill="#424242"/>
<defs>
<linearGradient id="paint0_linear_138_1038" x1="29.9271" y1="0.277769" x2="29.9271" y2="33.8909" gradientUnits="userSpaceOnUse">
<stop stop-color="#57CAFF"/>
<stop offset="0.2032" stop-color="#53C4FB"/>
<stop offset="0.4615" stop-color="#46B5F1"/>
<stop offset="0.7481" stop-color="#329BDF"/>
<stop offset="1" stop-color="#1C7ECC"/>
</linearGradient>
</defs>
</svg>
