<svg width="41" height="40" viewBox="0 0 41 40" fill="none" xmlns="http://www.w3.org/2000/svg">
<path d="M18.8567 18.6023C18.8567 18.6023 17.5597 17.1262 16.239 17.7207C14.4724 18.5145 15.6817 20.4972 13.3206 21.3146C10.7435 22.2063 8.91612 23.9053 9.7977 25.9691C10.7435 28.1815 14.5164 28.3064 14.6954 33.9844C14.7798 36.7034 16.722 36.6358 17.5799 35.7408C19.0864 34.1701 18.9378 29.3062 20.4949 27.5735C22.052 25.8407 25.9127 26.2832 27.3111 23.0541C27.3111 23.0541 24.9129 25.4624 21.8662 23.0879C20.424 21.9597 20.4408 20.0817 20.4408 20.0817L18.8567 18.6023Z" fill="#FFFDE7"/>
<path d="M21.8356 15.042C21.8356 15.042 21.9943 15.2041 21.5349 14.8089C20.5554 13.9679 18.5389 16.6667 17.0223 15.1602C15.6138 13.7585 17.4074 11.3231 18.9071 9.8606C19.9947 8.80338 19.2077 7.79345 18.3227 7.84411C17.3297 7.90154 14.7998 8.45886 13.1008 10.982C10.5202 14.8123 11.743 16.8457 9.05432 18.896C6.36904 20.9395 0.434415 21.6623 0.0257131 26.8505C-0.207348 29.8262 1.17413 31.5218 2.94405 33.6971C4.17016 35.2035 7.11214 37.8077 9.30427 38.9021C11.4964 39.9965 13.925 40.6045 16.1678 39.1081C21.1296 35.8014 20.2413 32.042 21.0789 29.8667C22.0416 27.374 25.0748 28.1779 27.5236 25.8405C29.1415 24.2969 29.2834 22.9661 29.1719 21.8683C29.0942 21.0813 28.7936 20.7672 28.3815 20.5747C28.0235 20.4058 27.4189 20.6389 27.1149 21.257C26.3448 22.8209 25.1085 23.7362 23.4737 22.4459C22.1531 21.4022 23.217 19.352 23.217 19.352L21.8356 15.042Z" fill="url(#paint0_radial_138_735)"/>
<path d="M18.1237 18.0517C17.8535 17.849 16.4146 16.9337 15.1648 18.0855C13.8171 19.3251 14.9149 21.0173 12.7835 21.3449C10.0881 21.7604 8.48711 23.5573 9.36869 25.6211C10.3144 27.8335 14.5163 28.303 14.6953 33.9809C14.7798 36.7 16.6814 36.5885 17.5799 35.7373C19.6606 33.7681 18.4581 29.4177 20.4948 27.5701C22.2513 25.9758 24.9163 26.8472 26.193 24.6146C26.4193 24.2194 26.4329 23.8748 25.8924 24.0978C24.896 24.5132 23.653 24.7227 22.2985 23.3952C21.1907 22.3076 21.5217 21.0004 21.5217 21.0004C21.5217 21.0004 18.3804 18.2442 18.1237 18.0517Z" fill="#FFFDE7"/>
<path d="M16.7384 34.9436C17.2309 34.9436 17.6301 34.5443 17.6301 34.0519C17.6301 33.5594 17.2309 33.1602 16.7384 33.1602C16.2459 33.1602 15.8467 33.5594 15.8467 34.0519C15.8467 34.5443 16.2459 34.9436 16.7384 34.9436Z" fill="#424242"/>
<path d="M17.8781 31.5689C18.3084 31.1106 18.2901 30.3944 17.8373 29.9692C17.3844 29.544 16.6685 29.5708 16.2381 30.0291C15.8078 30.4874 15.8261 31.2036 16.2789 31.6288C16.7318 32.054 17.4477 32.0272 17.8781 31.5689Z" fill="#424242"/>
<path d="M35.512 5.40557L34.0461 4.07475L32.5971 2.72705L17.7622 17.7072C17.6102 17.8558 17.6676 18.1463 17.8906 18.3591L19.5051 19.8993L21.1771 21.3787C21.4068 21.5814 21.704 21.6152 21.8357 21.4497L35.512 5.40557Z" fill="url(#paint1_linear_138_735)"/>
<path d="M30.9485 4.68945C31.2559 4.9698 32.7184 6.31075 33.3433 6.88496C33.4682 6.9998 33.7114 7.22273 33.7114 7.22273C33.7114 7.22273 35.863 7.72263 36.5622 5.92569L37.7985 2.75403C37.7985 2.75403 38.1329 3.06478 38.6868 3.11207C39.5346 3.18637 40.3993 2.17982 40.1156 1.27122C39.7609 0.136308 39.2103 -0.32306 37.1499 0.241017C36.4102 0.443679 32.5292 1.5009 32.5292 1.5009C30.4249 2.16969 30.5803 4.35506 30.9485 4.68945Z" fill="url(#paint2_linear_138_735)"/>
<path d="M5.85566 28.215C5.75771 28.3198 5.73407 28.4549 5.80162 28.519L11.9896 34.3287C12.0571 34.3929 12.1922 34.3591 12.2902 34.2544L13.4251 33.0485C13.5231 32.9438 13.5467 32.8087 13.4791 32.7446L7.29119 26.9349C7.22363 26.8707 7.08852 26.9045 6.99057 27.0092L5.85566 28.215Z" fill="#424242"/>
<defs>
<radialGradient id="paint0_radial_138_735" cx="0" cy="0" r="1" gradientUnits="userSpaceOnUse" gradientTransform="translate(14.6939 24.6353) rotate(-1.80512) scale(15.3492)">
<stop stop-color="#FF1744"/>
<stop offset="0.2555" stop-color="#FD1641"/>
<stop offset="0.4254" stop-color="#F81338"/>
<stop offset="0.5703" stop-color="#EF0E29"/>
<stop offset="0.7004" stop-color="#E10714"/>
<stop offset="0.7931" stop-color="#D50000"/>
<stop offset="1" stop-color="#D50000"/>
</radialGradient>
<linearGradient id="paint1_linear_138_735" x1="32.1834" y1="6.44552" x2="19.7598" y2="19.7236" gradientUnits="userSpaceOnUse">
<stop stop-color="#6D6C6B"/>
<stop offset="1" stop-color="#504F4F"/>
</linearGradient>
<linearGradient id="paint2_linear_138_735" x1="37.8203" y1="-0.0156945" x2="31.3819" y2="6.99101" gradientUnits="userSpaceOnUse">
<stop stop-color="#FF1744"/>
<stop offset="0.2555" stop-color="#FD1641"/>
<stop offset="0.4254" stop-color="#F81338"/>
<stop offset="0.5703" stop-color="#EF0E29"/>
<stop offset="0.7004" stop-color="#E10714"/>
<stop offset="0.7931" stop-color="#D50000"/>
<stop offset="1" stop-color="#D50000"/>
</linearGradient>
</defs>
</svg>
