<svg width="37" height="40" viewBox="0 0 37 40" fill="none" xmlns="http://www.w3.org/2000/svg">
<path d="M2.33561 39.9668C1.33645 39.9668 0.736947 39.5005 0.403891 38.9343C-0.228915 37.9352 -0.0623867 36.5696 0.836864 35.6704L2.70198 33.772L3.40139 34.4714L1.53628 36.3698C0.970086 36.936 0.870169 37.7686 1.23653 38.3681C2.00256 39.5671 3.93428 38.6679 5.43303 37.702C7.56459 36.3365 9.19656 35.9701 10.2623 36.6363C11.2282 37.2024 11.4613 38.6346 11.4946 39.4006C11.4946 39.7004 11.2948 39.9335 10.9951 39.9335C10.7286 39.9335 10.4955 39.7337 10.4955 39.4672C10.4622 38.8677 10.329 37.8353 9.72945 37.5022C9.22987 37.2024 8.13078 37.1358 5.93262 38.568C4.36726 39.6004 3.20156 39.9668 2.33561 39.9668Z" fill="#9E9E9E"/>
<path d="M1.33619 35.5702C0.803301 35.0374 0.803301 34.2047 1.33619 33.6718L2.73502 31.3071L5.566 34.1381L3.2013 35.5369C2.70172 36.1031 1.86908 36.1031 1.33619 35.5702Z" fill="#757575"/>
<path opacity="0.2" d="M2.93493 32.9395L3.9674 33.972L2.70179 34.738L2.60188 34.8046L2.50196 34.9045C2.43535 34.9711 2.33543 35.0044 2.26882 35.0044C2.23551 35.0044 2.20221 35.0044 2.20221 35.0044L2.06899 34.9711L2.00237 34.8712C1.93576 34.7713 1.93576 34.5715 2.03568 34.4715L2.1356 34.3716L2.20221 34.2717L2.93493 32.9395ZM2.7351 31.3408L1.33626 33.7055C0.903291 34.1385 0.83668 34.8379 1.13643 35.3375L0.803374 35.7039C-0.062571 36.6031 -0.262405 37.9353 0.370401 38.9678C0.736763 39.534 1.30296 40.0003 2.30212 40.0003C3.16807 40.0003 4.36707 39.6339 5.93243 38.6014C7.39788 37.6689 8.36374 37.3691 8.99655 37.3691C9.3296 37.3691 9.56274 37.4357 9.72927 37.5357C10.2955 37.8687 10.462 38.9012 10.4953 39.5007C10.4953 39.7671 10.7284 39.967 10.9949 39.967C11.2946 39.967 11.4945 39.7338 11.4945 39.4341C11.4612 38.668 11.228 37.2359 10.2622 36.6697C9.9291 36.4699 9.49613 36.37 9.06316 36.37C8.0973 36.37 6.86499 36.8362 5.43285 37.7688C4.43368 38.4016 3.26799 39.0011 2.36874 39.0011C1.90246 39.0011 1.50279 38.8346 1.23635 38.4349C0.836679 37.8354 0.969902 37.0028 1.5361 36.4366L2.00237 35.9703C2.10229 36.0036 2.20221 36.0036 2.30212 36.0036C2.63518 36.0036 2.96824 35.8704 3.23468 35.6039L5.59938 34.2051C5.56607 34.1718 2.7351 31.3408 2.7351 31.3408Z" fill="#EEEEEE"/>
<path d="M19.0549 12.4897L2.26891 30.8744C1.73602 31.4073 2.16899 32.6729 3.20147 33.7054C4.23394 34.7379 5.49955 35.1708 6.03244 34.638L24.3505 17.8186C23.1515 17.419 22.0524 16.7196 21.0866 15.7537C20.154 14.8211 19.4879 13.6887 19.0549 12.4897Z" fill="url(#paint0_radial_138_1071)"/>
<path d="M22.0522 9.15918L19.0547 12.4897C19.4544 13.6887 20.1538 14.8211 21.1196 15.7537C22.0855 16.6862 23.1846 17.3857 24.3836 17.8186L27.7141 14.8211L22.0522 9.15918Z" fill="#0091EA"/>
<path d="M16.157 21.8816C15.8572 21.8816 15.5575 21.7484 15.3243 21.5485C14.858 21.0823 14.858 20.3495 15.3243 19.8833L16.7232 18.4844C16.9563 18.2513 17.2227 18.1514 17.5558 18.1514C17.8888 18.1514 18.1553 18.2846 18.3884 18.4844C18.8547 18.9507 18.8547 19.6834 18.3884 20.1497L16.9896 21.5485C16.7898 21.7484 16.49 21.8816 16.157 21.8816Z" fill="#0091EA"/>
<path opacity="0.2" d="M17.5895 18.1515C17.8893 18.1515 18.189 18.2847 18.4221 18.4845C18.8884 18.9508 18.8884 19.6835 18.4221 20.1498L17.0233 21.5486C16.7902 21.7818 16.5237 21.8817 16.1907 21.8817C15.8576 21.8817 15.5912 21.7485 15.358 21.5486C14.8917 21.0824 14.8917 20.3496 15.358 19.8834L16.7569 18.4845C16.99 18.2514 17.2898 18.1515 17.5895 18.1515ZM17.5895 17.4854C17.0899 17.4854 16.6569 17.6852 16.2906 18.0182L14.8918 19.4171C14.1923 20.1165 14.1923 21.2822 14.8918 22.0149C15.2248 22.348 15.6911 22.5478 16.1907 22.5478C16.6903 22.5478 17.1232 22.348 17.4896 22.0149L18.8884 20.6161C19.5878 19.8834 19.5878 18.751 18.8884 18.0182C18.5221 17.6519 18.0891 17.4854 17.5895 17.4854Z" fill="#EEEEEE"/>
<path opacity="0.2" d="M22.0857 10.6246L26.2489 14.7878L23.6844 17.0859L5.39964 33.8386C5.13319 33.8386 4.53369 33.6055 3.90088 32.9727C3.23477 32.3066 3.03494 31.6737 3.03494 31.4739L19.7876 13.1558L22.0857 10.6246ZM22.0524 9.15918L19.0549 12.4897L2.26891 30.8411C1.73602 31.374 2.16899 32.6396 3.20147 33.6721C3.93419 34.4048 4.80014 34.8378 5.39964 34.8378C5.66608 34.8378 5.86591 34.7712 6.03244 34.6046L24.3505 17.7853L27.6811 14.7878C27.7144 14.8211 22.0524 9.15918 22.0524 9.15918Z" fill="#424242"/>
<path d="M28.1804 17.3521C32.9629 17.3521 36.8399 13.4751 36.8399 8.69265C36.8399 3.91017 32.9629 0.0332031 28.1804 0.0332031C23.398 0.0332031 19.521 3.91017 19.521 8.69265C19.521 13.4751 23.398 17.3521 28.1804 17.3521Z" fill="url(#paint1_radial_138_1071)"/>
<mask id="mask0_138_1071" style="mask-type:luminance" maskUnits="userSpaceOnUse" x="19" y="0" width="18" height="18">
<path d="M28.1804 17.3189C32.9629 17.3189 36.8399 13.4419 36.8399 8.65945C36.8399 3.87697 32.9629 0 28.1804 0C23.398 0 19.521 3.87697 19.521 8.65945C19.521 13.4419 23.398 17.3189 28.1804 17.3189Z" fill="white"/>
</mask>
<g mask="url(#mask0_138_1071)">
<path opacity="0.2" d="M22.0523 2.93086C22.4202 2.93086 22.7185 2.63263 22.7185 2.26474C22.7185 1.89686 22.4202 1.59863 22.0523 1.59863C21.6845 1.59863 21.3862 1.89686 21.3862 2.26474C21.3862 2.63263 21.6845 2.93086 22.0523 2.93086Z" fill="#9E9E9E"/>
<path opacity="0.2" d="M26.7818 1.99824C27.1497 1.99824 27.4479 1.70001 27.4479 1.33213C27.4479 0.964244 27.1497 0.666016 26.7818 0.666016C26.414 0.666016 26.1157 0.964244 26.1157 1.33213C26.1157 1.70001 26.414 1.99824 26.7818 1.99824Z" fill="#9E9E9E"/>
<path opacity="0.2" d="M24.8834 3.86347C25.2513 3.86347 25.5495 3.56524 25.5495 3.19736C25.5495 2.82948 25.2513 2.53125 24.8834 2.53125C24.5155 2.53125 24.2173 2.82948 24.2173 3.19736C24.2173 3.56524 24.5155 3.86347 24.8834 3.86347Z" fill="#9E9E9E"/>
<path opacity="0.2" d="M22.985 5.76191C23.3528 5.76191 23.6511 5.46368 23.6511 5.0958C23.6511 4.72792 23.3528 4.42969 22.985 4.42969C22.6171 4.42969 22.3188 4.72792 22.3188 5.0958C22.3188 5.46368 22.6171 5.76191 22.985 5.76191Z" fill="#9E9E9E"/>
<path opacity="0.2" d="M21.1202 7.66035C21.4881 7.66035 21.7863 7.36212 21.7863 6.99424C21.7863 6.62635 21.4881 6.32812 21.1202 6.32812C20.7523 6.32812 20.4541 6.62635 20.4541 6.99424C20.4541 7.36212 20.7523 7.66035 21.1202 7.66035Z" fill="#9E9E9E"/>
<path opacity="0.2" d="M19.2213 9.52558C19.5892 9.52558 19.8874 9.22735 19.8874 8.85947C19.8874 8.49159 19.5892 8.19336 19.2213 8.19336C18.8534 8.19336 18.5552 8.49159 18.5552 8.85947C18.5552 9.22735 18.8534 9.52558 19.2213 9.52558Z" fill="#9E9E9E"/>
<path opacity="0.2" d="M31.4776 1.03242C31.8455 1.03242 32.1437 0.73419 32.1437 0.366307C32.1437 -0.00157642 31.8455 -0.299805 31.4776 -0.299805C31.1098 -0.299805 30.8115 -0.00157642 30.8115 0.366307C30.8115 0.73419 31.1098 1.03242 31.4776 1.03242Z" fill="#9E9E9E"/>
<path opacity="0.2" d="M29.5797 2.93086C29.9476 2.93086 30.2458 2.63263 30.2458 2.26474C30.2458 1.89686 29.9476 1.59863 29.5797 1.59863C29.2118 1.59863 28.9136 1.89686 28.9136 2.26474C28.9136 2.63263 29.2118 2.93086 29.5797 2.93086Z" fill="#9E9E9E"/>
<path opacity="0.2" d="M27.7145 4.82929C28.0823 4.82929 28.3806 4.53107 28.3806 4.16318C28.3806 3.7953 28.0823 3.49707 27.7145 3.49707C27.3466 3.49707 27.0483 3.7953 27.0483 4.16318C27.0483 4.53107 27.3466 4.82929 27.7145 4.82929Z" fill="#9E9E9E"/>
<path opacity="0.2" d="M25.816 6.69453C26.1839 6.69453 26.4821 6.3963 26.4821 6.02842C26.4821 5.66053 26.1839 5.3623 25.816 5.3623C25.4481 5.3623 25.1499 5.66053 25.1499 6.02842C25.1499 6.3963 25.4481 6.69453 25.816 6.69453Z" fill="#9E9E9E"/>
<path opacity="0.2" d="M23.9508 8.59297C24.3187 8.59297 24.6169 8.29474 24.6169 7.92685C24.6169 7.55897 24.3187 7.26074 23.9508 7.26074C23.5829 7.26074 23.2847 7.55897 23.2847 7.92685C23.2847 8.29474 23.5829 8.59297 23.9508 8.59297Z" fill="#9E9E9E"/>
<path opacity="0.2" d="M22.0523 10.4914C22.4202 10.4914 22.7185 10.1932 22.7185 9.82529C22.7185 9.45741 22.4202 9.15918 22.0523 9.15918C21.6845 9.15918 21.3862 9.45741 21.3862 9.82529C21.3862 10.1932 21.6845 10.4914 22.0523 10.4914Z" fill="#9E9E9E"/>
<path opacity="0.2" d="M20.1539 12.3566C20.5218 12.3566 20.82 12.0584 20.82 11.6905C20.82 11.3226 20.5218 11.0244 20.1539 11.0244C19.786 11.0244 19.4878 11.3226 19.4878 11.6905C19.4878 12.0584 19.786 12.3566 20.1539 12.3566Z" fill="#9E9E9E"/>
<path opacity="0.2" d="M32.4103 3.86347C32.7781 3.86347 33.0764 3.56524 33.0764 3.19736C33.0764 2.82948 32.7781 2.53125 32.4103 2.53125C32.0424 2.53125 31.7441 2.82948 31.7441 3.19736C31.7441 3.56524 32.0424 3.86347 32.4103 3.86347Z" fill="#9E9E9E"/>
<path opacity="0.2" d="M30.5455 5.76191C30.9134 5.76191 31.2116 5.46368 31.2116 5.0958C31.2116 4.72792 30.9134 4.42969 30.5455 4.42969C30.1776 4.42969 29.8794 4.72792 29.8794 5.0958C29.8794 5.46368 30.1776 5.76191 30.5455 5.76191Z" fill="#9E9E9E"/>
<path opacity="0.2" d="M28.6471 7.66035C29.015 7.66035 29.3132 7.36212 29.3132 6.99424C29.3132 6.62635 29.015 6.32812 28.6471 6.32812C28.2792 6.32812 27.981 6.62635 27.981 6.99424C27.981 7.36212 28.2792 7.66035 28.6471 7.66035Z" fill="#9E9E9E"/>
<path opacity="0.2" d="M26.7818 9.52558C27.1497 9.52558 27.4479 9.22735 27.4479 8.85947C27.4479 8.49159 27.1497 8.19336 26.7818 8.19336C26.414 8.19336 26.1157 8.49159 26.1157 8.85947C26.1157 9.22735 26.414 9.52558 26.7818 9.52558Z" fill="#9E9E9E"/>
<path opacity="0.2" d="M24.8834 11.424C25.2513 11.424 25.5495 11.1258 25.5495 10.7579C25.5495 10.39 25.2513 10.0918 24.8834 10.0918C24.5155 10.0918 24.2173 10.39 24.2173 10.7579C24.2173 11.1258 24.5155 11.424 24.8834 11.424Z" fill="#9E9E9E"/>
<path opacity="0.2" d="M22.985 13.3225C23.3528 13.3225 23.6511 13.0242 23.6511 12.6563C23.6511 12.2885 23.3528 11.9902 22.985 11.9902C22.6171 11.9902 22.3188 12.2885 22.3188 12.6563C22.3188 13.0242 22.6171 13.3225 22.985 13.3225Z" fill="#9E9E9E"/>
<path opacity="0.2" d="M21.1202 15.1872C21.4881 15.1872 21.7863 14.889 21.7863 14.5211C21.7863 14.1532 21.4881 13.855 21.1202 13.855C20.7523 13.855 20.4541 14.1532 20.4541 14.5211C20.4541 14.889 20.7523 15.1872 21.1202 15.1872Z" fill="#9E9E9E"/>
<path opacity="0.2" d="M35.2413 4.82929C35.6092 4.82929 35.9074 4.53107 35.9074 4.16318C35.9074 3.7953 35.6092 3.49707 35.2413 3.49707C34.8734 3.49707 34.5752 3.7953 34.5752 4.16318C34.5752 4.53107 34.8734 4.82929 35.2413 4.82929Z" fill="#9E9E9E"/>
<path opacity="0.2" d="M33.3429 6.69453C33.7108 6.69453 34.009 6.3963 34.009 6.02842C34.009 5.66053 33.7108 5.3623 33.3429 5.3623C32.975 5.3623 32.6768 5.66053 32.6768 6.02842C32.6768 6.3963 32.975 6.69453 33.3429 6.69453Z" fill="#9E9E9E"/>
<path opacity="0.2" d="M31.4776 8.59297C31.8455 8.59297 32.1437 8.29474 32.1437 7.92685C32.1437 7.55897 31.8455 7.26074 31.4776 7.26074C31.1098 7.26074 30.8115 7.55897 30.8115 7.92685C30.8115 8.29474 31.1098 8.59297 31.4776 8.59297Z" fill="#9E9E9E"/>
<path opacity="0.2" d="M29.5797 10.4914C29.9476 10.4914 30.2458 10.1932 30.2458 9.82529C30.2458 9.45741 29.9476 9.15918 29.5797 9.15918C29.2118 9.15918 28.9136 9.45741 28.9136 9.82529C28.9136 10.1932 29.2118 10.4914 29.5797 10.4914Z" fill="#9E9E9E"/>
<path opacity="0.2" d="M27.7145 12.3566C28.0823 12.3566 28.3806 12.0584 28.3806 11.6905C28.3806 11.3226 28.0823 11.0244 27.7145 11.0244C27.3466 11.0244 27.0483 11.3226 27.0483 11.6905C27.0483 12.0584 27.3466 12.3566 27.7145 12.3566Z" fill="#9E9E9E"/>
<path opacity="0.2" d="M25.816 14.2551C26.1839 14.2551 26.4821 13.9568 26.4821 13.589C26.4821 13.2211 26.1839 12.9229 25.816 12.9229C25.4481 12.9229 25.1499 13.2211 25.1499 13.589C25.1499 13.9568 25.4481 14.2551 25.816 14.2551Z" fill="#9E9E9E"/>
<path opacity="0.2" d="M23.9508 16.153C24.3187 16.153 24.6169 15.8548 24.6169 15.4869C24.6169 15.119 24.3187 14.8208 23.9508 14.8208C23.5829 14.8208 23.2847 15.119 23.2847 15.4869C23.2847 15.8548 23.5829 16.153 23.9508 16.153Z" fill="#9E9E9E"/>
<path opacity="0.2" d="M36.1739 7.66035C36.5418 7.66035 36.84 7.36212 36.84 6.99424C36.84 6.62635 36.5418 6.32812 36.1739 6.32812C35.806 6.32812 35.5078 6.62635 35.5078 6.99424C35.5078 7.36212 35.806 7.66035 36.1739 7.66035Z" fill="#9E9E9E"/>
<path opacity="0.2" d="M34.3087 9.52558C34.6766 9.52558 34.9748 9.22735 34.9748 8.85947C34.9748 8.49159 34.6766 8.19336 34.3087 8.19336C33.9408 8.19336 33.6426 8.49159 33.6426 8.85947C33.6426 9.22735 33.9408 9.52558 34.3087 9.52558Z" fill="#9E9E9E"/>
<path opacity="0.2" d="M32.4103 11.424C32.7781 11.424 33.0764 11.1258 33.0764 10.7579C33.0764 10.39 32.7781 10.0918 32.4103 10.0918C32.0424 10.0918 31.7441 10.39 31.7441 10.7579C31.7441 11.1258 32.0424 11.424 32.4103 11.424Z" fill="#9E9E9E"/>
<path opacity="0.2" d="M30.5455 13.3225C30.9134 13.3225 31.2116 13.0242 31.2116 12.6563C31.2116 12.2885 30.9134 11.9902 30.5455 11.9902C30.1776 11.9902 29.8794 12.2885 29.8794 12.6563C29.8794 13.0242 30.1776 13.3225 30.5455 13.3225Z" fill="#9E9E9E"/>
<path opacity="0.2" d="M28.6471 15.1872C29.015 15.1872 29.3132 14.889 29.3132 14.5211C29.3132 14.1532 29.015 13.855 28.6471 13.855C28.2792 13.855 27.981 14.1532 27.981 14.5211C27.981 14.889 28.2792 15.1872 28.6471 15.1872Z" fill="#9E9E9E"/>
<path opacity="0.2" d="M26.7818 17.0856C27.1497 17.0856 27.4479 16.7874 27.4479 16.4195C27.4479 16.0516 27.1497 15.7534 26.7818 15.7534C26.414 15.7534 26.1157 16.0516 26.1157 16.4195C26.1157 16.7874 26.414 17.0856 26.7818 17.0856Z" fill="#9E9E9E"/>
<path opacity="0.2" d="M37.1397 10.4914C37.5076 10.4914 37.8059 10.1932 37.8059 9.82529C37.8059 9.45741 37.5076 9.15918 37.1397 9.15918C36.7719 9.15918 36.4736 9.45741 36.4736 9.82529C36.4736 10.1932 36.7719 10.4914 37.1397 10.4914Z" fill="#9E9E9E"/>
<path opacity="0.2" d="M35.2413 12.3566C35.6092 12.3566 35.9074 12.0584 35.9074 11.6905C35.9074 11.3226 35.6092 11.0244 35.2413 11.0244C34.8734 11.0244 34.5752 11.3226 34.5752 11.6905C34.5752 12.0584 34.8734 12.3566 35.2413 12.3566Z" fill="#9E9E9E"/>
<path opacity="0.2" d="M33.3429 14.2551C33.7108 14.2551 34.009 13.9568 34.009 13.589C34.009 13.2211 33.7108 12.9229 33.3429 12.9229C32.975 12.9229 32.6768 13.2211 32.6768 13.589C32.6768 13.9568 32.975 14.2551 33.3429 14.2551Z" fill="#9E9E9E"/>
<path opacity="0.2" d="M31.4776 16.153C31.8455 16.153 32.1437 15.8548 32.1437 15.4869C32.1437 15.119 31.8455 14.8208 31.4776 14.8208C31.1098 14.8208 30.8115 15.119 30.8115 15.4869C30.8115 15.8548 31.1098 16.153 31.4776 16.153Z" fill="#9E9E9E"/>
<path opacity="0.2" d="M29.5797 18.0183C29.9476 18.0183 30.2458 17.72 30.2458 17.3521C30.2458 16.9843 29.9476 16.686 29.5797 16.686C29.2118 16.686 28.9136 16.9843 28.9136 17.3521C28.9136 17.72 29.2118 18.0183 29.5797 18.0183Z" fill="#9E9E9E"/>
</g>
<path opacity="0.2" d="M28.1805 1.03237C30.2121 1.03237 32.1439 1.8317 33.6093 3.26384C36.6068 6.26135 36.6068 11.124 33.6093 14.1215C32.1772 15.5536 30.2454 16.3862 28.1805 16.3862C26.1156 16.3862 24.2171 15.5536 22.7517 14.1215C19.7542 11.124 19.7542 6.26135 22.7517 3.26384C24.2171 1.7984 26.1489 1.03237 28.1805 1.03237ZM28.1805 0.0332031C25.949 0.0332031 23.7509 0.865843 22.0523 2.56443C18.6551 5.9616 18.6551 11.4237 22.0523 14.8209C23.7509 16.5195 25.949 17.3521 28.1805 17.3521C30.412 17.3521 32.6101 16.5195 34.3087 14.8209C37.7059 11.4237 37.7059 5.9616 34.3087 2.56443C32.6101 0.865843 30.412 0.0332031 28.1805 0.0332031Z" fill="#EEEEEE"/>
<path d="M33.0432 15.6867L21.1864 3.79662C20.82 3.43026 20.82 2.83076 21.1864 2.4644L21.7526 1.93151C22.1189 1.56515 22.7184 1.56515 23.0848 1.93151L34.9416 13.8216C35.308 14.188 35.308 14.7875 34.9416 15.1538L34.3754 15.72C34.009 16.0531 33.4095 16.0531 33.0432 15.6867Z" fill="#BDBDBD"/>
<path d="M33.9426 15.6539L21.2199 2.93114C20.9534 2.6647 20.9534 2.23173 21.2199 1.99859C21.4863 1.76545 21.9193 1.73214 22.1524 1.99859L34.8751 14.7213C35.1416 14.9878 35.1416 15.3874 34.8751 15.6539C34.6087 15.9203 34.209 15.9203 33.9426 15.6539Z" fill="#E0E0E0"/>
<defs>
<radialGradient id="paint0_radial_138_1071" cx="0" cy="0" r="1" gradientUnits="userSpaceOnUse" gradientTransform="translate(15.0836 10.5074) scale(23.3862 23.4166)">
<stop stop-color="#40C4FF"/>
<stop offset="0.2233" stop-color="#3ABFFD"/>
<stop offset="0.5256" stop-color="#29B1F7"/>
<stop offset="0.8716" stop-color="#0C9BEE"/>
<stop offset="1" stop-color="#0091EA"/>
</radialGradient>
<radialGradient id="paint1_radial_138_1071" cx="0" cy="0" r="1" gradientUnits="userSpaceOnUse" gradientTransform="translate(28.2944 0.613703) scale(17.1077 17.13)">
<stop stop-color="#757575"/>
<stop offset="0.2223" stop-color="#6F6F6F"/>
<stop offset="0.5051" stop-color="#606060"/>
<stop offset="0.8196" stop-color="#464646"/>
<stop offset="0.8589" stop-color="#424242"/>
<stop offset="1" stop-color="#424242"/>
</radialGradient>
</defs>
</svg>
