<svg width="41" height="40" viewBox="0 0 41 40" fill="none" xmlns="http://www.w3.org/2000/svg">
<path d="M12.4364 9.40922L12.2165 9.1893C11.8829 8.85575 11.8829 8.31328 12.2165 7.97974L15.0681 5.12809C15.4017 4.79454 15.9441 4.79454 16.2777 5.12809L16.4976 5.34801C16.8311 5.68156 16.8311 6.22403 16.4976 6.55758L13.646 9.40922C13.3161 9.74277 12.7699 9.74277 12.4364 9.40922Z" fill="#757575"/>
<path d="M19.0785 10.1236L18.8586 9.90366C18.525 9.57011 18.525 9.02764 18.8586 8.69409L21.7102 5.84245C22.0438 5.5089 22.5862 5.5089 22.9198 5.84245L23.1397 6.06237C23.4732 6.39591 23.4732 6.93839 23.1397 7.27193L20.288 10.1236C19.9582 10.4571 19.412 10.4571 19.0785 10.1236Z" fill="#757575"/>
<path d="M30.6755 27.721L30.8954 27.941C31.2289 28.2745 31.7714 28.2745 32.1049 27.941L34.9566 25.0893C35.2901 24.7558 35.2901 24.2133 34.9566 23.8797L34.7367 23.6598C34.4031 23.3263 33.8606 23.3263 33.5271 23.6598L30.6755 26.5115C30.3419 26.845 30.3419 27.3875 30.6755 27.721Z" fill="#757575"/>
<path d="M29.9606 21.0794L30.1805 21.2994C30.5141 21.6329 31.0566 21.6329 31.3901 21.2994L34.2417 18.4477C34.5753 18.1142 34.5753 17.5717 34.2417 17.2381L34.0218 17.0182C33.6883 16.6847 33.1458 16.6847 32.8123 17.0182L29.9606 19.8699C29.6271 20.2034 29.6271 20.7459 29.9606 21.0794Z" fill="#757575"/>
<path d="M26.8854 8.82243C26.8854 8.82243 5.82425 6.42529 3.29515 6.42529C1.19857 6.42529 0 8.18833 0 8.18833C0 8.18833 12.0407 11.0693 15.904 11.9893C19.7673 12.9093 21.7869 13.9136 21.7869 13.9136L26.8854 8.82243Z" fill="#039BE5"/>
<path opacity="0.2" d="M3.29515 7.29032C5.33309 7.29032 20.7056 8.98738 25.9874 9.5775L22.4759 13.1439C21.4423 12.7334 19.0562 11.85 16.1056 11.1463C13.1073 10.4315 5.18648 8.53654 1.78869 7.72283C2.19188 7.48091 2.70137 7.29032 3.29515 7.29032ZM3.29515 6.42529C1.19857 6.42529 0 8.18833 0 8.18833C0 8.18833 12.0407 11.0693 15.904 11.9893C19.7673 12.9093 22.6849 14.1665 22.6849 14.1665L27.8567 8.91773C27.8604 8.91407 5.82425 6.42529 3.29515 6.42529Z" fill="#424242"/>
<path d="M31.181 13.1147C31.181 13.1147 33.5782 34.1759 33.5782 36.705C33.5782 38.8015 31.8151 40.0001 31.8151 40.0001C31.8151 40.0001 28.9342 27.9594 28.0142 24.0961C27.0942 20.2329 26.0898 18.2133 26.0898 18.2133L31.181 13.1147Z" fill="#039BE5"/>
<path d="M14.577 36.7963L13.6863 37.8776C13.3674 38.2625 12.7883 38.2148 12.5317 37.7787L9.27688 32.244C9.10461 31.9507 9.14493 31.5695 9.37218 31.3203L12.3411 28.1204C12.7516 27.6769 13.47 27.9152 13.5653 28.5273L14.7419 36.1806C14.7749 36.4041 14.7163 36.6277 14.577 36.7963Z" fill="#039BE5"/>
<path opacity="0.2" d="M12.7519 28.9528L13.8808 36.2799L13.1661 37.1486L10.0578 31.8595L12.7519 28.9528ZM12.8508 27.8936C12.6712 27.8936 12.4843 27.9669 12.3413 28.1208L9.37241 31.3207C9.1415 31.5699 9.10118 31.9511 9.27711 32.2443L12.5319 37.779C12.6712 38.0136 12.9058 38.1382 13.1441 38.1382C13.342 38.1382 13.5436 38.0539 13.6865 37.878L14.5772 36.7967C14.7165 36.6281 14.7788 36.4008 14.7422 36.1809L13.5656 28.5277C13.5033 28.1318 13.1807 27.8936 12.8508 27.8936Z" fill="#424242"/>
<path d="M3.45298 25.5766L2.3717 26.4673C1.98684 26.7862 2.03449 27.3653 2.47066 27.6219L8.00535 30.8767C8.29857 31.049 8.67977 31.0087 8.92902 30.7814L12.1289 27.8125C12.5724 27.402 12.3341 26.6836 11.722 26.5883L4.06876 25.4117C3.84517 25.375 3.62158 25.4373 3.45298 25.5766Z" fill="#039BE5"/>
<path opacity="0.2" d="M3.96979 26.2732L11.2968 27.4022L8.39021 30.0999L3.10477 26.988L3.96979 26.2732ZM3.9478 25.4009C3.7682 25.4009 3.59226 25.4632 3.45298 25.5768L2.3717 26.4675C1.98684 26.7864 2.03449 27.3655 2.47066 27.6221L8.00535 30.8769C8.1263 30.9502 8.26559 30.9832 8.4012 30.9832C8.5918 30.9832 8.7824 30.9136 8.92902 30.778L12.1289 27.809C12.5724 27.3985 12.3341 26.6801 11.722 26.5848L4.06876 25.4082C4.02844 25.4045 3.98812 25.4009 3.9478 25.4009Z" fill="#424242"/>
<path opacity="0.2" d="M30.3453 13.364C30.9537 18.8034 32.7094 34.667 32.7094 36.705C32.7094 37.2988 32.5188 37.8082 32.2769 38.2114C31.4632 34.8137 29.5682 26.8892 28.8535 23.8946C28.1351 20.8853 27.0941 18.2829 26.6249 17.187L30.3453 13.364ZM31.0014 11.4434L25.5986 17C25.5986 17 27.0904 20.2329 28.0141 24.0962C28.9341 27.9594 31.8151 40.0001 31.8151 40.0001C31.8151 40.0001 33.5781 38.7979 33.5781 36.705C33.5781 34.1759 31.0014 11.4434 31.0014 11.4434Z" fill="#424242"/>
<path d="M39.2672 0.802887C37.966 -0.498313 35.1437 -0.2564 33.0544 1.83285C30.9395 3.94776 11.6854 24.1292 11.6854 24.1292C11.6854 24.1292 8.3976 27.593 9.20398 30.8661C12.4771 31.6762 15.9409 28.3847 15.9409 28.3847C15.9409 28.3847 36.1517 9.10125 38.2372 7.01566C40.3265 4.92641 40.5684 2.10775 39.2672 0.802887Z" fill="url(#paint0_linear_138_962)"/>
<path d="M37.9473 5.6739C38.5997 4.94816 38.8856 3.65795 37.6504 2.42273C36.4152 1.18751 35.1213 1.4734 34.3993 2.12584C34.293 2.22114 34.0217 2.42273 34.0914 2.59134C34.1537 2.74895 34.4616 2.77094 34.5972 2.7856C35.2973 2.86257 35.924 3.18879 36.4005 3.67262C36.8807 4.14911 37.2106 4.77955 37.2875 5.47597C37.3022 5.61159 37.3242 5.91948 37.4818 5.98179C37.6504 6.05143 37.852 5.78019 37.9473 5.6739Z" fill="#4FC3F7"/>
<path opacity="0.2" d="M37.0861 0.733071C37.7788 0.733071 38.3689 0.941996 38.7501 1.31953C39.7288 2.29818 39.5492 4.666 37.7202 6.49501C35.6639 8.55127 15.6401 27.6624 15.4385 27.853C15.4128 27.8787 12.8618 30.2612 10.2813 30.2612C10.1311 30.2612 9.98078 30.2538 9.83417 30.2355C9.52261 27.5231 12.1873 24.6642 12.2166 24.6348C12.4109 24.4332 31.4891 4.43508 33.5747 2.35316C34.5863 1.33785 35.8985 0.733071 37.0861 0.733071ZM37.0861 0C35.7995 0 34.2967 0.590122 33.0578 1.83268C30.9429 3.94759 11.6888 24.129 11.6888 24.129C11.6888 24.129 8.40102 27.5928 9.20739 30.8659C9.5666 30.9539 9.9258 30.9942 10.285 30.9942C13.199 30.9942 15.9443 28.3845 15.9443 28.3845C15.9443 28.3845 36.1551 9.10107 38.2407 7.01549C40.3299 4.92623 40.5755 2.10758 39.2706 0.802713C38.7391 0.274902 37.9621 0 37.0861 0Z" fill="#424242"/>
<path d="M12.2797 29.246C14.5012 27.0245 15.9934 24.915 15.6127 24.5342C15.2319 24.1535 13.1224 25.6457 10.9008 27.8672C8.67932 30.0887 7.18708 32.1983 7.56783 32.5791C7.94858 32.9598 10.0581 31.4676 12.2797 29.246Z" fill="#616161"/>
<defs>
<linearGradient id="paint0_linear_138_962" x1="17.1145" y1="23.7986" x2="38.0063" y2="1.89809" gradientUnits="userSpaceOnUse">
<stop offset="0.0062124" stop-color="#BDBDBD"/>
<stop offset="0.0936" stop-color="#C4C4C4"/>
<stop offset="0.4215" stop-color="#DBDBDB"/>
<stop offset="0.7308" stop-color="#E9E9E9"/>
<stop offset="1" stop-color="#EEEEEE"/>
</linearGradient>
</defs>
</svg>
